<?xml version="1.0" standalone="no"?><!DOCTYPE svg PUBLIC "-//W3C//DTD SVG 1.1//EN" "http://www.w3.org/Graphics/SVG/1.1/DTD/svg11.dtd" ><svg version="1.1" xmlns="http://www.w3.org/2000/svg"><defs><font horiz-adv-x="0" id="font"><font-face ascent="756" bbox="-179.9657 -234 979.75 1028" cap-height="718" descent="-244" font-family="More Gothic" font-stretch="condensed" font-weight="700" units-per-em="1000" x-height="532" /><missing-glyph d="M55 0H445V750H55ZM85 62V688L235 375ZM100 32 250 344 400 32ZM250 406 100 718H400ZM415 62 265 375 415 688Z" horiz-adv-x="500" /><glyph d="M319 707C318 714 314 718 306 718H118C110 718 106 714 105 707L5 13C4 5 8 0 17 0H135C143 0 147 4 148 11L171 219H253L276 11C277 4 281 0 289 0H407C416 0 420 5 419 13ZM174 327 206 583H218L250 327Z" glyph-name="A" horiz-adv-x="424" unicode="A" /><glyph d="M520 602C528 602 532 606 532 614V706C532 714 528 718 520 718H168C160 718 156 715 154 707L1 13C-1 5 3 0 12 0H105C113 0 118 4 119 11L154 205H235V12C235 4 239 0 247 0H520C528 0 532 4 532 12V104C532 112 528 116 520 116H379V304H476C484 304 488 308 488 316V414C488 422 484 426 476 426H379V602ZM177 313 227 583H235V313Z" glyph-name="AE" horiz-adv-x="541" unicode="&#198;" /><glyph d="M520 602C528 602 532 606 532 614V706C532 714 528 718 520 718H168C160 718 156 715 154 707L1 13C-1 5 3 0 12 0H105C113 0 118 4 119 11L154 205H235V12C235 4 239 0 247 0H520C528 0 532 4 532 12V104C532 112 528 116 520 116H379V304H476C484 304 488 308 488 316V414C488 422 484 426 476 426H379V602ZM403 870H343C337 870 332 867 329 861L289 775C285 767 289 761 298 761H329C335 761 339 763 343 768L410 855C416 863 413 870 403 870ZM177 313 227 583H235V313Z" glyph-name="AEacute" horiz-adv-x="541" unicode="&#508;" /><glyph d="M319 707C318 714 314 718 306 718H118C110 718 106 714 105 707L5 13C4 5 8 0 17 0H135C143 0 147 4 148 11L171 219H253L276 11C277 4 281 0 289 0H407C416 0 420 5 419 13ZM301 870H241C235 870 230 867 227 861L187 775C183 767 187 761 196 761H227C233 761 237 763 241 768L308 855C314 863 311 870 301 870ZM174 327 206 583H218L250 327Z" glyph-name="Aacute" horiz-adv-x="424" unicode="&#193;" /><glyph d="M319 707C318 714 314 718 306 718H118C110 718 106 714 105 707L5 13C4 5 8 0 17 0H135C143 0 147 4 148 11L171 219H253L276 11C277 4 281 0 289 0H407C416 0 420 5 419 13ZM272 863C265 863 261 860 258 853C249 833 235 822 212 822C189 822 175 833 166 853C163 860 159 863 152 863H118C110 863 106 858 108 850C123 801 164 769 212 769C260 769 301 801 316 850C318 858 314 863 306 863ZM174 327 206 583H218L250 327Z" glyph-name="Abreve" horiz-adv-x="424" unicode="&#258;" /><glyph d="M319 707C318 714 314 718 306 718H118C110 718 106 714 105 707L5 13C4 5 8 0 17 0H135C143 0 147 4 148 11L171 219H253L276 11C277 4 281 0 289 0H407C416 0 420 5 419 13ZM120 776C115 767 118 761 128 761H167C173 761 179 766 181 770L211 820L243 770C246 765 251 761 257 761H296C306 761 310 767 304 776L253 862C249 869 245 870 239 870H186C180 870 176 869 172 862ZM174 327 206 583H218L250 327Z" glyph-name="Acircumflex" horiz-adv-x="424" unicode="&#194;" /><glyph d="M319 707C318 714 314 718 306 718H118C110 718 106 714 105 707L5 13C4 5 8 0 17 0H135C143 0 147 4 148 11L171 219H253L276 11C277 4 281 0 289 0H407C416 0 420 5 419 13ZM116 791C116 783 120 779 128 779H178C186 779 190 783 190 791V840C190 848 186 852 178 852H128C120 852 116 848 116 840ZM234 791C234 783 238 779 246 779H296C304 779 308 783 308 791V840C308 848 304 852 296 852H246C238 852 234 848 234 840ZM174 327 206 583H218L250 327Z" glyph-name="Adieresis" horiz-adv-x="424" unicode="&#196;" /><glyph d="M319 707C318 714 314 718 306 718H118C110 718 106 714 105 707L5 13C4 5 8 0 17 0H135C143 0 147 4 148 11L171 219H253L276 11C277 4 281 0 289 0H407C416 0 420 5 419 13ZM113 855 180 768C184 763 188 761 194 761H225C234 761 238 767 234 775L194 861C191 867 186 870 180 870H120C110 870 107 863 113 855ZM174 327 206 583H218L250 327Z" glyph-name="Agrave" horiz-adv-x="424" unicode="&#192;" /><glyph d="M319 707C318 714 314 718 306 718H118C110 718 106 714 105 707L5 13C4 5 8 0 17 0H135C143 0 147 4 148 11L171 219H253L276 11C277 4 281 0 289 0H407C416 0 420 5 419 13ZM105 796C105 788 109 784 117 784H307C315 784 319 788 319 796V835C319 843 315 847 307 847H117C109 847 105 843 105 835ZM174 327 206 583H218L250 327Z" glyph-name="Amacron" horiz-adv-x="424" unicode="&#256;" /><glyph d="M354 -181C393 -181 419 -152 419 -119C419 -112 416 -109 412 -109H374C371 -109 368 -111 368 -115C368 -125 365 -133 357 -133C351 -133 347 -128 347 -118C347 -93 379 -36 411 -5C418 2 420 6 419 13L319 707C318 714 314 718 306 718H118C110 718 106 714 105 707L5 13C4 5 8 0 17 0H135C143 0 147 4 148 11L171 219H253L276 11C277 4 281 0 289 0H354C313 -39 290 -82 290 -118C290 -155 315 -181 354 -181ZM174 327 206 583H218L250 327Z" glyph-name="Aogonek" horiz-adv-x="424" unicode="&#260;" /><glyph d="M319 707C318 714 314 718 306 718H118C110 718 106 714 105 707L5 13C4 5 8 0 17 0H135C143 0 147 4 148 11L171 219H253L276 11C277 4 281 0 289 0H407C416 0 420 5 419 13ZM269 816C269 848 244 875 212 875C180 875 155 848 155 816C155 783 180 756 212 756C244 756 269 783 269 816ZM186 816C186 830 197 842 212 842C226 842 238 830 238 816C238 801 226 789 212 789C197 789 186 801 186 816ZM174 327 206 583H218L250 327Z" glyph-name="Aring" horiz-adv-x="424" unicode="&#197;" /><glyph d="M319 707C318 714 314 718 306 718H118C110 718 106 714 105 707L5 13C4 5 8 0 17 0H135C143 0 147 4 148 11L171 219H253L276 11C277 4 281 0 289 0H407C416 0 420 5 419 13ZM303 1028H243C237 1028 232 1025 229 1019L189 933C185 925 189 919 198 919H229C235 919 239 921 243 926L310 1013C316 1021 313 1028 303 1028ZM269 816C269 848 244 875 212 875C180 875 155 848 155 816C155 783 180 756 212 756C244 756 269 783 269 816ZM186 816C186 830 197 842 212 842C226 842 238 830 238 816C238 801 226 789 212 789C197 789 186 801 186 816ZM174 327 206 583H218L250 327Z" glyph-name="Aringacute" horiz-adv-x="424" unicode="&#506;" /><glyph d="M295 859C289 861 285 859 281 853C271 834 263 830 251 830C224 830 203 859 170 859C144 859 112 842 98 799C97 793 99 789 104 786L129 773C135 771 139 773 143 779C153 798 161 802 173 802C199 802 221 773 254 773C280 773 312 790 326 833C327 839 325 843 320 846ZM319 707C318 714 314 718 306 718H118C110 718 106 714 105 707L5 13C4 5 8 0 17 0H135C143 0 147 4 148 11L171 219H253L276 11C277 4 281 0 289 0H407C416 0 420 5 419 13ZM174 327 206 583H218L250 327Z" glyph-name="Atilde" horiz-adv-x="424" unicode="&#195;" /><glyph d="M210 0C330 0 401 75 401 201C401 285 361 346 291 374C352 401 387 456 387 529C387 648 316 718 196 718H49C41 718 37 714 37 706V12C37 4 41 0 49 0ZM181 310C243 309 257 280 257 212C257 154 247 112 181 110ZM181 608C236 608 249 583 249 517C249 449 235 428 181 426Z" glyph-name="B" horiz-adv-x="416" unicode="B" /><glyph d="M388 456C396 456 400 460 400 468C400 595 360 732 217 732C95 732 23 631 23 359C23 125 70 -14 214 -14C362 -14 399 134 400 256C400 264 396 268 388 268H278C270 268 266 264 266 256C263 160 250 102 220 102C200 102 173 127 173 359C173 597 200 616 220 616C249 616 262 578 263 467C263 460 267 456 275 456Z" glyph-name="C" horiz-adv-x="420" unicode="C" /><glyph glyph-name="CR" horiz-adv-x="250" /><glyph d="M388 456C396 456 400 460 400 468C400 595 360 732 217 732C95 732 23 631 23 359C23 125 70 -14 214 -14C362 -14 399 134 400 256C400 264 396 268 388 268H278C270 268 266 264 266 256C263 160 250 102 220 102C200 102 173 127 173 359C173 597 200 616 220 616C249 616 262 578 263 467C263 460 267 456 275 456ZM307 869H247C241 869 236 866 233 860L193 774C189 766 193 760 202 760H233C239 760 243 762 247 767L314 854C320 862 317 869 307 869Z" glyph-name="Cacute" horiz-adv-x="420" unicode="&#262;" /><glyph d="M388 456C396 456 400 460 400 468C400 595 360 732 217 732C95 732 23 631 23 359C23 125 70 -14 214 -14C362 -14 399 134 400 256C400 264 396 268 388 268H278C270 268 266 264 266 256C263 160 250 102 220 102C200 102 173 127 173 359C173 597 200 616 220 616C249 616 262 578 263 467C263 460 267 456 275 456ZM178 768C182 761 186 760 192 760H245C251 760 255 761 259 768L310 854C316 863 312 869 302 869H263C257 869 252 865 249 860L217 810L187 860C185 864 179 869 173 869H134C124 869 121 863 126 854Z" glyph-name="Ccaron" horiz-adv-x="420" unicode="&#268;" /><glyph d="M388 456C396 456 400 460 400 468C400 595 360 732 217 732C95 732 23 631 23 359C23 125 70 -14 214 -14C362 -14 399 134 400 256C400 264 396 268 388 268H278C270 268 266 264 266 256C263 160 250 102 220 102C200 102 173 127 173 359C173 597 200 616 220 616C249 616 262 578 263 467C263 460 267 456 275 456ZM183 -46 194 -57 247 0C252 6 247 12 240 12H214C208 12 207 8 203 3L167 -50C164 -55 165 -58 173 -64L188 -74C192 -77 196 -77 202 -71C206 -67 210 -65 219 -65C237 -65 245 -80 245 -101C245 -121 237 -137 218 -137C208 -137 200 -131 196 -124C193 -119 192 -118 187 -118H156C148 -118 145 -122 147 -129C158 -164 187 -181 219 -181C261 -181 296 -145 296 -101C296 -58 269 -30 233 -30C217 -30 200 -35 183 -46Z" glyph-name="Ccedilla" horiz-adv-x="420" unicode="&#199;" /><glyph d="M388 456C396 456 400 460 400 468C400 595 360 732 217 732C95 732 23 631 23 359C23 125 70 -14 214 -14C362 -14 399 134 400 256C400 264 396 268 388 268H278C270 268 266 264 266 256C263 160 250 102 220 102C200 102 173 127 173 359C173 597 200 616 220 616C249 616 262 578 263 467C263 460 267 456 275 456ZM126 775C121 766 124 760 134 760H173C179 760 185 765 187 769L217 819L249 769C252 764 257 760 263 760H302C312 760 316 766 310 775L259 861C255 868 251 869 245 869H192C186 869 182 868 178 861Z" glyph-name="Ccircumflex" horiz-adv-x="420" unicode="&#264;" /><glyph d="M388 456C396 456 400 460 400 468C400 595 360 732 217 732C95 732 23 631 23 359C23 125 70 -14 214 -14C362 -14 399 134 400 256C400 264 396 268 388 268H278C270 268 266 264 266 256C263 160 250 102 220 102C200 102 173 127 173 359C173 597 200 616 220 616C249 616 262 578 263 467C263 460 267 456 275 456ZM176 785C176 777 180 773 188 773H248C256 773 260 777 260 785V844C260 852 256 856 248 856H188C180 856 176 852 176 844Z" glyph-name="Cdotaccent" horiz-adv-x="420" unicode="&#266;" /><glyph d="M37 12C37 4 41 0 49 0H178C386 0 403 153 403 359C403 575 382 718 157 718H49C41 718 37 714 37 706ZM181 602C250 602 253 578 253 360C253 141 250 116 181 116Z" glyph-name="D" horiz-adv-x="426" unicode="D" /><glyph d="M160 768C164 761 168 760 174 760H227C233 760 237 761 241 768L292 854C298 863 294 869 284 869H245C239 869 234 865 231 860L199 810L169 860C167 864 161 869 155 869H116C106 869 103 863 108 854ZM37 12C37 4 41 0 49 0H178C386 0 403 153 403 359C403 575 382 718 157 718H49C41 718 37 714 37 706ZM181 602C250 602 253 578 253 360C253 141 250 116 181 116Z" glyph-name="Dcaron" horiz-adv-x="426" unicode="&#270;" /><glyph d="M178 0C386 0 403 153 403 359C403 575 382 718 157 718H49C41 718 37 714 37 706V406H12C4 406 0 402 0 394V334C0 326 4 322 12 322H37V12C37 4 41 0 49 0ZM181 116V322H212C220 322 224 326 224 334V394C224 402 220 406 212 406H181V602C250 602 253 578 253 360C253 141 250 116 181 116Z" glyph-name="Dcroat" horiz-adv-x="426" unicode="&#272;" /><glyph d="M10 12C10 4 14 0 22 0H437C445 0 449 4 449 12V68C449 73 448 77 447 82L305 707C303 715 299 718 292 718H177C170 718 166 715 164 708L12 79C11 74 10 70 10 65ZM129 100 197 375C209 424 222 480 232 523C240 479 255 421 265 375L329 100Z" glyph-name="Delta" horiz-adv-x="459" unicode="&#916;" /><glyph d="M37 12C37 4 41 0 49 0H340C348 0 352 4 352 12V104C352 112 348 116 340 116H181V304H290C298 304 302 308 302 316V414C302 422 298 426 290 426H181V602H333C341 602 345 606 345 614V706C345 714 341 718 333 718H49C41 718 37 714 37 706Z" glyph-name="E" horiz-adv-x="361" unicode="E" /><glyph d="M37 12C37 4 41 0 49 0H340C348 0 352 4 352 12V104C352 112 348 116 340 116H181V304H290C298 304 302 308 302 316V414C302 422 298 426 290 426H181V602H333C341 602 345 606 345 614V706C345 714 341 718 333 718H49C41 718 37 714 37 706ZM284 869H224C218 869 213 866 210 860L170 774C166 766 170 760 179 760H210C216 760 220 762 224 767L291 854C297 862 294 869 284 869Z" glyph-name="Eacute" horiz-adv-x="361" unicode="&#201;" /><glyph d="M37 12C37 4 41 0 49 0H340C348 0 352 4 352 12V104C352 112 348 116 340 116H181V304H290C298 304 302 308 302 316V414C302 422 298 426 290 426H181V602H333C341 602 345 606 345 614V706C345 714 341 718 333 718H49C41 718 37 714 37 706ZM255 862C248 862 244 859 241 852C232 832 218 821 195 821C172 821 158 832 149 852C146 859 142 862 135 862H101C93 862 89 857 91 849C106 800 147 768 195 768C243 768 284 800 299 849C301 857 297 862 289 862Z" glyph-name="Ebreve" horiz-adv-x="361" unicode="&#276;" /><glyph d="M37 12C37 4 41 0 49 0H340C348 0 352 4 352 12V104C352 112 348 116 340 116H181V304H290C298 304 302 308 302 316V414C302 422 298 426 290 426H181V602H333C341 602 345 606 345 614V706C345 714 341 718 333 718H49C41 718 37 714 37 706ZM155 768C159 761 163 760 169 760H222C228 760 232 761 236 768L287 854C293 863 289 869 279 869H240C234 869 229 865 226 860L194 810L164 860C162 864 156 869 150 869H111C101 869 98 863 103 854Z" glyph-name="Ecaron" horiz-adv-x="361" unicode="&#282;" /><glyph d="M37 12C37 4 41 0 49 0H340C348 0 352 4 352 12V104C352 112 348 116 340 116H181V304H290C298 304 302 308 302 316V414C302 422 298 426 290 426H181V602H333C341 602 345 606 345 614V706C345 714 341 718 333 718H49C41 718 37 714 37 706ZM103 775C98 766 101 760 111 760H150C156 760 162 765 164 769L194 819L226 769C229 764 234 760 240 760H279C289 760 293 766 287 775L236 861C232 868 228 869 222 869H169C163 869 159 868 155 861Z" glyph-name="Ecircumflex" horiz-adv-x="361" unicode="&#202;" /><glyph d="M37 12C37 4 41 0 49 0H340C348 0 352 4 352 12V104C352 112 348 116 340 116H181V304H290C298 304 302 308 302 316V414C302 422 298 426 290 426H181V602H333C341 602 345 606 345 614V706C345 714 341 718 333 718H49C41 718 37 714 37 706ZM99 790C99 782 103 778 111 778H161C169 778 173 782 173 790V839C173 847 169 851 161 851H111C103 851 99 847 99 839ZM217 790C217 782 221 778 229 778H279C287 778 291 782 291 790V839C291 847 287 851 279 851H229C221 851 217 847 217 839Z" glyph-name="Edieresis" horiz-adv-x="361" unicode="&#203;" /><glyph d="M37 12C37 4 41 0 49 0H340C348 0 352 4 352 12V104C352 112 348 116 340 116H181V304H290C298 304 302 308 302 316V414C302 422 298 426 290 426H181V602H333C341 602 345 606 345 614V706C345 714 341 718 333 718H49C41 718 37 714 37 706ZM153 785C153 777 157 773 165 773H225C233 773 237 777 237 785V844C237 852 233 856 225 856H165C157 856 153 852 153 844Z" glyph-name="Edotaccent" horiz-adv-x="361" unicode="&#278;" /><glyph d="M37 12C37 4 41 0 49 0H340C348 0 352 4 352 12V104C352 112 348 116 340 116H181V304H290C298 304 302 308 302 316V414C302 422 298 426 290 426H181V602H333C341 602 345 606 345 614V706C345 714 341 718 333 718H49C41 718 37 714 37 706ZM96 854 163 767C167 762 171 760 177 760H208C217 760 221 766 217 774L177 860C174 866 169 869 163 869H103C93 869 90 862 96 854Z" glyph-name="Egrave" horiz-adv-x="361" unicode="&#200;" /><glyph d="M37 12C37 4 41 0 49 0H340C348 0 352 4 352 12V104C352 112 348 116 340 116H181V304H290C298 304 302 308 302 316V414C302 422 298 426 290 426H181V602H333C341 602 345 606 345 614V706C345 714 341 718 333 718H49C41 718 37 714 37 706ZM88 795C88 787 92 783 100 783H290C298 783 302 787 302 795V834C302 842 298 846 290 846H100C92 846 88 842 88 834Z" glyph-name="Emacron" horiz-adv-x="361" unicode="&#274;" /><glyph d="M291 -181C391 -181 429 -143 429 -33V706C429 714 425 718 417 718H307C299 718 295 714 295 706V382H291L186 708C184 715 180 718 173 718H49C41 718 37 714 37 706V12C37 4 41 0 49 0H159C167 0 171 4 171 12V400H176L300 10V-1C300 -40 292 -60 256 -60H232C224 -60 220 -63 220 -71V-164C220 -171 224 -176 231 -177C250 -179 266 -181 291 -181Z" glyph-name="Eng" horiz-adv-x="466" unicode="&#330;" /><glyph d="M287 -181C326 -181 352 -152 352 -119C352 -112 349 -109 345 -109H307C304 -109 301 -111 301 -115C301 -125 298 -133 290 -133C284 -133 280 -128 280 -118C280 -93 312 -36 344 -5C350 1 352 1 352 12V104C352 112 348 116 340 116H181V304H290C298 304 302 308 302 316V414C302 422 298 426 290 426H181V602H333C341 602 345 606 345 614V706C345 714 341 718 333 718H49C41 718 37 714 37 706V12C37 4 41 0 49 0H287C246 -39 223 -82 223 -118C223 -155 248 -181 287 -181Z" glyph-name="Eogonek" horiz-adv-x="361" unicode="&#280;" /><glyph d="M178 0C386 0 403 153 403 359C403 575 382 718 157 718H49C41 718 37 714 37 706V406H12C4 406 0 402 0 394V334C0 326 4 322 12 322H37V12C37 4 41 0 49 0ZM181 116V322H212C220 322 224 326 224 334V394C224 402 220 406 212 406H181V602C250 602 253 578 253 360C253 141 250 116 181 116Z" glyph-name="Eth" horiz-adv-x="426" unicode="&#208;" /><glyph d="M409 193H307C300 193 296 190 295 182C288 126 283 92 253 92C220 92 205 150 201 269H340C348 269 352 273 352 281V327C352 335 348 339 340 339H199C199 345 199 352 199 359C199 371 199 382 199 393H340C348 393 352 397 352 405V451C352 459 348 463 340 463H201C206 572 222 626 253 626C283 626 288 592 295 536C296 528 300 525 307 525H409C417 525 422 529 421 539C415 650 363 732 259 732C159 732 90 657 73 463H22C14 463 10 459 10 451V405C10 397 14 393 22 393H69C69 382 69 371 69 359C69 352 69 345 69 339H22C14 339 10 335 10 327V281C10 273 14 269 22 269H72C87 64 157 -14 259 -14C363 -14 415 68 421 179C422 189 417 193 409 193Z" glyph-name="Euro" horiz-adv-x="429" unicode="&#8364;" /><glyph d="M376 153C377 163 372 167 364 167H320C313 167 309 164 308 156C296 72 276 51 243 51C199 51 153 93 154 365C155 625 191 669 237 669C276 669 296 648 308 564C309 556 313 553 320 553H364C372 553 377 557 376 567C371 654 333 727 243 727C145 727 82 640 82 367C82 72 151 -7 243 -7C332 -7 371 67 376 153ZM30 321C24 321 18 317 18 313V275C18 271 24 267 30 267H273C279 267 285 271 285 275V313C285 317 279 321 273 321ZM30 461C24 461 18 457 18 453V415C18 411 24 407 30 407H273C279 407 285 411 285 415V453C285 457 279 461 273 461Z" glyph-name="Euro.LT" horiz-adv-x="400" /><glyph d="M175 52C175 56 174 58 170 58H149C146 58 144 57 144 53C141.0008 17.009 131 8 118 8C100 8 80 26 81 143C81 255 97 274 115 274C131 274 142.0002 264.9964 144 229C144 225 146 224 149 224H170C174 224 175 226 175 230C172 269 157 301 118 301C75 301 47 263.5226 47 144C47 15.4224 78 -19 118 -19C156 -19 172 14 175 52ZM26 127C24 127 21 126 21 124V105C21 103 24 101 26 101H131C134 101 136 103 136 105V124C136 126 134 127 131 127ZM26 185C24 185 21 183 21 181V163C21 161 24 159 26 159H131C134 159 136 161 136 163V181C136 183 134 185 131 185Z" glyph-name="Euro.dnom" horiz-adv-x="200" /><glyph d="M175 477C175 481 174 483 170 483H149C146 483 144 482 144 478C141.0008 442.009 131 433 118 433C100 433 80 451 81 568C81 680 97 699 115 699C131 699 142.0002 689.9964 144 654C144 650 146 649 149 649H170C174 649 175 651 175 655C172 694 157 726 118 726C75 726 47 688.5226 47 569C47 440.4224 78 406 118 406C156 406 172 439 175 477ZM26 552C24 552 21 551 21 549V530C21 528 24 526 26 526H131C134 526 136 528 136 530V549C136 551 134 552 131 552ZM26 610C24 610 21 608 21 606V588C21 586 24 584 26 584H131C134 584 136 586 136 588V606C136 608 134 610 131 610Z" glyph-name="Euro.numr" horiz-adv-x="200" /><glyph d="M175 7C175 11 174 13 170 13H149C146 13 144 12 144 8C141.0008 -27.991 131 -37 118 -37C100 -37 80 -19 81 98C81 210 97 229 115 229C131 229 142.0002 219.9964 144 184C144 180 146 179 149 179H170C174 179 175 181 175 185C172 224 157 256 118 256C75 256 47 218.5226 47 99C47 -29.5776 78 -64 118 -64C156 -64 172 -31 175 7ZM26 82C24 82 21 81 21 79V60C21 58 24 56 26 56H131C134 56 136 58 136 60V79C136 81 134 82 131 82ZM26 140C24 140 21 138 21 136V118C21 116 24 114 26 114H131C134 114 136 116 136 118V136C136 138 134 140 131 140Z" glyph-name="Euroinferior" horiz-adv-x="200" /><glyph d="M175 532C175 536 174 538 170 538H149C146 538 144 537 144 533C141.0008 497.009 131 488 118 488C100 488 80 506 81 623C81 735 97 754 115 754C131 754 142.0002 744.9964 144 709C144 705 146 704 149 704H170C174 704 175 706 175 710C172 749 157 781 118 781C75 781 47 743.5226 47 624C47 495.4224 78 461 118 461C156 461 172 494 175 532ZM26 607C24 607 21 606 21 604V585C21 583 24 581 26 581H131C134 581 136 583 136 585V604C136 606 134 607 131 607ZM26 665C24 665 21 663 21 661V643C21 641 24 639 26 639H131C134 639 136 641 136 643V661C136 663 134 665 131 665Z" glyph-name="Eurosuperior" horiz-adv-x="200" /><glyph d="M37 12C37 4 41 0 49 0H169C177 0 181 4 181 12V296H288C296 296 300 300 300 308V406C300 414 296 418 288 418H181V602H330C338 602 342 606 342 614V706C342 714 338 718 330 718H49C41 718 37 714 37 706Z" glyph-name="F" horiz-adv-x="342" unicode="F" /><glyph d="M263 467C263 460 267 456 275 456H388C396 456 400 460 400 468C400 595 360 732 217 732C95 732 23 631 23 359C23 125 79 -14 206 -14C267 -14 296 18 316 50L329 9C331 3 335 0 342 0H388C396 0 400 4 400 12V326C400 334 396 338 388 338H240C232 338 228 334 228 326V240C228 232 232 228 240 228H281C281 152 266 102 227 102C198 102 173 128 173 360C173 598 200 616 220 616C249 616 262 578 263 467Z" glyph-name="G" horiz-adv-x="427" unicode="G" /><glyph d="M263 467C263 460 267 456 275 456H388C396 456 400 460 400 468C400 595 360 732 217 732C95 732 23 631 23 359C23 125 79 -14 206 -14C267 -14 296 18 316 50L329 9C331 3 335 0 342 0H388C396 0 400 4 400 12V326C400 334 396 338 388 338H240C232 338 228 334 228 326V240C228 232 232 228 240 228H281C281 152 266 102 227 102C198 102 173 128 173 360C173 598 200 616 220 616C249 616 262 578 263 467ZM278 862C271 862 267 859 264 852C255 832 241 821 218 821C195 821 181 832 172 852C169 859 165 862 158 862H124C116 862 112 857 114 849C129 800 170 768 218 768C266 768 307 800 322 849C324 857 320 862 312 862Z" glyph-name="Gbreve" horiz-adv-x="427" unicode="&#286;" /><glyph d="M263 467C263 460 267 456 275 456H388C396 456 400 460 400 468C400 595 360 732 217 732C95 732 23 631 23 359C23 125 79 -14 206 -14C267 -14 296 18 316 50L329 9C331 3 335 0 342 0H388C396 0 400 4 400 12V326C400 334 396 338 388 338H240C232 338 228 334 228 326V240C228 232 232 228 240 228H281C281 152 266 102 227 102C198 102 173 128 173 360C173 598 200 616 220 616C249 616 262 578 263 467ZM126 775C121 766 124 760 134 760H173C179 760 185 765 187 769L217 819L249 769C252 764 257 760 263 760H302C312 760 316 766 310 775L259 861C255 868 251 869 245 869H192C186 869 182 868 178 861Z" glyph-name="Gcircumflex" horiz-adv-x="427" unicode="&#284;" /><glyph d="M263 467C263 460 267 456 275 456H388C396 456 400 460 400 468C400 595 360 732 217 732C95 732 23 631 23 359C23 125 79 -14 206 -14C267 -14 296 18 316 50L329 9C331 3 335 0 342 0H388C396 0 400 4 400 12V326C400 334 396 338 388 338H240C232 338 228 334 228 326V240C228 232 232 228 240 228H281C281 152 266 102 227 102C198 102 173 128 173 360C173 598 200 616 220 616C249 616 262 578 263 467ZM171 -181H208C215 -181 217 -179 220 -171L259 -56C262 -48 257 -42 250 -42H194C187 -42 182 -43 181 -51L161 -167C160 -174 164 -181 171 -181Z" glyph-name="Gcommaaccent" horiz-adv-x="427" unicode="&#290;" /><glyph d="M263 467C263 460 267 456 275 456H388C396 456 400 460 400 468C400 595 360 732 217 732C95 732 23 631 23 359C23 125 79 -14 206 -14C267 -14 296 18 316 50L329 9C331 3 335 0 342 0H388C396 0 400 4 400 12V326C400 334 396 338 388 338H240C232 338 228 334 228 326V240C228 232 232 228 240 228H281C281 152 266 102 227 102C198 102 173 128 173 360C173 598 200 616 220 616C249 616 262 578 263 467ZM176 785C176 777 180 773 188 773H248C256 773 260 777 260 785V844C260 852 256 856 248 856H188C180 856 176 852 176 844Z" glyph-name="Gdotaccent" horiz-adv-x="427" unicode="&#288;" /><glyph d="M37 12C37 4 41 0 49 0H169C177 0 181 4 181 12V303H255V12C255 4 259 0 267 0H387C395 0 399 4 399 12V706C399 714 395 718 387 718H267C259 718 255 714 255 706V429H181V706C181 714 177 718 169 718H49C41 718 37 714 37 706Z" glyph-name="H" horiz-adv-x="436" unicode="H" /><glyph d="M181 12V303H255V12C255 4 259 0 267 0H387C395 0 399 4 399 12V532H424C432 532 436 536 436 544V604C436 612 432 616 424 616H399V706C399 714 395 718 387 718H267C259 718 255 714 255 706V616H181V706C181 714 177 718 169 718H49C41 718 37 714 37 706V616H12C4 616 0 612 0 604V544C0 536 4 532 12 532H37V12C37 4 41 0 49 0H169C177 0 181 4 181 12ZM181 429V532H255V429Z" glyph-name="Hbar" horiz-adv-x="436" unicode="&#294;" /><glyph d="M37 12C37 4 41 0 49 0H169C177 0 181 4 181 12V303H255V12C255 4 259 0 267 0H387C395 0 399 4 399 12V706C399 714 395 718 387 718H267C259 718 255 714 255 706V429H181V706C181 714 177 718 169 718H49C41 718 37 714 37 706ZM125 775C120 766 123 760 133 760H172C178 760 184 765 186 769L216 819L248 769C251 764 256 760 262 760H301C311 760 315 766 309 775L258 861C254 868 250 869 244 869H191C185 869 181 868 177 861Z" glyph-name="Hcircumflex" horiz-adv-x="436" unicode="&#292;" /><glyph d="M37 12C37 4 41 0 49 0H169C177 0 181 4 181 12V706C181 714 177 718 169 718H49C41 718 37 714 37 706Z" glyph-name="I" horiz-adv-x="218" unicode="I" /><glyph d="M462 706C462 714 458 718 450 718H330C322 718 318 714 318 706V175C318 136 310 116 274 116H240C232 116 228 113 228 105V12C228 5 232 0 239 -1C258 -3 284 -5 309 -5C416 -5 462 33 462 143ZM37 12C37 4 41 0 49 0H169C177 0 181 4 181 12V706C181 714 177 718 169 718H49C41 718 37 714 37 706Z" glyph-name="IJ" horiz-adv-x="492" unicode="&#306;" /><glyph d="M37 12C37 4 41 0 49 0H169C177 0 181 4 181 12V706C181 714 177 718 169 718H49C41 718 37 714 37 706ZM198 869H138C132 869 127 866 124 860L84 774C80 766 84 760 93 760H124C130 760 134 762 138 767L205 854C211 862 208 869 198 869Z" glyph-name="Iacute" horiz-adv-x="218" unicode="&#205;" /><glyph d="M169 862C162 862 158 859 155 852C146 832 132 821 109 821C86 821 72 832 63 852C60 859 56 862 49 862H15C7 862 3 857 5 849C20 800 61 768 109 768C157 768 198 800 213 849C215 857 211 862 203 862ZM37 12C37 4 41 0 49 0H169C177 0 181 4 181 12V706C181 714 177 718 169 718H49C41 718 37 714 37 706Z" glyph-name="Ibreve" horiz-adv-x="218" unicode="&#300;" /><glyph d="M17 775C12 766 15 760 25 760H64C70 760 76 765 78 769L108 819L140 769C143 764 148 760 154 760H193C203 760 207 766 201 775L150 861C146 868 142 869 136 869H83C77 869 73 868 69 861ZM37 12C37 4 41 0 49 0H169C177 0 181 4 181 12V706C181 714 177 718 169 718H49C41 718 37 714 37 706Z" glyph-name="Icircumflex" horiz-adv-x="218" unicode="&#206;" /><glyph d="M13 790C13 782 17 778 25 778H75C83 778 87 782 87 790V839C87 847 83 851 75 851H25C17 851 13 847 13 839ZM37 12C37 4 41 0 49 0H169C177 0 181 4 181 12V706C181 714 177 718 169 718H49C41 718 37 714 37 706ZM131 790C131 782 135 778 143 778H193C201 778 205 782 205 790V839C205 847 201 851 193 851H143C135 851 131 847 131 839Z" glyph-name="Idieresis" horiz-adv-x="218" unicode="&#207;" /><glyph d="M37 12C37 4 41 0 49 0H169C177 0 181 4 181 12V706C181 714 177 718 169 718H49C41 718 37 714 37 706ZM67 785C67 777 71 773 79 773H139C147 773 151 777 151 785V844C151 852 147 856 139 856H79C71 856 67 852 67 844Z" glyph-name="Idotaccent" horiz-adv-x="218" unicode="&#304;" /><glyph d="M37 12C37 4 41 0 49 0H169C177 0 181 4 181 12V706C181 714 177 718 169 718H49C41 718 37 714 37 706ZM10 854 77 767C81 762 85 760 91 760H122C131 760 135 766 131 774L91 860C88 866 83 869 77 869H17C7 869 4 862 10 854Z" glyph-name="Igrave" horiz-adv-x="218" unicode="&#204;" /><glyph d="M37 12C37 4 41 0 49 0H169C177 0 181 4 181 12V706C181 714 177 718 169 718H49C41 718 37 714 37 706ZM2 795C2 787 6 783 14 783H204C212 783 216 787 216 795V834C216 842 212 846 204 846H14C6 846 2 842 2 834Z" glyph-name="Imacron" horiz-adv-x="218" unicode="&#298;" /><glyph d="M116 -181C155 -181 181 -152 181 -119C181 -112 178 -109 174 -109H136C133 -109 130 -111 130 -115C130 -125 127 -133 119 -133C113 -133 109 -128 109 -118C109 -93 141 -36 173 -5C179 1 181 1 181 12V706C181 714 177 718 169 718H49C41 718 37 714 37 706V12C37 4 41 0 49 0H116C75 -39 52 -82 52 -118C52 -155 77 -181 116 -181Z" glyph-name="Iogonek" horiz-adv-x="218" unicode="&#302;" /><glyph d="M192 858C186 860 182 858 178 852C168 833 160 829 148 829C121 829 100 858 67 858C41 858 9 841 -5 798C-6 792 -4 788 1 785L26 772C32 770 36 772 40 778C50 797 58 801 70 801C96 801 118 772 151 772C177 772 209 789 223 832C224 838 222 842 217 845ZM37 12C37 4 41 0 49 0H169C177 0 181 4 181 12V706C181 714 177 718 169 718H49C41 718 37 714 37 706Z" glyph-name="Itilde" horiz-adv-x="218" unicode="&#296;" /><glyph d="M244 706C244 714 240 718 232 718H112C104 718 100 714 100 706V175C100 136 92 116 56 116H22C14 116 10 113 10 105V12C10 5 14 0 21 -1C40 -3 66 -5 91 -5C198 -5 244 33 244 143Z" glyph-name="J" horiz-adv-x="274" unicode="J" /><glyph d="M244 706C244 714 240 718 232 718H112C104 718 100 714 100 706V175C100 136 92 116 56 116H22C14 116 10 113 10 105V12C10 5 14 0 21 -1C40 -3 66 -5 91 -5C198 -5 244 33 244 143ZM80 775C75 766 78 760 88 760H127C133 760 139 765 141 769L171 819L203 769C206 764 211 760 217 760H256C266 760 270 766 264 775L213 861C209 868 205 869 199 869H146C140 869 136 868 132 861Z" glyph-name="Jcircumflex" horiz-adv-x="274" unicode="&#308;" /><glyph d="M181 12V344H196L276 11C278 3 282 0 289 0H412C421 0 424 5 422 13L307 416L416 704C419 712 415 718 406 718H284C277 718 273 715 271 708L185 457H181V706C181 714 177 718 169 718H49C41 718 37 714 37 706V12C37 4 41 0 49 0H169C177 0 181 4 181 12Z" glyph-name="K" horiz-adv-x="428" unicode="K" /><glyph d="M181 12V344H196L276 11C278 3 282 0 289 0H412C421 0 424 5 422 13L307 416L416 704C419 712 415 718 406 718H284C277 718 273 715 271 708L185 457H181V706C181 714 177 718 169 718H49C41 718 37 714 37 706V12C37 4 41 0 49 0H169C177 0 181 4 181 12ZM173 -181H210C217 -181 219 -179 222 -171L261 -56C264 -48 259 -42 252 -42H196C189 -42 184 -43 183 -51L163 -167C162 -174 166 -181 173 -181Z" glyph-name="Kcommaaccent" horiz-adv-x="428" unicode="&#310;" /><glyph d="M37 12C37 4 41 0 49 0H315C323 0 327 4 327 12V104C327 112 323 116 315 116H181V706C181 714 177 718 169 718H49C41 718 37 714 37 706Z" glyph-name="L" horiz-adv-x="342" unicode="L" /><glyph d="M37 12C37 4 41 0 49 0H315C323 0 327 4 327 12V104C327 112 323 116 315 116H181V706C181 714 177 718 169 718H49C41 718 37 714 37 706ZM198 869H138C132 869 127 866 124 860L84 774C80 766 84 760 93 760H124C130 760 134 762 138 767L205 854C211 862 208 869 198 869Z" glyph-name="Lacute" horiz-adv-x="342" unicode="&#313;" /><glyph d="M37 12C37 4 41 0 49 0H315C323 0 327 4 327 12V104C327 112 323 116 315 116H181V706C181 714 177 718 169 718H49C41 718 37 714 37 706ZM288 718H233C224 718 220 715 219 707L209 613C208 602 211 599 218 599H246C252 599 256 600 258 606L295 703C299 714 296 718 288 718Z" glyph-name="Lcaron" horiz-adv-x="342" unicode="&#317;" /><glyph d="M37 12C37 4 41 0 49 0H315C323 0 327 4 327 12V104C327 112 323 116 315 116H181V706C181 714 177 718 169 718H49C41 718 37 714 37 706ZM134 -181H171C178 -181 180 -179 183 -171L222 -56C225 -48 220 -42 213 -42H157C150 -42 145 -43 144 -51L124 -167C123 -174 127 -181 134 -181Z" glyph-name="Lcommaaccent" horiz-adv-x="342" unicode="&#315;" /><glyph d="M37 12C37 4 41 0 49 0H315C323 0 327 4 327 12V104C327 112 323 116 315 116H181V706C181 714 177 718 169 718H49C41 718 37 714 37 706ZM236 323C236 315 240 311 248 311H308C316 311 320 315 320 323V382C320 390 316 394 308 394H248C240 394 236 390 236 382Z" glyph-name="Ldot" horiz-adv-x="342" unicode="&#319;" /><glyph d="M315 0C323 0 327 4 327 12V104C327 112 323 116 315 116H181V344L267 408C272 412 274 416 274 423V495C274 506 267 509 259 503L181 445V706C181 714 177 718 169 718H49C41 718 37 714 37 706V338L7 316C2 312 0 308 0 301V229C0 218 7 215 15 221L37 237V12C37 4 41 0 49 0Z" glyph-name="Lslash" horiz-adv-x="342" unicode="&#321;" /><glyph d="M372 718C365 718 362 714 360 707L286 383L212 707C210 714 207 718 200 718H49C41 718 37 714 37 706V12C37 4 41 0 49 0H155C163 0 167 4 167 12V424H174L254 11C255 4 259 0 266 0H306C313 0 317 4 318 11L398 424H405V12C405 4 409 0 417 0H523C531 0 535 4 535 12V706C535 714 531 718 523 718Z" glyph-name="M" horiz-adv-x="572" unicode="M" /><glyph d="M171 12V400H176L300 10C302 3 306 0 313 0H417C425 0 429 4 429 12V706C429 714 425 718 417 718H307C299 718 295 714 295 706V382H291L186 708C184 715 180 718 173 718H49C41 718 37 714 37 706V12C37 4 41 0 49 0H159C167 0 171 4 171 12Z" glyph-name="N" horiz-adv-x="466" unicode="N" /><glyph d="M171 12V400H176L300 10C302 3 306 0 313 0H417C425 0 429 4 429 12V706C429 714 425 718 417 718H307C299 718 295 714 295 706V382H291L186 708C184 715 180 718 173 718H49C41 718 37 714 37 706V12C37 4 41 0 49 0H159C167 0 171 4 171 12ZM322 869H262C256 869 251 866 248 860L208 774C204 766 208 760 217 760H248C254 760 258 762 262 767L329 854C335 862 332 869 322 869Z" glyph-name="Nacute" horiz-adv-x="466" unicode="&#323;" /><glyph d="M171 12V400H176L300 10C302 3 306 0 313 0H417C425 0 429 4 429 12V706C429 714 425 718 417 718H307C299 718 295 714 295 706V382H291L186 708C184 715 180 718 173 718H49C41 718 37 714 37 706V12C37 4 41 0 49 0H159C167 0 171 4 171 12ZM193 768C197 761 201 760 207 760H260C266 760 270 761 274 768L325 854C331 863 327 869 317 869H278C272 869 267 865 264 860L232 810L202 860C200 864 194 869 188 869H149C139 869 136 863 141 854Z" glyph-name="Ncaron" horiz-adv-x="466" unicode="&#327;" /><glyph d="M171 12V400H176L300 10C302 3 306 0 313 0H417C425 0 429 4 429 12V706C429 714 425 718 417 718H307C299 718 295 714 295 706V382H291L186 708C184 715 180 718 173 718H49C41 718 37 714 37 706V12C37 4 41 0 49 0H159C167 0 171 4 171 12ZM186 -181H223C230 -181 232 -179 235 -171L274 -56C277 -48 272 -42 265 -42H209C202 -42 197 -43 196 -51L176 -167C175 -174 179 -181 186 -181Z" glyph-name="Ncommaaccent" horiz-adv-x="466" unicode="&#325;" /><glyph d="M171 12V400H176L300 10C302 3 306 0 313 0H417C425 0 429 4 429 12V706C429 714 425 718 417 718H307C299 718 295 714 295 706V382H291L186 708C184 715 180 718 173 718H49C41 718 37 714 37 706V12C37 4 41 0 49 0H159C167 0 171 4 171 12ZM316 858C310 860 306 858 302 852C292 833 284 829 272 829C245 829 224 858 191 858C165 858 133 841 119 798C118 792 120 788 125 785L150 772C156 770 160 772 164 778C174 797 182 801 194 801C220 801 242 772 275 772C301 772 333 789 347 832C348 838 346 842 341 845Z" glyph-name="Ntilde" horiz-adv-x="466" unicode="&#209;" /><glyph d="M179 434C179 586 197 616 220 616C243 616 261 586 261 434V284C261 132 243 102 220 102C197 102 179 132 179 284ZM220 -14C339 -14 417 78 417 359C417 640 339 732 220 732C101 732 23 640 23 359C23 78 101 -14 220 -14Z" glyph-name="O" horiz-adv-x="440" unicode="O" /><glyph d="M540 414C540 422 536 426 528 426H420V602H572C580 602 584 606 584 614V706C584 714 580 718 572 718H298C284 718 274 732 220 732C101 732 23 640 23 359C23 78 101 -14 220 -14C258 -14 284 0 295 0H576C584 0 588 4 588 12V104C588 112 584 116 576 116H420V304H528C536 304 540 308 540 316ZM220 616C248 616 264 583 264 359C264 171 255 102 220 102C191 102 179 171 179 359C179 583 197 616 220 616Z" glyph-name="OE" horiz-adv-x="597" unicode="&#338;" /><glyph d="M309 869H249C243 869 238 866 235 860L195 774C191 766 195 760 204 760H235C241 760 245 762 249 767L316 854C322 862 319 869 309 869ZM179 434C179 586 197 616 220 616C243 616 261 586 261 434V284C261 132 243 102 220 102C197 102 179 132 179 284ZM220 -14C339 -14 417 78 417 359C417 640 339 732 220 732C101 732 23 640 23 359C23 78 101 -14 220 -14Z" glyph-name="Oacute" horiz-adv-x="440" unicode="&#211;" /><glyph d="M280 862C273 862 269 859 266 852C257 832 243 821 220 821C197 821 183 832 174 852C171 859 167 862 160 862H126C118 862 114 857 116 849C131 800 172 768 220 768C268 768 309 800 324 849C326 857 322 862 314 862ZM179 434C179 586 197 616 220 616C243 616 261 586 261 434V284C261 132 243 102 220 102C197 102 179 132 179 284ZM220 -14C339 -14 417 78 417 359C417 640 339 732 220 732C101 732 23 640 23 359C23 78 101 -14 220 -14Z" glyph-name="Obreve" horiz-adv-x="440" unicode="&#334;" /><glyph d="M128 775C123 766 126 760 136 760H175C181 760 187 765 189 769L219 819L251 769C254 764 259 760 265 760H304C314 760 318 766 312 775L261 861C257 868 253 869 247 869H194C188 869 184 868 180 861ZM179 434C179 586 197 616 220 616C243 616 261 586 261 434V284C261 132 243 102 220 102C197 102 179 132 179 284ZM220 -14C339 -14 417 78 417 359C417 640 339 732 220 732C101 732 23 640 23 359C23 78 101 -14 220 -14Z" glyph-name="Ocircumflex" horiz-adv-x="440" unicode="&#212;" /><glyph d="M124 790C124 782 128 778 136 778H186C194 778 198 782 198 790V839C198 847 194 851 186 851H136C128 851 124 847 124 839ZM242 790C242 782 246 778 254 778H304C312 778 316 782 316 790V839C316 847 312 851 304 851H254C246 851 242 847 242 839ZM179 434C179 586 197 616 220 616C243 616 261 586 261 434V284C261 132 243 102 220 102C197 102 179 132 179 284ZM220 -14C339 -14 417 78 417 359C417 640 339 732 220 732C101 732 23 640 23 359C23 78 101 -14 220 -14Z" glyph-name="Odieresis" horiz-adv-x="440" unicode="&#214;" /><glyph d="M121 854 188 767C192 762 196 760 202 760H233C242 760 246 766 242 774L202 860C199 866 194 869 188 869H128C118 869 115 862 121 854ZM179 434C179 586 197 616 220 616C243 616 261 586 261 434V284C261 132 243 102 220 102C197 102 179 132 179 284ZM220 -14C339 -14 417 78 417 359C417 640 339 732 220 732C101 732 23 640 23 359C23 78 101 -14 220 -14Z" glyph-name="Ograve" horiz-adv-x="440" unicode="&#210;" /><glyph d="M257 869H197C191 869 186 866 183 860L143 774C139 766 143 760 152 760H183C189 760 193 762 197 767L264 854C270 862 267 869 257 869ZM369 869H309C303 869 298 866 295 860L255 774C251 766 255 760 264 760H295C301 760 305 762 309 767L376 854C382 862 379 869 369 869ZM179 434C179 586 197 616 220 616C243 616 261 586 261 434V284C261 132 243 102 220 102C197 102 179 132 179 284ZM220 -14C339 -14 417 78 417 359C417 640 339 732 220 732C101 732 23 640 23 359C23 78 101 -14 220 -14Z" glyph-name="Ohungarumlaut" horiz-adv-x="440" unicode="&#336;" /><glyph d="M113 795C113 787 117 783 125 783H315C323 783 327 787 327 795V834C327 842 323 846 315 846H125C117 846 113 842 113 834ZM179 434C179 586 197 616 220 616C243 616 261 586 261 434V284C261 132 243 102 220 102C197 102 179 132 179 284ZM220 -14C339 -14 417 78 417 359C417 640 339 732 220 732C101 732 23 640 23 359C23 78 101 -14 220 -14Z" glyph-name="Omacron" horiz-adv-x="440" unicode="&#332;" /><glyph d="M205 12V64C205 70 203 74 200 78C172 119 142 230 142 372C142 511 176 610 232 610C291 610 318 497 318 376C318 221 288 118 260 78C257 74 255 70 255 64V12C255 4 259 0 267 0H438C446 0 450 4 450 12V90C450 98 446 102 438 102H360C399 165 439 280 439 406C439 548 379 718 235 718C104 718 21 574 21 395C21 273 57 171 100 102H22C14 102 10 98 10 90V12C10 4 14 0 22 0H193C201 0 205 4 205 12Z" glyph-name="Omega" horiz-adv-x="460" unicode="&#937;" /><glyph d="M220 -14C339 -14 417 78 417 359C417 478 403 563 378 622L415 699C418 706 418 713 411 716L380 731C374 734 367 734 364 727L342 681C309 717 268 732 220 732C101 732 23 640 23 359C23 241 37 156 62 97L25 21C22 14 22 7 29 4L60 -11C66 -14 73 -14 76 -7L98 38C130 1 172 -14 220 -14ZM220 102C201 102 186 122 181 211L261 378V284C261 132 243 102 220 102ZM179 434C179 586 197 616 220 616C239 616 254 596 259 509L179 342Z" glyph-name="Oslash" horiz-adv-x="440" unicode="&#216;" /><glyph d="M220 -14C339 -14 417 78 417 359C417 478 403 563 378 622L415 699C418 706 418 713 411 716L380 731C374 734 367 734 364 727L342 681C309 717 268 732 220 732C101 732 23 640 23 359C23 241 37 156 62 97L25 21C22 14 22 7 29 4L60 -11C66 -14 73 -14 76 -7L98 38C130 1 172 -14 220 -14ZM309 869H249C243 869 238 866 235 860L195 774C191 766 195 760 204 760H235C241 760 245 762 249 767L316 854C322 862 319 869 309 869ZM220 102C201 102 186 122 181 211L261 378V284C261 132 243 102 220 102ZM179 434C179 586 197 616 220 616C239 616 254 596 259 509L179 342Z" glyph-name="Oslashacute" horiz-adv-x="440" unicode="&#510;" /><glyph d="M303 858C297 860 293 858 289 852C279 833 271 829 259 829C232 829 211 858 178 858C152 858 120 841 106 798C105 792 107 788 112 785L137 772C143 770 147 772 151 778C161 797 169 801 181 801C207 801 229 772 262 772C288 772 320 789 334 832C335 838 333 842 328 845ZM179 434C179 586 197 616 220 616C243 616 261 586 261 434V284C261 132 243 102 220 102C197 102 179 132 179 284ZM220 -14C339 -14 417 78 417 359C417 640 339 732 220 732C101 732 23 640 23 359C23 78 101 -14 220 -14Z" glyph-name="Otilde" horiz-adv-x="440" unicode="&#213;" /><glyph d="M37 12C37 4 41 0 49 0H169C177 0 181 4 181 12V285H216C339 285 405 360 405 502C405 650 332 718 174 718H49C41 718 37 714 37 706ZM182 602C229 602 261 596 261 499C261 413 236 395 182 395Z" glyph-name="P" horiz-adv-x="410" unicode="P" /><glyph d="M411 -105C419 -105 423 -101 423 -93V5C423 13 419 17 411 17H375C353 17 350 18 341 37C389 90 417 191 417 359C417 640 339 732 220 732C101 732 23 640 23 359C23 78 101 -14 220 -14C227 -14 233 -14 240 -13C253 -52 290 -105 383 -105ZM179 284V434C179 586 197 616 220 616C243 616 261 586 261 434V284C261 132 243 102 220 102C197 102 179 132 179 284Z" glyph-name="Q" horiz-adv-x="440" unicode="Q" /><glyph d="M181 12V306H197L263 11C265 4 269 0 277 0H397C406 0 410 5 408 13L323 336C389 382 403 453 403 513C403 670 310 718 190 718H49C41 718 37 714 37 706V12C37 4 41 0 49 0H169C177 0 181 4 181 12ZM181 608H194C232 608 259 579 259 512C259 459 242 416 200 416H181Z" glyph-name="R" horiz-adv-x="416" unicode="R" /><glyph d="M181 12V306H197L263 11C265 4 269 0 277 0H397C406 0 410 5 408 13L323 336C389 382 403 453 403 513C403 670 310 718 190 718H49C41 718 37 714 37 706V12C37 4 41 0 49 0H169C177 0 181 4 181 12ZM292 869H232C226 869 221 866 218 860L178 774C174 766 178 760 187 760H218C224 760 228 762 232 767L299 854C305 862 302 869 292 869ZM181 608H194C232 608 259 579 259 512C259 459 242 416 200 416H181Z" glyph-name="Racute" horiz-adv-x="416" unicode="&#340;" /><glyph d="M181 12V306H197L263 11C265 4 269 0 277 0H397C406 0 410 5 408 13L323 336C389 382 403 453 403 513C403 670 310 718 190 718H49C41 718 37 714 37 706V12C37 4 41 0 49 0H169C177 0 181 4 181 12ZM163 768C167 761 171 760 177 760H230C236 760 240 761 244 768L295 854C301 863 297 869 287 869H248C242 869 237 865 234 860L202 810L172 860C170 864 164 869 158 869H119C109 869 106 863 111 854ZM181 608H194C232 608 259 579 259 512C259 459 242 416 200 416H181Z" glyph-name="Rcaron" horiz-adv-x="416" unicode="&#344;" /><glyph d="M181 12V306H197L263 11C265 4 269 0 277 0H397C406 0 410 5 408 13L323 336C389 382 403 453 403 513C403 670 310 718 190 718H49C41 718 37 714 37 706V12C37 4 41 0 49 0H169C177 0 181 4 181 12ZM166 -181H203C210 -181 212 -179 215 -171L254 -56C257 -48 252 -42 245 -42H189C182 -42 177 -43 176 -51L156 -167C155 -174 159 -181 166 -181ZM181 608H194C232 608 259 579 259 512C259 459 242 416 200 416H181Z" glyph-name="Rcommaaccent" horiz-adv-x="416" unicode="&#342;" /><glyph d="M22 231C14 231 10 227 10 219C10 90 68 -14 194 -14C318 -14 375 71 375 182C375 300 300 364 219 436C180 471 150 510 150 558C150 592 163 616 188 616C227 616 231 569 232 517C232 509 236 505 244 505H354C362 505 366 509 366 517C366 637 312 732 190 732C80 732 16 658 16 546C16 450 57 394 142 316C178 283 242 237 242 165C242 126 226 102 196 102C157 102 143 150 142 219C142 227 138 231 130 231Z" glyph-name="S" horiz-adv-x="384" unicode="S" /><glyph d="M22 231C14 231 10 227 10 219C10 90 68 -14 194 -14C318 -14 375 71 375 182C375 300 300 364 219 436C180 471 150 510 150 558C150 592 163 616 188 616C227 616 231 569 232 517C232 509 236 505 244 505H354C362 505 366 509 366 517C366 637 312 732 190 732C80 732 16 658 16 546C16 450 57 394 142 316C178 283 242 237 242 165C242 126 226 102 196 102C157 102 143 150 142 219C142 227 138 231 130 231ZM272 869H212C206 869 201 866 198 860L158 774C154 766 158 760 167 760H198C204 760 208 762 212 767L279 854C285 862 282 869 272 869Z" glyph-name="Sacute" horiz-adv-x="384" unicode="&#346;" /><glyph d="M22 231C14 231 10 227 10 219C10 90 68 -14 194 -14C318 -14 375 71 375 182C375 300 300 364 219 436C180 471 150 510 150 558C150 592 163 616 188 616C227 616 231 569 232 517C232 509 236 505 244 505H354C362 505 366 509 366 517C366 637 312 732 190 732C80 732 16 658 16 546C16 450 57 394 142 316C178 283 242 237 242 165C242 126 226 102 196 102C157 102 143 150 142 219C142 227 138 231 130 231ZM143 768C147 761 151 760 157 760H210C216 760 220 761 224 768L275 854C281 863 277 869 267 869H228C222 869 217 865 214 860L182 810L152 860C150 864 144 869 138 869H99C89 869 86 863 91 854Z" glyph-name="Scaron" horiz-adv-x="384" unicode="&#352;" /><glyph d="M22 231C14 231 10 227 10 219C10 90 68 -14 194 -14C318 -14 375 71 375 182C375 300 300 364 219 436C180 471 150 510 150 558C150 592 163 616 188 616C227 616 231 569 232 517C232 509 236 505 244 505H354C362 505 366 509 366 517C366 637 312 732 190 732C80 732 16 658 16 546C16 450 57 394 142 316C178 283 242 237 242 165C242 126 226 102 196 102C157 102 143 150 142 219C142 227 138 231 130 231ZM163 -46 174 -57 227 0C232 6 227 12 220 12H194C188 12 187 8 183 3L147 -50C144 -55 145 -58 153 -64L168 -74C172 -77 176 -77 182 -71C186 -67 190 -65 199 -65C217 -65 225 -80 225 -101C225 -121 217 -137 198 -137C188 -137 180 -131 176 -124C173 -119 172 -118 167 -118H136C128 -118 125 -122 127 -129C138 -164 167 -181 199 -181C241 -181 276 -145 276 -101C276 -58 249 -30 213 -30C197 -30 180 -35 163 -46Z" glyph-name="Scedilla" horiz-adv-x="384" unicode="&#350;" /><glyph d="M200 -14C320 -14 392 87 392 359C392 593 347 732 200 732C47 732 24 586 23 464C23 456 27 452 35 452H135C143 452 147 456 147 464C150 560 165 616 195 616C215 616 242 591 242 359V358H37C29 358 25 355 25 345V248C26 121 60 -14 200 -14ZM195 102C168 102 156 138 155 248H239C232 115 211 102 195 102Z" glyph-name="Schwa" horiz-adv-x="412" /><glyph d="M22 231C14 231 10 227 10 219C10 90 68 -14 194 -14C318 -14 375 71 375 182C375 300 300 364 219 436C180 471 150 510 150 558C150 592 163 616 188 616C227 616 231 569 232 517C232 509 236 505 244 505H354C362 505 366 509 366 517C366 637 312 732 190 732C80 732 16 658 16 546C16 450 57 394 142 316C178 283 242 237 242 165C242 126 226 102 196 102C157 102 143 150 142 219C142 227 138 231 130 231ZM91 775C86 766 89 760 99 760H138C144 760 150 765 152 769L182 819L214 769C217 764 222 760 228 760H267C277 760 281 766 275 775L224 861C220 868 216 869 210 869H157C151 869 147 868 143 861Z" glyph-name="Scircumflex" horiz-adv-x="384" unicode="&#348;" /><glyph d="M22 231C14 231 10 227 10 219C10 90 68 -14 194 -14C318 -14 375 71 375 182C375 300 300 364 219 436C180 471 150 510 150 558C150 592 163 616 188 616C227 616 231 569 232 517C232 509 236 505 244 505H354C362 505 366 509 366 517C366 637 312 732 190 732C80 732 16 658 16 546C16 450 57 394 142 316C178 283 242 237 242 165C242 126 226 102 196 102C157 102 143 150 142 219C142 227 138 231 130 231ZM145 -181H182C189 -181 191 -179 194 -171L233 -56C236 -48 231 -42 224 -42H168C161 -42 156 -43 155 -51L135 -167C134 -174 138 -181 145 -181Z" glyph-name="Scommaaccent" horiz-adv-x="384" unicode="&#536;" /><glyph d="M114 12C114 4 118 0 126 0H246C254 0 258 4 258 12V602H358C366 602 370 606 370 614V706C370 714 366 718 358 718H14C6 718 2 714 2 706V614C2 606 6 602 14 602H114Z" glyph-name="T" horiz-adv-x="372" unicode="T" /><glyph d="M258 12V332H318C326 332 330 336 330 344V404C330 412 326 416 318 416H258V602H358C366 602 370 606 370 614V706C370 714 366 718 358 718H14C6 718 2 714 2 706V614C2 606 6 602 14 602H114V416H54C46 416 42 412 42 404V344C42 336 46 332 54 332H114V12C114 4 118 0 126 0H246C254 0 258 4 258 12Z" glyph-name="Tbar" horiz-adv-x="372" unicode="&#358;" /><glyph d="M114 12C114 4 118 0 126 0H246C254 0 258 4 258 12V602H358C366 602 370 606 370 614V706C370 714 366 718 358 718H14C6 718 2 714 2 706V614C2 606 6 602 14 602H114ZM146 768C150 761 154 760 160 760H213C219 760 223 761 227 768L278 854C284 863 280 869 270 869H231C225 869 220 865 217 860L185 810L155 860C153 864 147 869 141 869H102C92 869 89 863 94 854Z" glyph-name="Tcaron" horiz-adv-x="372" unicode="&#356;" /><glyph d="M114 12C114 4 118 0 126 0H246C254 0 258 4 258 12V602H358C366 602 370 606 370 614V706C370 714 366 718 358 718H14C6 718 2 714 2 706V614C2 606 6 602 14 602H114ZM139 -181H176C183 -181 185 -179 188 -171L227 -56C230 -48 225 -42 218 -42H162C155 -42 150 -43 149 -51L129 -167C128 -174 132 -181 139 -181Z" glyph-name="Tcommaaccent" horiz-adv-x="372" unicode="&#354;" /><glyph d="M37 12C37 4 41 0 49 0H169C177 0 181 4 181 12V193H226C353 193 405 282 405 410C405 562 327 624 181 626V706C181 714 177 718 169 718H49C41 718 37 714 37 706ZM182 510H185C227 510 261 507 261 407C261 323 234 303 186 303H182Z" glyph-name="Thorn" horiz-adv-x="410" unicode="&#222;" /><glyph d="M262 718C254 718 250 714 250 706V190C250 140 244 102 212 102C180 102 174 140 174 190V706C174 714 170 718 162 718H42C34 718 30 714 30 706V181C30 41 109 -14 212 -14C315 -14 394 41 394 181V706C394 714 390 718 382 718Z" glyph-name="U" horiz-adv-x="424" unicode="U" /><glyph d="M262 718C254 718 250 714 250 706V190C250 140 244 102 212 102C180 102 174 140 174 190V706C174 714 170 718 162 718H42C34 718 30 714 30 706V181C30 41 109 -14 212 -14C315 -14 394 41 394 181V706C394 714 390 718 382 718ZM301 869H241C235 869 230 866 227 860L187 774C183 766 187 760 196 760H227C233 760 237 762 241 767L308 854C314 862 311 869 301 869Z" glyph-name="Uacute" horiz-adv-x="424" unicode="&#218;" /><glyph d="M262 718C254 718 250 714 250 706V190C250 140 244 102 212 102C180 102 174 140 174 190V706C174 714 170 718 162 718H42C34 718 30 714 30 706V181C30 41 109 -14 212 -14C315 -14 394 41 394 181V706C394 714 390 718 382 718ZM272 862C265 862 261 859 258 852C249 832 235 821 212 821C189 821 175 832 166 852C163 859 159 862 152 862H118C110 862 106 857 108 849C123 800 164 768 212 768C260 768 301 800 316 849C318 857 314 862 306 862Z" glyph-name="Ubreve" horiz-adv-x="424" unicode="&#364;" /><glyph d="M262 718C254 718 250 714 250 706V190C250 140 244 102 212 102C180 102 174 140 174 190V706C174 714 170 718 162 718H42C34 718 30 714 30 706V181C30 41 109 -14 212 -14C315 -14 394 41 394 181V706C394 714 390 718 382 718ZM120 775C115 766 118 760 128 760H167C173 760 179 765 181 769L211 819L243 769C246 764 251 760 257 760H296C306 760 310 766 304 775L253 861C249 868 245 869 239 869H186C180 869 176 868 172 861Z" glyph-name="Ucircumflex" horiz-adv-x="424" unicode="&#219;" /><glyph d="M262 718C254 718 250 714 250 706V190C250 140 244 102 212 102C180 102 174 140 174 190V706C174 714 170 718 162 718H42C34 718 30 714 30 706V181C30 41 109 -14 212 -14C315 -14 394 41 394 181V706C394 714 390 718 382 718ZM116 790C116 782 120 778 128 778H178C186 778 190 782 190 790V839C190 847 186 851 178 851H128C120 851 116 847 116 839ZM234 790C234 782 238 778 246 778H296C304 778 308 782 308 790V839C308 847 304 851 296 851H246C238 851 234 847 234 839Z" glyph-name="Udieresis" horiz-adv-x="424" unicode="&#220;" /><glyph d="M262 718C254 718 250 714 250 706V190C250 140 244 102 212 102C180 102 174 140 174 190V706C174 714 170 718 162 718H42C34 718 30 714 30 706V181C30 41 109 -14 212 -14C315 -14 394 41 394 181V706C394 714 390 718 382 718ZM113 854 180 767C184 762 188 760 194 760H225C234 760 238 766 234 774L194 860C191 866 186 869 180 869H120C110 869 107 862 113 854Z" glyph-name="Ugrave" horiz-adv-x="424" unicode="&#217;" /><glyph d="M262 718C254 718 250 714 250 706V190C250 140 244 102 212 102C180 102 174 140 174 190V706C174 714 170 718 162 718H42C34 718 30 714 30 706V181C30 41 109 -14 212 -14C315 -14 394 41 394 181V706C394 714 390 718 382 718ZM249 869H189C183 869 178 866 175 860L135 774C131 766 135 760 144 760H175C181 760 185 762 189 767L256 854C262 862 259 869 249 869ZM361 869H301C295 869 290 866 287 860L247 774C243 766 247 760 256 760H287C293 760 297 762 301 767L368 854C374 862 371 869 361 869Z" glyph-name="Uhungarumlaut" horiz-adv-x="424" unicode="&#368;" /><glyph d="M262 718C254 718 250 714 250 706V190C250 140 244 102 212 102C180 102 174 140 174 190V706C174 714 170 718 162 718H42C34 718 30 714 30 706V181C30 41 109 -14 212 -14C315 -14 394 41 394 181V706C394 714 390 718 382 718ZM105 795C105 787 109 783 117 783H307C315 783 319 787 319 795V834C319 842 315 846 307 846H117C109 846 105 842 105 834Z" glyph-name="Umacron" horiz-adv-x="424" unicode="&#362;" /><glyph d="M204 -181C243 -181 269 -152 269 -119C269 -112 266 -109 262 -109H224C221 -109 218 -111 218 -115C218 -125 215 -133 207 -133C201 -133 197 -128 197 -118C197 -94 226 -42 256 -10C337 4 394 62 394 181V706C394 714 390 718 382 718H262C254 718 250 714 250 706V190C250 140 244 102 212 102C180 102 174 140 174 190V706C174 714 170 718 162 718H42C34 718 30 714 30 706V181C30 51 99 -6 191 -13C158 -48 140 -86 140 -118C140 -155 165 -181 204 -181Z" glyph-name="Uogonek" horiz-adv-x="424" unicode="&#370;" /><glyph d="M262 718C254 718 250 714 250 706V190C250 140 244 102 212 102C180 102 174 140 174 190V706C174 714 170 718 162 718H42C34 718 30 714 30 706V181C30 41 109 -14 212 -14C315 -14 394 41 394 181V706C394 714 390 718 382 718ZM269 815C269 847 244 874 212 874C180 874 155 847 155 815C155 782 180 755 212 755C244 755 269 782 269 815ZM186 815C186 829 197 841 212 841C226 841 238 829 238 815C238 800 226 788 212 788C197 788 186 800 186 815Z" glyph-name="Uring" horiz-adv-x="424" unicode="&#366;" /><glyph d="M295 858C289 860 285 858 281 852C271 833 263 829 251 829C224 829 203 858 170 858C144 858 112 841 98 798C97 792 99 788 104 785L129 772C135 770 139 772 143 778C153 797 161 801 173 801C199 801 221 772 254 772C280 772 312 789 326 832C327 838 325 842 320 845ZM262 718C254 718 250 714 250 706V190C250 140 244 102 212 102C180 102 174 140 174 190V706C174 714 170 718 162 718H42C34 718 30 714 30 706V181C30 41 109 -14 212 -14C315 -14 394 41 394 181V706C394 714 390 718 382 718Z" glyph-name="Utilde" horiz-adv-x="424" unicode="&#360;" /><glyph d="M267 718C259 718 255 714 254 707L205 234H196L146 707C145 714 141 718 133 718H17C8 718 4 713 5 705L116 11C117 4 121 0 129 0H271C279 0 283 4 284 11L395 705C396 713 392 718 383 718Z" glyph-name="V" horiz-adv-x="400" unicode="V" /><glyph d="M479 718C471 718 467 714 466 707L428 290H420L370 707C369 714 366 718 358 718H260C252 718 248 714 247 707L192 290H184L145 707C144 714 140 718 132 718H16C8 718 4 713 5 705L108 11C109 4 113 0 121 0H229C237 0 241 4 242 11L307 391L370 11C371 4 375 0 383 0H492C500 0 504 4 505 11L606 705C607 713 603 718 595 718Z" glyph-name="W" horiz-adv-x="611" unicode="W" /><glyph d="M479 718C471 718 467 714 466 707L428 290H420L370 707C369 714 366 718 358 718H260C252 718 248 714 247 707L192 290H184L145 707C144 714 140 718 132 718H16C8 718 4 713 5 705L108 11C109 4 113 0 121 0H229C237 0 241 4 242 11L307 391L370 11C371 4 375 0 383 0H492C500 0 504 4 505 11L606 705C607 713 603 718 595 718ZM395 868H335C329 868 324 865 321 859L281 773C277 765 281 759 290 759H321C327 759 331 761 335 766L402 853C408 861 405 868 395 868Z" glyph-name="Wacute" horiz-adv-x="611" unicode="&#7810;" /><glyph d="M479 718C471 718 467 714 466 707L428 290H420L370 707C369 714 366 718 358 718H260C252 718 248 714 247 707L192 290H184L145 707C144 714 140 718 132 718H16C8 718 4 713 5 705L108 11C109 4 113 0 121 0H229C237 0 241 4 242 11L307 391L370 11C371 4 375 0 383 0H492C500 0 504 4 505 11L606 705C607 713 603 718 595 718ZM214 774C209 765 212 759 222 759H261C267 759 273 764 275 768L305 818L337 768C340 763 345 759 351 759H390C400 759 404 765 398 774L347 860C343 867 339 868 333 868H280C274 868 270 867 266 860Z" glyph-name="Wcircumflex" horiz-adv-x="611" unicode="&#372;" /><glyph d="M479 718C471 718 467 714 466 707L428 290H420L370 707C369 714 366 718 358 718H260C252 718 248 714 247 707L192 290H184L145 707C144 714 140 718 132 718H16C8 718 4 713 5 705L108 11C109 4 113 0 121 0H229C237 0 241 4 242 11L307 391L370 11C371 4 375 0 383 0H492C500 0 504 4 505 11L606 705C607 713 603 718 595 718ZM210 789C210 781 214 777 222 777H272C280 777 284 781 284 789V838C284 846 280 850 272 850H222C214 850 210 846 210 838ZM328 789C328 781 332 777 340 777H390C398 777 402 781 402 789V838C402 846 398 850 390 850H340C332 850 328 846 328 838Z" glyph-name="Wdieresis" horiz-adv-x="611" unicode="&#7812;" /><glyph d="M479 718C471 718 467 714 466 707L428 290H420L370 707C369 714 366 718 358 718H260C252 718 248 714 247 707L192 290H184L145 707C144 714 140 718 132 718H16C8 718 4 713 5 705L108 11C109 4 113 0 121 0H229C237 0 241 4 242 11L307 391L370 11C371 4 375 0 383 0H492C500 0 504 4 505 11L606 705C607 713 603 718 595 718ZM207 853 274 766C278 761 282 759 288 759H319C328 759 332 765 328 773L288 859C285 865 280 868 274 868H214C204 868 201 861 207 853Z" glyph-name="Wgrave" horiz-adv-x="611" unicode="&#7808;" /><glyph d="M151 10 213 226 275 10C277 3 281 0 288 0H409C417 0 421 5 418 14L289 374L412 704C415 713 410 718 402 718H281C274 718 270 715 268 708L208 505L148 708C146 715 142 718 135 718H15C7 718 3 713 6 704L130 374L8 14C5 5 10 0 18 0H138C145 0 149 3 151 10Z" glyph-name="X" horiz-adv-x="424" unicode="X" /><glyph d="M272 0C280 0 284 4 284 12V290L418 705C421 713 416 718 408 718H291C284 718 280 715 278 708L212 431L146 707C144 715 140 718 132 718H16C8 718 3 713 6 705L140 290V12C140 4 144 0 152 0Z" glyph-name="Y" horiz-adv-x="424" unicode="Y" /><glyph d="M272 0C280 0 284 4 284 12V290L418 705C421 713 416 718 408 718H291C284 718 280 715 278 708L212 431L146 707C144 715 140 718 132 718H16C8 718 3 713 6 705L140 290V12C140 4 144 0 152 0ZM301 869H241C235 869 230 866 227 860L187 774C183 766 187 760 196 760H227C233 760 237 762 241 767L308 854C314 862 311 869 301 869Z" glyph-name="Yacute" horiz-adv-x="424" unicode="&#221;" /><glyph d="M272 0C280 0 284 4 284 12V290L418 705C421 713 416 718 408 718H291C284 718 280 715 278 708L212 431L146 707C144 715 140 718 132 718H16C8 718 3 713 6 705L140 290V12C140 4 144 0 152 0ZM120 775C115 766 118 760 128 760H167C173 760 179 765 181 769L211 819L243 769C246 764 251 760 257 760H296C306 760 310 766 304 775L253 861C249 868 245 869 239 869H186C180 869 176 868 172 861Z" glyph-name="Ycircumflex" horiz-adv-x="424" unicode="&#374;" /><glyph d="M272 0C280 0 284 4 284 12V290L418 705C421 713 416 718 408 718H291C284 718 280 715 278 708L212 431L146 707C144 715 140 718 132 718H16C8 718 3 713 6 705L140 290V12C140 4 144 0 152 0ZM116 790C116 782 120 778 128 778H178C186 778 190 782 190 790V839C190 847 186 851 178 851H128C120 851 116 847 116 839ZM234 790C234 782 238 778 246 778H296C304 778 308 782 308 790V839C308 847 304 851 296 851H246C238 851 234 847 234 839Z" glyph-name="Ydieresis" horiz-adv-x="424" unicode="&#376;" /><glyph d="M272 0C280 0 284 4 284 12V290L418 705C421 713 416 718 408 718H291C284 718 280 715 278 708L212 431L146 707C144 715 140 718 132 718H16C8 718 3 713 6 705L140 290V12C140 4 144 0 152 0ZM113 854 180 767C184 762 188 760 194 760H225C234 760 238 766 234 774L194 860C191 866 186 869 180 869H120C110 869 107 862 113 854Z" glyph-name="Ygrave" horiz-adv-x="424" unicode="&#7922;" /><glyph d="M10 12C10 4 14 0 22 0H318C326 0 330 4 330 12V104C330 112 326 116 318 116H167L333 642C334 647 335 651 335 657V706C335 714 331 718 323 718H36C28 718 24 714 24 706V614C24 606 28 602 36 602H173L12 83C11 78 10 74 10 68Z" glyph-name="Z" horiz-adv-x="345" unicode="Z" /><glyph d="M10 12C10 4 14 0 22 0H318C326 0 330 4 330 12V104C330 112 326 116 318 116H167L333 642C334 647 335 651 335 657V706C335 714 331 718 323 718H36C28 718 24 714 24 706V614C24 606 28 602 36 602H173L12 83C11 78 10 74 10 68ZM262 869H202C196 869 191 866 188 860L148 774C144 766 148 760 157 760H188C194 760 198 762 202 767L269 854C275 862 272 869 262 869Z" glyph-name="Zacute" horiz-adv-x="345" unicode="&#377;" /><glyph d="M10 12C10 4 14 0 22 0H318C326 0 330 4 330 12V104C330 112 326 116 318 116H167L333 642C334 647 335 651 335 657V706C335 714 331 718 323 718H36C28 718 24 714 24 706V614C24 606 28 602 36 602H173L12 83C11 78 10 74 10 68ZM133 768C137 761 141 760 147 760H200C206 760 210 761 214 768L265 854C271 863 267 869 257 869H218C212 869 207 865 204 860L172 810L142 860C140 864 134 869 128 869H89C79 869 76 863 81 854Z" glyph-name="Zcaron" horiz-adv-x="345" unicode="&#381;" /><glyph d="M10 12C10 4 14 0 22 0H318C326 0 330 4 330 12V104C330 112 326 116 318 116H167L333 642C334 647 335 651 335 657V706C335 714 331 718 323 718H36C28 718 24 714 24 706V614C24 606 28 602 36 602H173L12 83C11 78 10 74 10 68ZM131 785C131 777 135 773 143 773H203C211 773 215 777 215 785V844C215 852 211 856 203 856H143C135 856 131 852 131 844Z" glyph-name="Zdotaccent" horiz-adv-x="345" unicode="&#379;" /><glyph d="M319 707C318 714 314 718 306 718H118C110 718 106 714 105 707L5 13C4 5 8 0 17 0H135C143 0 147 4 148 11L171 219H253L276 11C277 4 281 0 289 0H407C416 0 420 5 419 13ZM174 327 206 583H218L250 327Z" glyph-name="a" horiz-adv-x="424" unicode="a" /><glyph d="M319 707C318 714 314 718 306 718H118C110 718 106 714 105 707L5 13C4 5 8 0 17 0H135C143 0 147 4 148 11L171 219H253L276 11C277 4 281 0 289 0H407C416 0 420 5 419 13ZM301 870H241C235 870 230 867 227 861L187 775C183 767 187 761 196 761H227C233 761 237 763 241 768L308 855C314 863 311 870 301 870ZM174 327 206 583H218L250 327Z" glyph-name="aacute" horiz-adv-x="424" unicode="&#225;" /><glyph d="M319 707C318 714 314 718 306 718H118C110 718 106 714 105 707L5 13C4 5 8 0 17 0H135C143 0 147 4 148 11L171 219H253L276 11C277 4 281 0 289 0H407C416 0 420 5 419 13ZM272 863C265 863 261 860 258 853C249 833 235 822 212 822C189 822 175 833 166 853C163 860 159 863 152 863H118C110 863 106 858 108 850C123 801 164 769 212 769C260 769 301 801 316 850C318 858 314 863 306 863ZM174 327 206 583H218L250 327Z" glyph-name="abreve" horiz-adv-x="424" unicode="&#259;" /><glyph d="M319 707C318 714 314 718 306 718H118C110 718 106 714 105 707L5 13C4 5 8 0 17 0H135C143 0 147 4 148 11L171 219H253L276 11C277 4 281 0 289 0H407C416 0 420 5 419 13ZM120 776C115 767 118 761 128 761H167C173 761 179 766 181 770L211 820L243 770C246 765 251 761 257 761H296C306 761 310 767 304 776L253 862C249 869 245 870 239 870H186C180 870 176 869 172 862ZM174 327 206 583H218L250 327Z" glyph-name="acircumflex" horiz-adv-x="424" unicode="&#226;" /><glyph d="M303 869H243C237 869 232 866 229 860L189 774C185 766 189 760 198 760H229C235 760 239 762 243 767L310 854C316 862 313 869 303 869Z" glyph-name="acute" horiz-adv-x="501" unicode="&#180;" /><glyph d="M319 707C318 714 314 718 306 718H118C110 718 106 714 105 707L5 13C4 5 8 0 17 0H135C143 0 147 4 148 11L171 219H253L276 11C277 4 281 0 289 0H407C416 0 420 5 419 13ZM116 791C116 783 120 779 128 779H178C186 779 190 783 190 791V840C190 848 186 852 178 852H128C120 852 116 848 116 840ZM234 791C234 783 238 779 246 779H296C304 779 308 783 308 791V840C308 848 304 852 296 852H246C238 852 234 848 234 840ZM174 327 206 583H218L250 327Z" glyph-name="adieresis" horiz-adv-x="424" unicode="&#228;" /><glyph d="M520 602C528 602 532 606 532 614V706C532 714 528 718 520 718H168C160 718 156 715 154 707L1 13C-1 5 3 0 12 0H105C113 0 118 4 119 11L154 205H235V12C235 4 239 0 247 0H520C528 0 532 4 532 12V104C532 112 528 116 520 116H379V304H476C484 304 488 308 488 316V414C488 422 484 426 476 426H379V602ZM177 313 227 583H235V313Z" glyph-name="ae" horiz-adv-x="541" unicode="&#230;" /><glyph d="M520 602C528 602 532 606 532 614V706C532 714 528 718 520 718H168C160 718 156 715 154 707L1 13C-1 5 3 0 12 0H105C113 0 118 4 119 11L154 205H235V12C235 4 239 0 247 0H520C528 0 532 4 532 12V104C532 112 528 116 520 116H379V304H476C484 304 488 308 488 316V414C488 422 484 426 476 426H379V602ZM403 870H343C337 870 332 867 329 861L289 775C285 767 289 761 298 761H329C335 761 339 763 343 768L410 855C416 863 413 870 403 870ZM177 313 227 583H235V313Z" glyph-name="aeacute" horiz-adv-x="541" unicode="&#509;" /><glyph d="M319 707C318 714 314 718 306 718H118C110 718 106 714 105 707L5 13C4 5 8 0 17 0H135C143 0 147 4 148 11L171 219H253L276 11C277 4 281 0 289 0H407C416 0 420 5 419 13ZM113 855 180 768C184 763 188 761 194 761H225C234 761 238 767 234 775L194 861C191 867 186 870 180 870H120C110 870 107 863 113 855ZM174 327 206 583H218L250 327Z" glyph-name="agrave" horiz-adv-x="424" unicode="&#224;" /><glyph d="M319 707C318 714 314 718 306 718H118C110 718 106 714 105 707L5 13C4 5 8 0 17 0H135C143 0 147 4 148 11L171 219H253L276 11C277 4 281 0 289 0H407C416 0 420 5 419 13ZM105 796C105 788 109 784 117 784H307C315 784 319 788 319 796V835C319 843 315 847 307 847H117C109 847 105 843 105 835ZM174 327 206 583H218L250 327Z" glyph-name="amacron" horiz-adv-x="424" unicode="&#257;" /><glyph d="M410 -13 488 44C495 49 495 54 490 61L414 165L470 326C473 334 469 341 462 341H368C360 341 355 341 353 333L335 272L277 350C337 400 380 475 380 549C380 659 312 732 210 732C108 732 40 659 40 549C40 483 79 421 112 374C54 319 15 264 15 181C15 65 105 -14 210 -14C266 -14 312 6 350 48L393 -11C398 -17 403 -18 410 -13ZM163 562C163 591 179 618 210 618C242 618 257 591 257 562C257 514 241 480 207 447C181 484 163 520 163 562ZM221 94C183 94 149 119 149 177C149 215 163 247 186 272L287 134C272 110 251 94 221 94Z" glyph-name="ampersand" horiz-adv-x="498" unicode="&amp;" /><glyph d="M354 -181C393 -181 419 -152 419 -119C419 -112 416 -109 412 -109H374C371 -109 368 -111 368 -115C368 -125 365 -133 357 -133C351 -133 347 -128 347 -118C347 -93 379 -36 411 -5C418 2 420 6 419 13L319 707C318 714 314 718 306 718H118C110 718 106 714 105 707L5 13C4 5 8 0 17 0H135C143 0 147 4 148 11L171 219H253L276 11C277 4 281 0 289 0H354C313 -39 290 -82 290 -118C290 -155 315 -181 354 -181ZM174 327 206 583H218L250 327Z" glyph-name="aogonek" horiz-adv-x="424" unicode="&#261;" /><glyph d="M104 249V324H158V310H120V296H152V281H120V263H159V249ZM271 432V418H232V403H265V389H232V371H272V357H217V432ZM120 418V403H153V389H120V357H104V432H159V418ZM215 249V324H243C265 324 274 315 274 287C274 259 265 249 241 249ZM230 310V263H241C255 263 259 268 259 287C259 305 254 310 242 310ZM50 203H325V478H50Z" glyph-name="apple" horiz-adv-x="375" unicode="&#63743;" /><glyph d="M330 361C320 366 314 363 309 352C295 321 277 316 260 316C223 316 187 360 134 360C94 360 49 336 27 270C23 259 26 254 39 248L70 233C80 228 86 231 91 242C105 273 123 278 140 278C176 278 213 234 266 234C306 234 351 258 373 324C377 335 374 340 361 346ZM330 505C320 510 314 507 309 496C295 465 277 460 260 460C223 460 187 504 134 504C94 504 49 480 27 414C23 403 26 398 39 392L70 377C80 372 86 375 91 386C105 417 123 422 140 422C176 422 213 378 266 378C306 378 351 402 373 468C377 479 374 484 361 490Z" glyph-name="approxequal" horiz-adv-x="400" unicode="&#8776;" /><glyph d="M319 707C318 714 314 718 306 718H118C110 718 106 714 105 707L5 13C4 5 8 0 17 0H135C143 0 147 4 148 11L171 219H253L276 11C277 4 281 0 289 0H407C416 0 420 5 419 13ZM269 816C269 848 244 875 212 875C180 875 155 848 155 816C155 783 180 756 212 756C244 756 269 783 269 816ZM186 816C186 830 197 842 212 842C226 842 238 830 238 816C238 801 226 789 212 789C197 789 186 801 186 816ZM174 327 206 583H218L250 327Z" glyph-name="aring" horiz-adv-x="424" unicode="&#229;" /><glyph d="M319 707C318 714 314 718 306 718H118C110 718 106 714 105 707L5 13C4 5 8 0 17 0H135C143 0 147 4 148 11L171 219H253L276 11C277 4 281 0 289 0H407C416 0 420 5 419 13ZM303 1028H243C237 1028 232 1025 229 1019L189 933C185 925 189 919 198 919H229C235 919 239 921 243 926L310 1013C316 1021 313 1028 303 1028ZM269 816C269 848 244 875 212 875C180 875 155 848 155 816C155 783 180 756 212 756C244 756 269 783 269 816ZM186 816C186 830 197 842 212 842C226 842 238 830 238 816C238 801 226 789 212 789C197 789 186 801 186 816ZM174 327 206 583H218L250 327Z" glyph-name="aringacute" horiz-adv-x="424" unicode="&#507;" /><glyph d="M319 658H273C265 658 261 654 261 646V442H94C82 442 76 432 82 423L286 97C291 88 301 88 306 97L508 423C514 432 508 442 497 442H331V646C331 654 327 658 319 658Z" glyph-name="arrowdown" horiz-adv-x="590" unicode="&#8595;" /><glyph d="M442 596 404 621C397 625 393 624 388 616L273 432L132 520C122 526 111 521 111 509V125C111 115 120 110 129 115L472 285C482 289 482 300 474 307L332 394L447 580C452 587 449 592 442 596Z" glyph-name="arrowdownleft" horiz-adv-x="590" /><glyph d="M258 395 116 308C108 301 108 290 118 286L461 116C470 111 479 116 479 126V510C479 522 468 527 458 521L317 433L202 617C197 625 193 626 186 622L148 597C141 593 138 588 143 581Z" glyph-name="arrowdownright" horiz-adv-x="590" /><glyph d="M363 401V567C363 578 353 584 344 578L18 376C9 371 9 361 18 356L344 153C353 147 363 153 363 164V331H567C575 331 579 335 579 343V389C579 397 575 401 567 401Z" glyph-name="arrowleft" horiz-adv-x="590" unicode="&#8592;" /><glyph d="M11 389V343C11 335 15 331 23 331H227V164C227 153 237 147 246 153L572 356C581 361 581 371 572 376L246 578C237 584 227 578 227 567V401H23C15 401 11 397 11 389Z" glyph-name="arrowright" horiz-adv-x="590" unicode="&#8594;" /><glyph d="M331 290H497C508 290 514 300 508 309L306 635C301 644 291 644 286 635L82 309C76 300 82 290 94 290H261V86C261 78 265 74 273 74H319C327 74 331 78 331 86Z" glyph-name="arrowup" horiz-adv-x="590" unicode="&#8593;" /><glyph d="M332 353 474 440C482 447 482 458 472 462L129 632C120 637 111 632 111 622V238C111 226 122 221 132 227L273 315L388 131C393 123 397 122 404 126L442 151C449 155 452 160 447 167Z" glyph-name="arrowupleft" horiz-adv-x="590" /><glyph d="M148 151 186 126C193 122 197 123 202 131L317 315L458 227C468 221 479 226 479 238V622C479 632 470 637 461 632L118 462C108 458 108 447 116 440L258 353L143 167C138 160 141 155 148 151Z" glyph-name="arrowupright" horiz-adv-x="590" /><glyph d="M112 429 198 619H202L288 429C291 423 295 420 302 420H359C368 420 371 427 368 434L245 709C243 714 238 718 231 718H169C162 718 157 714 155 709L32 434C29 427 32 420 41 420H98C105 420 109 423 112 429Z" glyph-name="asciicircum" horiz-adv-x="400" unicode="^" /><glyph d="M330 431C320 436 314 433 309 422C295 391 277 386 260 386C223 386 187 430 134 430C94 430 49 406 27 340C23 329 26 324 39 318L70 303C80 298 86 301 91 312C105 343 123 348 140 348C176 348 213 304 266 304C306 304 351 328 373 394C377 405 374 410 361 416Z" glyph-name="asciitilde" horiz-adv-x="400" unicode="~" /><glyph d="M207 674C204 682 200 684 192 681L135 660L137 722C137 730 133 734 125 734H97C89 734 85 730 85 722L87 660L30 682C22 685 17 682 15 675L6 648C3 640 6 635 14 633L73 616L35 568C30 561 31 555 37 551L60 534C66 529 72 530 77 537L111 588L145 537C150 530 155 530 161 534L185 550C192 555 192 561 187 567L149 616L208 632C216 634 218 640 216 647Z" glyph-name="asterisk" horiz-adv-x="222" unicode="*" /><glyph d="M351 -14C359 -14 364 -9 364 -1V42C364 49 359 54 352 54C172 64 96 194 96 359C96 537 186 663 335 663C443 663 550 584 550 405C550 341 541 228 490 228C462 228 449 248 449 294V537C449 547 444 552 434 552H392C382 552 378 547 377 537L374 510C357 541 332 561 299 561C228 561 181 486 181 360C181 233 228 157 300 157C336 157 362 181 379 219C407 176 445 157 490 157C598 157 623 294 623 402C623 630 480 732 335 732C150 732 23 584 23 359C23 146 136 -5 351 -14ZM274 360C274 443 291 492 314 492C340 492 357 448 357 360C357 271 340 226 314 226C291 226 274 276 274 360Z" glyph-name="at" horiz-adv-x="646" unicode="@" /><glyph d="M295 859C289 861 285 859 281 853C271 834 263 830 251 830C224 830 203 859 170 859C144 859 112 842 98 799C97 793 99 789 104 786L129 773C135 771 139 773 143 779C153 798 161 802 173 802C199 802 221 773 254 773C280 773 312 790 326 833C327 839 325 843 320 846ZM319 707C318 714 314 718 306 718H118C110 718 106 714 105 707L5 13C4 5 8 0 17 0H135C143 0 147 4 148 11L171 219H253L276 11C277 4 281 0 289 0H407C416 0 420 5 419 13ZM174 327 206 583H218L250 327Z" glyph-name="atilde" horiz-adv-x="424" unicode="&#227;" /><glyph d="M210 0C330 0 401 75 401 201C401 285 361 346 291 374C352 401 387 456 387 529C387 648 316 718 196 718H49C41 718 37 714 37 706V12C37 4 41 0 49 0ZM181 310C243 309 257 280 257 212C257 154 247 112 181 110ZM181 608C236 608 249 583 249 517C249 449 235 428 181 426Z" glyph-name="b" horiz-adv-x="416" unicode="b" /><glyph d="M79 708C77 715 73 718 66 718H11C3 718 -2 713 1 704L212 10C214 3 218 0 225 0H278C286 0 291 5 288 14Z" glyph-name="backslash" horiz-adv-x="289" unicode="\" /><glyph d="M75 798C67 798 63 794 63 786V-68C63 -76 67 -80 75 -80H125C133 -80 137 -76 137 -68V786C137 794 133 798 125 798Z" glyph-name="bar" horiz-adv-x="200" unicode="|" /><glyph d="M101 -56C105 -56 106 -54 106 -51V-12C143 -9 165 23 165 74C165 110 149 137 128 148C146 159 158 183 158 220C158 260 140 290 106 295V334C106 337 105 339 101 339H85C82 339 80 337 80 334V296H48C44 296 42 294 42 291V-8C42 -11 44 -13 48 -13H79V-51C79 -54 81 -56 85 -56ZM74 130H90C116 130 133 115 133 74C133 36 121 17 92 17H74ZM74 266H91C115 266 126 247 126 214C126 174 113 160 90 160H74Z" glyph-name="bath.dnom" horiz-adv-x="200" /><glyph d="M101 369C105 369 106 371 106 374V413C143 416 165 448 165 499C165 535 149 562 128 573C146 584 158 608 158 645C158 685 140 715 106 720V759C106 762 105 764 101 764H85C82 764 80 762 80 759V721H48C44 721 42 719 42 716V417C42 414 44 412 48 412H79V374C79 371 81 369 85 369ZM74 555H90C116 555 133 540 133 499C133 461 121 442 92 442H74ZM74 691H91C115 691 126 672 126 639C126 599 113 585 90 585H74Z" glyph-name="bath.numr" horiz-adv-x="200" /><glyph d="M101 -101C105 -101 106 -99 106 -96V-57C143 -54 165 -22 165 29C165 65 149 92 128 103C146 114 158 138 158 175C158 215 140 245 106 250V289C106 292 105 294 101 294H85C82 294 80 292 80 289V251H48C44 251 42 249 42 246V-53C42 -56 44 -58 48 -58H79V-96C79 -99 81 -101 85 -101ZM74 85H90C116 85 133 70 133 29C133 -9 121 -28 92 -28H74ZM74 221H91C115 221 126 202 126 169C126 129 113 115 90 115H74Z" glyph-name="bathinferior" horiz-adv-x="200" /><glyph d="M101 424C105 424 106 426 106 429V468C143 471 165 503 165 554C165 590 149 617 128 628C146 639 158 663 158 700C158 740 140 770 106 775V814C106 817 105 819 101 819H85C82 819 80 817 80 814V776H48C44 776 42 774 42 771V472C42 469 44 467 48 467H79V429C79 426 81 424 85 424ZM74 610H90C116 610 133 595 133 554C133 516 121 497 92 497H74ZM74 746H91C115 746 126 727 126 694C126 654 113 640 90 640H74Z" glyph-name="bathsuperior" horiz-adv-x="200" /><glyph d="M398 366C398 459 323 535 230 535C137 535 62 458 62 365C62 272 137 197 230 197C323 197 398 273 398 366Z" glyph-name="blackcircle" horiz-adv-x="460" /><glyph d="M15 374C10 370 10 362 15 358L222 151C226 146 234 146 238 151L445 358C450 362 450 370 445 374L238 581C234 586 226 586 222 581Z" glyph-name="blackdiamond" horiz-adv-x="460" /><glyph d="M676 659H60C47 659 41 647 47 636L355 84C361 73 375 73 381 84L689 636C695 647 689 659 676 659Z" glyph-name="blackdownpointingtriangle" horiz-adv-x="736" /><glyph d="M659 34V698C659 711 647 718 636 711L84 379C74 372 74 360 84 353L636 21C647 14 659 21 659 34Z" glyph-name="blackleftpointingtriangle" horiz-adv-x="736" /><glyph d="M652 353C662 360 662 372 652 379L100 711C89 718 77 711 77 698V34C77 21 89 14 100 21Z" glyph-name="blackrightpointingtriangle" horiz-adv-x="736" /><glyph d="M72 220C72 213 77 208 84 208H376C383 208 388 213 388 220V512C388 519 383 524 376 524H84C77 524 72 519 72 512Z" glyph-name="blacksquare" horiz-adv-x="460" /><glyph d="M54 567V164C54 153 64 147 73 153L399 356C408 361 408 371 399 376L73 578C64 584 54 578 54 567Z" glyph-name="blacktriangle" horiz-adv-x="460" /><glyph d="M60 73H676C689 73 695 85 689 96L381 648C375 659 361 659 355 648L47 96C41 85 47 73 60 73Z" glyph-name="blackuppointingtriangle" horiz-adv-x="736" /><glyph d="M205 689C205 725 211 748 251 748H278C286 748 290 752 290 760V806C290 814 286 818 278 818H250C171 818 125 772 125 693V511C125 464 98 415 57 395C50 391 45 391 45 383V345C45 337 50 337 57 333C98 313 125 264 125 217V35C125 -44 171 -90 250 -90H278C286 -90 290 -86 290 -78V-32C290 -24 286 -20 278 -20H251C211 -20 205 3 205 39V230C205 287 177 346 128 362V369C178 392 205 445 205 498Z" glyph-name="braceleft" horiz-adv-x="300" unicode="{" /><glyph d="M95 39C95 3 89 -20 49 -20H22C14 -20 10 -24 10 -32V-78C10 -86 14 -90 22 -90H50C129 -90 175 -44 175 35V217C175 264 202 313 243 333C250 337 255 337 255 345V383C255 391 250 391 243 395C202 415 175 464 175 511V693C175 772 129 818 50 818H22C14 818 10 814 10 806V760C10 752 14 748 22 748H49C89 748 95 725 95 689V498C95 441 123 382 172 366V359C122 336 95 283 95 230Z" glyph-name="braceright" horiz-adv-x="300" unicode="}" /><glyph d="M108 -100H268C276 -100 280 -96 280 -88V-42C280 -34 276 -30 268 -30H176V748H268C276 748 280 752 280 760V806C280 814 276 818 268 818H108C100 818 96 814 96 806V-88C96 -96 100 -100 108 -100Z" glyph-name="bracketleft" horiz-adv-x="300" unicode="[" /><glyph d="M204 806C204 814 200 818 192 818H32C24 818 20 814 20 806V760C20 752 24 748 32 748H124V-30H32C24 -30 20 -34 20 -42V-88C20 -96 24 -100 32 -100H192C200 -100 204 -96 204 -88Z" glyph-name="bracketright" horiz-adv-x="300" unicode="]" /><glyph d="M310 862C303 862 299 859 296 852C287 832 273 821 250 821C227 821 213 832 204 852C201 859 197 862 190 862H156C148 862 144 857 146 849C161 800 202 768 250 768C298 768 339 800 354 849C356 857 352 862 344 862Z" glyph-name="breve" horiz-adv-x="500" unicode="&#728;" /><glyph d="M75 287C67 287 63 283 63 275V-68C63 -76 67 -80 75 -80H125C133 -80 137 -76 137 -68V275C137 283 133 287 125 287ZM75 798C67 798 63 794 63 786V443C63 435 67 431 75 431H125C133 431 137 435 137 443V786C137 794 133 798 125 798Z" glyph-name="brokenbar" horiz-adv-x="200" unicode="&#166;" /><glyph d="M238 367C238 425 191 470 133 470C77 470 30 425 30 367C30 311 77 264 133 264C191 264 238 311 238 367Z" glyph-name="bullet" horiz-adv-x="268" unicode="&#8226;" /><glyph d="M419 255C419 264 415 267 407 268H297C289 268 284 264 284 256V159C284 128 259 102 228 102C196 102 171 128 171 159V559C171 590 196 616 228 616C259 616 284 590 284 559V468C284 460 289 456 297 456H407C415 457 419 462 419 469V638C419 682 383 718 339 718H116C72 718 37 682 37 638V80C37 36 72 0 116 0H339C383 0 419 36 419 80Z" glyph-name="c" horiz-adv-x="449" unicode="c" /><glyph d="M419 255C419 264 415 267 407 268H297C289 268 284 264 284 256V159C284 128 259 102 228 102C196 102 171 128 171 159V559C171 590 196 616 228 616C259 616 284 590 284 559V468C284 460 289 456 297 456H407C415 457 419 462 419 469V638C419 682 383 718 339 718H116C72 718 37 682 37 638V80C37 36 72 0 116 0H339C383 0 419 36 419 80ZM317 869H257C251 869 246 866 243 860L203 774C199 766 203 760 212 760H243C249 760 253 762 257 767L324 854C330 862 327 869 317 869Z" glyph-name="cacute" horiz-adv-x="449" unicode="&#263;" /><glyph d="M210 768C214 761 218 760 224 760H277C283 760 287 761 291 768L342 854C348 863 344 869 334 869H295C289 869 284 865 281 860L249 810L219 860C217 864 211 869 205 869H166C156 869 153 863 158 854Z" glyph-name="caron" horiz-adv-x="500" unicode="&#711;" /><glyph d="M288 718H233C224 718 220 715 219 707L209 613C208 602 211 599 218 599H246C252 599 256 600 258 606L295 703C299 714 296 718 288 718Z" glyph-name="caronSlovak" horiz-adv-x="501" /><glyph d="M419 255C419 264 415 267 407 268H297C289 268 284 264 284 256V159C284 128 259 102 228 102C196 102 171 128 171 159V559C171 590 196 616 228 616C259 616 284 590 284 559V468C284 460 289 456 297 456H407C415 457 419 462 419 469V638C419 682 383 718 339 718H116C72 718 37 682 37 638V80C37 36 72 0 116 0H339C383 0 419 36 419 80ZM188 768C192 761 196 760 202 760H255C261 760 265 761 269 768L320 854C326 863 322 869 312 869H273C267 869 262 865 259 860L227 810L197 860C195 864 189 869 183 869H144C134 869 131 863 136 854Z" glyph-name="ccaron" horiz-adv-x="449" unicode="&#269;" /><glyph d="M419 255C419 264 415 267 407 268H297C289 268 284 264 284 256V159C284 128 259 102 228 102C196 102 171 128 171 159V559C171 590 196 616 228 616C259 616 284 590 284 559V468C284 460 289 456 297 456H407C415 457 419 462 419 469V638C419 682 383 718 339 718H116C72 718 37 682 37 638V80C37 36 72 0 116 0H339C383 0 419 36 419 80ZM187 -46 198 -57 251 0C256 6 251 12 244 12H218C212 12 211 8 207 3L171 -50C168 -55 169 -58 177 -64L192 -74C196 -77 200 -77 206 -71C210 -67 214 -65 223 -65C241 -65 249 -80 249 -101C249 -121 241 -137 222 -137C212 -137 204 -131 200 -124C197 -119 196 -118 191 -118H160C152 -118 149 -122 151 -129C162 -164 191 -181 223 -181C265 -181 300 -145 300 -101C300 -58 273 -30 237 -30C221 -30 204 -35 187 -46Z" glyph-name="ccedilla" horiz-adv-x="449" unicode="&#231;" /><glyph d="M419 255C419 264 415 267 407 268H297C289 268 284 264 284 256V159C284 128 259 102 228 102C196 102 171 128 171 159V559C171 590 196 616 228 616C259 616 284 590 284 559V468C284 460 289 456 297 456H407C415 457 419 462 419 469V638C419 682 383 718 339 718H116C72 718 37 682 37 638V80C37 36 72 0 116 0H339C383 0 419 36 419 80ZM136 775C131 766 134 760 144 760H183C189 760 195 765 197 769L227 819L259 769C262 764 267 760 273 760H312C322 760 326 766 320 775L269 861C265 868 261 869 255 869H202C196 869 192 868 188 861Z" glyph-name="ccircumflex" horiz-adv-x="449" unicode="&#265;" /><glyph d="M419 255C419 264 415 267 407 268H297C289 268 284 264 284 256V159C284 128 259 102 228 102C196 102 171 128 171 159V559C171 590 196 616 228 616C259 616 284 590 284 559V468C284 460 289 456 297 456H407C415 457 419 462 419 469V638C419 682 383 718 339 718H116C72 718 37 682 37 638V80C37 36 72 0 116 0H339C383 0 419 36 419 80ZM186 785C186 777 190 773 198 773H258C266 773 270 777 270 785V844C270 852 266 856 258 856H198C190 856 186 852 186 844Z" glyph-name="cdotaccent" horiz-adv-x="449" unicode="&#267;" /><glyph d="M213 -46 224 -57 277 0C282 6 277 12 270 12H244C238 12 237 8 233 3L197 -50C194 -55 195 -58 203 -64L218 -74C222 -77 226 -77 232 -71C236 -67 240 -65 249 -65C267 -65 275 -80 275 -101C275 -121 267 -137 248 -137C238 -137 230 -131 226 -124C223 -119 222 -118 217 -118H186C178 -118 175 -122 177 -129C188 -164 217 -181 249 -181C291 -181 326 -145 326 -101C326 -40 271 -8 213 -46Z" glyph-name="cedilla" horiz-adv-x="501" unicode="&#184;" /><glyph d="M255 71C341 90 391 170 392 294C392 302 388 306 380 306H283C275 306 271 302 271 294C268 206 250 161 215 161C172 161 153 206 153 359C153 526 173 556 213 556C248 556 262 524 263 422C263 415 267 411 275 411H378C386 411 390 415 390 423C389 540 340 625 255 646V720C255 728 251 732 243 732H187C179 732 175 728 175 720V646C76 624 23 519 23 359C23 196 79 93 175 71V-2C175 -10 179 -14 187 -14H243C251 -14 255 -10 255 -2Z" glyph-name="cent" horiz-adv-x="402" unicode="&#162;" /><glyph d="M227 620V720C227 726 223 732 219 732H181C177 732 173 726 173 720V620ZM173 100V-3C173 -9 177 -15 181 -15H219C223 -15 227 -9 227 -3V101ZM208 71C323 71 366 166 367 286C367 297 362 302 351 302H318C304 302 298 297 298 285C293 183 270 128 215 128C142 128 101 181 101 361C101 538 140 592 201 592C263 592 293 545 296 435C296 424 302 419 315 419H348C359 419 365 424 365 434C364 545 322 646 200 646C73 646 25 519 25 359C25 196 76 71 208 71Z" glyph-name="cent.LT" horiz-adv-x="400" /><glyph d="M106 16C159 16 178 58 178 110C178 115 175 117 171 117H155C149 117 147 115 147 110C147 66 135 42 106 42C81 42 63 65 63 142C63 219 80 242 106 242C132.3415 242 145 221.9995 146 174C146 170 149 167 154 167H169C174 167 177 170 177 174C175.978 223.0545 158 267 106 267C50.2763 267 29 211 29 142C29 71 51 16 106 16ZM118 297C118 299 117 302 115 302H97C95 302 93 299 93 297V252H118ZM93 29V-14C93 -17 95 -19 97 -19H115C117 -19 118 -17 118 -14V29Z" glyph-name="cent.dnom" horiz-adv-x="200" /><glyph d="M106 441C159 441 178 483 178 535C178 540 175 542 171 542H155C149 542 147 540 147 535C147 491 135 467 106 467C81 467 63 490 63 567C63 644 80 667 106 667C132.3415 667 145 646.9995 146 599C146 595 149 592 154 592H169C174 592 177 595 177 599C175.978 648.0545 158 692 106 692C50.2763 692 29 636 29 567C29 496 51 441 106 441ZM118 722C118 724 117 727 115 727H97C95 727 93 724 93 722V677H118ZM93 454V411C93 408 95 406 97 406H115C117 406 118 408 118 411V454Z" glyph-name="cent.numr" horiz-adv-x="200" /><glyph d="M106 -29C159 -29 178 13 178 65C178 70 175 72 171 72H155C149 72 147 70 147 65C147 21 135 -3 106 -3C81 -3 63 20 63 97C63 174 80 197 106 197C132.3415 197 145 176.9995 146 129C146 125 149 122 154 122H169C174 122 177 125 177 129C175.978 178.0545 158 222 106 222C50.2763 222 29 166 29 97C29 26 51 -29 106 -29ZM118 252C118 254 117 257 115 257H97C95 257 93 254 93 252V207H118ZM93 -16V-59C93 -62 95 -64 97 -64H115C117 -64 118 -62 118 -59V-16Z" glyph-name="centinferior" horiz-adv-x="200" unicode="&#63199;" /><glyph d="M106 496C159 496 178 538 178 590C178 595 175 597 171 597H155C149 597 147 595 147 590C147 546 135 522 106 522C81 522 63 545 63 622C63 699 80 722 106 722C132.3415 722 145 701.9995 146 654C146 650 149 647 154 647H169C174 647 177 650 177 654C175.978 703.0545 158 747 106 747C50.2763 747 29 691 29 622C29 551 51 496 106 496ZM118 777C118 779 117 782 115 782H97C95 782 93 779 93 777V732H118ZM93 509V466C93 463 95 461 97 461H115C117 461 118 463 118 466V509Z" glyph-name="centsuperior" horiz-adv-x="200" unicode="&#63200;" /><glyph d="M368 210 88 629C84 635 77 636 71 632L33 606C27 602 26 595 30 589L355 107C362 97 374 97 381 107L706 589C710 595 709 602 703 606L665 632C659 636 652 635 648 629Z" glyph-name="chevrondown" horiz-adv-x="736" /><glyph d="M211 366 630 646C636 650 637 657 633 663L607 701C603 707 596 708 590 704L108 379C98 372 98 360 108 353L590 28C596 24 603 25 607 31L633 69C637 75 636 82 630 86Z" glyph-name="chevronleft" horiz-adv-x="736" /><glyph d="M103 69 129 31C133 25 140 24 146 28L628 353C638 360 638 372 628 379L146 704C140 708 133 707 129 701L103 663C99 657 100 650 106 646L525 366L106 86C100 82 99 75 103 69Z" glyph-name="chevronright" horiz-adv-x="736" /><glyph d="M665 101 703 127C709 131 710 138 706 144L381 626C374 636 362 636 355 626L30 144C26 138 27 131 33 127L71 101C77 97 84 98 88 104L368 523L648 104C652 98 659 97 665 101Z" glyph-name="chevronup" horiz-adv-x="736" /><glyph d="M158 775C153 766 156 760 166 760H205C211 760 217 765 219 769L249 819L281 769C284 764 289 760 295 760H334C344 760 348 766 342 775L291 861C287 868 283 869 277 869H224C218 869 214 868 210 861Z" glyph-name="circumflex" horiz-adv-x="500" unicode="&#710;" /><glyph d="M161 55C161 92 132 123 95 123C58 123 29 92 29 55C29 17 58 -14 95 -14C132 -14 161 17 161 55ZM161 356C161 393 132 424 95 424C58 424 29 393 29 356C29 318 58 287 95 287C132 287 161 318 161 356Z" glyph-name="colon" horiz-adv-x="189" unicode=":" /><glyph d="M20 -113H83C91 -113 95 -111 97 -103L169 154C171 162 167 168 159 168H69C61 168 56 167 55 159L9 -99C8 -106 12 -113 20 -113Z" glyph-name="comma" horiz-adv-x="189" unicode="," /><glyph d="M9 -84H32C36 -84 37 -83 38 -80L69 31C70 34 69 37 65 37H30C26 37 25 36 24 31L5 -78C4 -82 6 -84 9 -84Z" glyph-name="comma.dnom" horiz-adv-x="81" /><glyph d="M9 341H32C36 341 37 342 38 345L69 456C70 459 69 462 65 462H30C26 462 25 461 24 456L5 347C4 343 6 341 9 341Z" glyph-name="comma.numr" horiz-adv-x="81" /><glyph d="M208 -181H245C252 -181 254 -179 257 -171L296 -56C299 -48 294 -42 287 -42H231C224 -42 219 -43 218 -51L198 -167C197 -174 201 -181 208 -181Z" glyph-name="commaaccent" horiz-adv-x="501" unicode="&#63171;" /><glyph d="M288 899H251C244 899 242 897 239 889L200 774C197 766 202 760 209 760H265C272 760 277 761 278 769L298 885C299 892 295 899 288 899Z" glyph-name="commaaccent.alt" horiz-adv-x="501" /><glyph d="M9 -134H32C36 -134 37 -133 38 -130L69 -19C70 -16 69 -13 65 -13H30C26 -13 25 -14 24 -19L5 -128C4 -132 6 -134 9 -134Z" glyph-name="commainferior" horiz-adv-x="81" unicode="&#63201;" /><glyph d="M9 391H32C36 391 37 392 38 395L69 506C70 509 69 512 65 512H30C26 512 25 511 24 506L5 397C4 393 6 391 9 391Z" glyph-name="commasuperior" horiz-adv-x="81" unicode="&#63202;" /><glyph d="M467 403C471 403 473 405 473 408C472 463 445 521 385 521C333 521 292 477 292 360C292 260 321 200 385 200C450 200 473 262 474 315C474 319 472 321 468 321H421C418 321 416 319 416 315C415 274 399 250 386 250C377 250 357 260 357 360C357 463 377 471 386 471C398 471 412 455 412 408C412 405 414 403 418 403ZM743 359C743 584 567 732 383 732C199 732 23 584 23 359C23 134 199 -14 383 -14C567 -14 743 134 743 359ZM103 359C103 537 235 656 383 656C531 656 663 537 663 359C663 181 531 60 383 60C235 60 103 181 103 359Z" glyph-name="copyright" horiz-adv-x="766" unicode="&#169;" /><glyph d="M314 134 355 175C361 181 361 186 355 192L316 231C324 249 329 269 329 290C329 312 324 333 314 351L352 389C357 396 358 400 352 406L317 441C311 447 306 447 300 441L265 406C246 417 224 424 200 424C178 424 157 418 139 408L103 444C97 450 92 450 86 444L45 403C39 397 39 392 45 386L84 347C76 329 72 310 72 290C72 268 77 246 87 228L48 189C43 183 42 178 48 172L83 137C89 131 94 131 100 137L136 173C155 162 177 155 200 155C222 155 242 161 260 171L297 134C303 129 308 128 314 134ZM133 290C133 326 163 357 200 357C235 357 266 326 266 290C266 253 235 222 200 222C163 222 133 253 133 290Z" glyph-name="currency" horiz-adv-x="400" unicode="&#164;" /><glyph d="M37 12C37 4 41 0 49 0H178C386 0 403 153 403 359C403 575 382 718 157 718H49C41 718 37 714 37 706ZM181 602C250 602 253 578 253 360C253 141 250 116 181 116Z" glyph-name="d" horiz-adv-x="426" unicode="d" /><glyph d="M247 -116C256 -78 267 -16 267 9V496L431 480C439 479 444 482 444 491V545C444 554 439 556 431 556H267V729C267 737 266 742 257 742H198C189 742 187 737 187 729V556H23C15 556 10 554 10 545V491C10 482 15 479 23 480L187 496V9C187 -16 197 -78 206 -116C208 -125 209 -130 216 -130H237C243 -130 245 -125 247 -116Z" glyph-name="dagger" horiz-adv-x="454" unicode="&#8224;" /><glyph d="M247 -116C256 -78 267 -16 267 9V177L431 161C439 160 444 163 444 172V226C444 235 439 237 431 237H267V496L431 480C439 479 444 482 444 491V545C444 554 439 556 431 556H267V729C267 737 266 742 257 742H198C189 742 187 737 187 729V556H23C15 556 10 554 10 545V491C10 482 15 479 23 480L187 496V237H23C15 237 10 235 10 226V172C10 163 15 160 23 161L187 177V9C187 -16 197 -78 206 -116C208 -125 209 -130 216 -130H237C243 -130 245 -125 247 -116Z" glyph-name="daggerdbl" horiz-adv-x="454" unicode="&#8225;" /><glyph d="M160 768C164 761 168 760 174 760H227C233 760 237 761 241 768L292 854C298 863 294 869 284 869H245C239 869 234 865 231 860L199 810L169 860C167 864 161 869 155 869H116C106 869 103 863 108 854ZM37 12C37 4 41 0 49 0H178C386 0 403 153 403 359C403 575 382 718 157 718H49C41 718 37 714 37 706ZM181 602C250 602 253 578 253 360C253 141 250 116 181 116Z" glyph-name="dcaron" horiz-adv-x="426" unicode="&#271;" /><glyph d="M178 0C386 0 403 153 403 359C403 575 382 718 157 718H49C41 718 37 714 37 706V406H12C4 406 0 402 0 394V334C0 326 4 322 12 322H37V12C37 4 41 0 49 0ZM181 116V322H212C220 322 224 326 224 334V394C224 402 220 406 212 406H181V602C250 602 253 578 253 360C253 141 250 116 181 116Z" glyph-name="dcroat" horiz-adv-x="426" unicode="&#273;" /><glyph d="M160 440C243 440 310 507 310 586C310 665 243 732 160 732C77 732 10 665 10 586C10 507 77 440 160 440ZM160 666C201 666 236 631 236 586C236 541 201 506 160 506C119 506 84 541 84 586C84 631 119 666 160 666Z" glyph-name="degree" horiz-adv-x="320" unicode="&#176;" /><glyph d="M154 790C154 782 158 778 166 778H216C224 778 228 782 228 790V839C228 847 224 851 216 851H166C158 851 154 847 154 839ZM272 790C272 782 276 778 284 778H334C342 778 346 782 346 790V839C346 847 342 851 334 851H284C276 851 272 847 272 839Z" glyph-name="dieresis" horiz-adv-x="500" unicode="&#168;" /><glyph d="M337 331C345 331 349 335 349 343V389C349 397 345 401 337 401H63C55 401 51 397 51 389V343C51 335 55 331 63 331ZM200 291C166 291 139 264 139 229C139 195 166 167 200 167C235 167 262 195 262 229C262 264 235 291 200 291ZM200 565C166 565 139 538 139 503C139 469 166 441 200 441C235 441 262 469 262 503C262 538 235 565 200 565Z" glyph-name="divide" horiz-adv-x="400" unicode="&#247;" /><glyph d="M29 162C25 162 24 161 24 157V133C24 129 25 128 29 128H171C175 128 176 129 176 133V157C176 161 175 162 171 162ZM127 80C127 95 115 106 100 106C85 106 74 95 74 80C74 65 85 53 100 53C115 53 127 65 127 80ZM127 209C127 224 115 236 100 236C85 236 74 224 74 209C74 195 85 183 100 183C115 183 127 195 127 209Z" glyph-name="divide.dnom" horiz-adv-x="200" /><glyph d="M29 587C25 587 24 586 24 582V558C24 554 25 553 29 553H171C175 553 176 554 176 558V582C176 586 175 587 171 587ZM127 505C127 520 115 531 100 531C85 531 74 520 74 505C74 490 85 478 100 478C115 478 127 490 127 505ZM127 634C127 649 115 661 100 661C85 661 74 649 74 634C74 620 85 608 100 608C115 608 127 620 127 634Z" glyph-name="divide.numr" horiz-adv-x="200" /><glyph d="M29 112C25 112 24 111 24 107V83C24 79 25 78 29 78H171C175 78 176 79 176 83V107C176 111 175 112 171 112ZM127 30C127 45 115 56 100 56C85 56 74 45 74 30C74 15 85 3 100 3C115 3 127 15 127 30ZM127 159C127 174 115 186 100 186C85 186 74 174 74 159C74 145 85 133 100 133C115 133 127 145 127 159Z" glyph-name="divideinferior" horiz-adv-x="200" /><glyph d="M29 637C25 637 24 636 24 632V608C24 604 25 603 29 603H171C175 603 176 604 176 608V632C176 636 175 637 171 637ZM127 555C127 570 115 581 100 581C85 581 74 570 74 555C74 540 85 528 100 528C115 528 127 540 127 555ZM127 684C127 699 115 711 100 711C85 711 74 699 74 684C74 670 85 658 100 658C115 658 127 670 127 684Z" glyph-name="dividesuperior" horiz-adv-x="200" /><glyph d="M215 -100C223 -100 227 -96 227 -88V-11C325 7 375 95 375 189C375 315 285 372 207 436C173 464 140 498 140 564C140 601 155 630 179 630C220 630 225 559 225 517C225 509 229 505 237 505H347C355 505 359 509 359 517C359 621 318 707 227 727V806C227 814 223 818 215 818H159C151 818 147 814 147 806V729C59 715 9 645 9 546C9 450 49 392 140 316C177 285 245 237 245 165C245 127 230 88 196 88C145 88 143 183 142 219C142 227 138 231 130 231H22C14 231 10 227 10 219C10 132 38 14 147 -10V-88C147 -96 151 -100 159 -100Z" glyph-name="dollar" horiz-adv-x="384" unicode="$" /><glyph d="M206 669C254 669 275.9803 648.1379 288 564C289 556 293 553 300 553H344C352 553 357 557 356 567C350.9993 653.0117 310.4507 727 209 727C98.7748 727 63 632 63 573C63 362 289 366 289 175C289 87 256 52 210 52C164.4444 52 139 77 128 157C127 165 123 168 116 168H72C64 168 59 164 60 154C65.0013 67.9774 114 -6 203 -6C310 -6 357 73 357 178C357 409.7513 131 403.7056 131 575C131 627.3299 157.087 669 206 669ZM235 690V806C235 812 231 818 227 818H189C185 818 181 812 181 806V690ZM181 23V-87C181 -93 185 -99 189 -99H227C231 -99 235 -93 235 -87V23Z" glyph-name="dollar.LT" horiz-adv-x="400" /><glyph d="M98 274C118.4 274 127 265 132 229C133 225 135 224 138 224H157C161 224 163 226 163 230C163 268 143 301 99 301C52 301 37 259 37 233C37 142 132 144 132 62C132 24 119 9 100 9C81 9 71 19 66 54C66 57 63 59 60 59H41C37 59 35 57 35 52C35 15 59 -18 97 -18C143 -18 163 17 163 63C163 163 68 160 68 234C68 256 78.3125 274 98 274ZM112 334C112 336 110 339 108 339H90C88 339 86 336 86 334V286H112ZM86 -2V-51C86 -54 88 -56 90 -56H108C110 -56 112 -54 112 -51V-2Z" glyph-name="dollar.dnom" horiz-adv-x="200" /><glyph d="M98 699C118.4 699 127 690 132 654C133 650 135 649 138 649H157C161 649 163 651 163 655C163 693 143 726 99 726C52 726 37 684 37 658C37 567 132 569 132 487C132 449 119 434 100 434C81 434 71 444 66 479C66 482 63 484 60 484H41C37 484 35 482 35 477C35 440 59 407 97 407C143 407 163 442 163 488C163 588 68 585 68 659C68 681 78.3125 699 98 699ZM112 759C112 761 110 764 108 764H90C88 764 86 761 86 759V711H112ZM86 423V374C86 371 88 369 90 369H108C110 369 112 371 112 374V423Z" glyph-name="dollar.numr" horiz-adv-x="200" /><glyph d="M98 229C118.4 229 127 220 132 184C133 180 135 179 138 179H157C161 179 163 181 163 185C163 223 143 256 99 256C52 256 37 214 37 188C37 97 132 99 132 17C132 -21 119 -36 100 -36C81 -36 71 -26 66 9C66 12 63 14 60 14H41C37 14 35 12 35 7C35 -30 59 -63 97 -63C143 -63 163 -28 163 18C163 118 68 115 68 189C68 211 78.3125 229 98 229ZM112 289C112 291 110 294 108 294H90C88 294 86 291 86 289V241H112ZM86 -47V-96C86 -99 88 -101 90 -101H108C110 -101 112 -99 112 -96V-47Z" glyph-name="dollarinferior" horiz-adv-x="200" unicode="&#63203;" /><glyph d="M98 754C118.4 754 127 745 132 709C133 705 135 704 138 704H157C161 704 163 706 163 710C163 748 143 781 99 781C52 781 37 739 37 713C37 622 132 624 132 542C132 504 119 489 100 489C81 489 71 499 66 534C66 537 63 539 60 539H41C37 539 35 537 35 532C35 495 59 462 97 462C143 462 163 497 163 543C163 643 68 640 68 714C68 736 78.3125 754 98 754ZM112 814C112 816 110 819 108 819H90C88 819 86 816 86 814V766H112ZM86 478V429C86 426 88 424 90 424H108C110 424 112 426 112 429V478Z" glyph-name="dollarsuperior" horiz-adv-x="200" unicode="&#63204;" /><glyph d="M208 785C208 777 212 773 220 773H280C288 773 292 777 292 785V844C292 852 288 856 280 856H220C212 856 208 852 208 844Z" glyph-name="dotaccent" horiz-adv-x="500" unicode="&#729;" /><glyph d="M37 12C37 4 41 0 49 0H169C177 0 181 4 181 12V706C181 714 177 718 169 718H49C41 718 37 714 37 706Z" glyph-name="dotlessi" horiz-adv-x="218" unicode="&#305;" /><glyph d="M244 706C244 714 240 718 232 718H112C104 718 100 714 100 706V175C100 136 92 116 56 116H22C14 116 10 113 10 105V12C10 5 14 0 21 -1C40 -3 66 -5 91 -5C198 -5 244 33 244 143Z" glyph-name="dotlessj" horiz-adv-x="274" unicode="&#63166;" /><glyph d="M37 12C37 4 41 0 49 0H340C348 0 352 4 352 12V104C352 112 348 116 340 116H181V304H290C298 304 302 308 302 316V414C302 422 298 426 290 426H181V602H333C341 602 345 606 345 614V706C345 714 341 718 333 718H49C41 718 37 714 37 706Z" glyph-name="e" horiz-adv-x="361" unicode="e" /><glyph d="M37 12C37 4 41 0 49 0H340C348 0 352 4 352 12V104C352 112 348 116 340 116H181V304H290C298 304 302 308 302 316V414C302 422 298 426 290 426H181V602H333C341 602 345 606 345 614V706C345 714 341 718 333 718H49C41 718 37 714 37 706ZM284 869H224C218 869 213 866 210 860L170 774C166 766 170 760 179 760H210C216 760 220 762 224 767L291 854C297 862 294 869 284 869Z" glyph-name="eacute" horiz-adv-x="361" unicode="&#233;" /><glyph d="M37 12C37 4 41 0 49 0H340C348 0 352 4 352 12V104C352 112 348 116 340 116H181V304H290C298 304 302 308 302 316V414C302 422 298 426 290 426H181V602H333C341 602 345 606 345 614V706C345 714 341 718 333 718H49C41 718 37 714 37 706ZM255 862C248 862 244 859 241 852C232 832 218 821 195 821C172 821 158 832 149 852C146 859 142 862 135 862H101C93 862 89 857 91 849C106 800 147 768 195 768C243 768 284 800 299 849C301 857 297 862 289 862Z" glyph-name="ebreve" horiz-adv-x="361" unicode="&#277;" /><glyph d="M37 12C37 4 41 0 49 0H340C348 0 352 4 352 12V104C352 112 348 116 340 116H181V304H290C298 304 302 308 302 316V414C302 422 298 426 290 426H181V602H333C341 602 345 606 345 614V706C345 714 341 718 333 718H49C41 718 37 714 37 706ZM155 768C159 761 163 760 169 760H222C228 760 232 761 236 768L287 854C293 863 289 869 279 869H240C234 869 229 865 226 860L194 810L164 860C162 864 156 869 150 869H111C101 869 98 863 103 854Z" glyph-name="ecaron" horiz-adv-x="361" unicode="&#283;" /><glyph d="M37 12C37 4 41 0 49 0H340C348 0 352 4 352 12V104C352 112 348 116 340 116H181V304H290C298 304 302 308 302 316V414C302 422 298 426 290 426H181V602H333C341 602 345 606 345 614V706C345 714 341 718 333 718H49C41 718 37 714 37 706ZM103 775C98 766 101 760 111 760H150C156 760 162 765 164 769L194 819L226 769C229 764 234 760 240 760H279C289 760 293 766 287 775L236 861C232 868 228 869 222 869H169C163 869 159 868 155 861Z" glyph-name="ecircumflex" horiz-adv-x="361" unicode="&#234;" /><glyph d="M37 12C37 4 41 0 49 0H340C348 0 352 4 352 12V104C352 112 348 116 340 116H181V304H290C298 304 302 308 302 316V414C302 422 298 426 290 426H181V602H333C341 602 345 606 345 614V706C345 714 341 718 333 718H49C41 718 37 714 37 706ZM99 790C99 782 103 778 111 778H161C169 778 173 782 173 790V839C173 847 169 851 161 851H111C103 851 99 847 99 839ZM217 790C217 782 221 778 229 778H279C287 778 291 782 291 790V839C291 847 287 851 279 851H229C221 851 217 847 217 839Z" glyph-name="edieresis" horiz-adv-x="361" unicode="&#235;" /><glyph d="M37 12C37 4 41 0 49 0H340C348 0 352 4 352 12V104C352 112 348 116 340 116H181V304H290C298 304 302 308 302 316V414C302 422 298 426 290 426H181V602H333C341 602 345 606 345 614V706C345 714 341 718 333 718H49C41 718 37 714 37 706ZM153 785C153 777 157 773 165 773H225C233 773 237 777 237 785V844C237 852 233 856 225 856H165C157 856 153 852 153 844Z" glyph-name="edotaccent" horiz-adv-x="361" unicode="&#279;" /><glyph d="M37 12C37 4 41 0 49 0H340C348 0 352 4 352 12V104C352 112 348 116 340 116H181V304H290C298 304 302 308 302 316V414C302 422 298 426 290 426H181V602H333C341 602 345 606 345 614V706C345 714 341 718 333 718H49C41 718 37 714 37 706ZM96 854 163 767C167 762 171 760 177 760H208C217 760 221 766 217 774L177 860C174 866 169 869 163 869H103C93 869 90 862 96 854Z" glyph-name="egrave" horiz-adv-x="361" unicode="&#232;" /><glyph d="M205 -14C310 -14 400 66 400 186C400 265 357 320 299 375C344 422 375 485 375 547C375 658 307 732 205 732C103 732 35 658 35 547C35 485 66 422 111 374C53 320 10 265 10 186C10 66 100 -14 205 -14ZM205 303C244 274 266 228 266 172C266 109 232 82 205 82C178 82 144 109 144 172C144 228 166 274 205 303ZM205 447C175 472 158 515 158 559C158 597 174 630 205 630C236 630 252 597 252 559C252 515 235 472 205 447Z" glyph-name="eight" horiz-adv-x="411" unicode="8" /><glyph d="M200 -14C305 -14 395 66 395 186C395 265 352 320 294 375C339 422 370 485 370 547C370 658 302 732 200 732C98 732 30 658 30 547C30 485 61 422 106 374C48 320 5 265 5 186C5 66 95 -14 200 -14ZM200 303C239 274 261 228 261 172C261 109 227 82 200 82C173 82 139 109 139 172C139 228 161 274 200 303ZM200 447C170 472 153 515 153 559C153 597 169 630 200 630C231 630 247 597 247 559C247 515 230 472 200 447Z" glyph-name="eight.LT" horiz-adv-x="400" /><glyph d="M100 -14C154 -14 194 21 194 72C194 114 172 134 146 154C168 172 183 194 183 227C183 275 150 307 100 307C50 307 17 275 17 227C17 194 33 172 55 154C28 132 6 114 6 72C6 21 50 -14 100 -14ZM100 30C89 30 74 40 74 66C74 89 84 108 100 120C117 108 127 89 127 66C127 40 112 30 100 30ZM100 186C87 196 80 214 80 233C80 249 87 263 100 263C114 263 120 249 120 233C120 214 113 196 100 186Z" glyph-name="eight.dnom" horiz-adv-x="200" /><glyph d="M100 411C154 411 194 446 194 497C194 539 172 559 146 579C168 597 183 619 183 652C183 700 150 732 100 732C50 732 17 700 17 652C17 619 33 597 55 579C28 557 6 539 6 497C6 446 50 411 100 411ZM100 455C89 455 74 465 74 491C74 514 84 533 100 545C117 533 127 514 127 491C127 465 112 455 100 455ZM100 611C87 621 80 639 80 658C80 674 87 688 100 688C114 688 120 674 120 658C120 639 113 621 100 611Z" glyph-name="eight.numr" horiz-adv-x="200" /><glyph d="M100 -64C154 -64 194 -29 194 22C194 64 172 84 146 104C168 122 183 144 183 177C183 225 150 257 100 257C50 257 17 225 17 177C17 144 33 122 55 104C28 82 6 64 6 22C6 -29 50 -64 100 -64ZM100 -20C89 -20 74 -10 74 16C74 39 84 58 100 70C117 58 127 39 127 16C127 -10 112 -20 100 -20ZM100 136C87 146 80 164 80 183C80 199 87 213 100 213C114 213 120 199 120 183C120 164 113 146 100 136Z" glyph-name="eightinferior" horiz-adv-x="200" unicode="&#8328;" /><glyph d="M100 461C154 461 194 496 194 547C194 589 172 609 146 629C168 647 183 669 183 702C183 750 150 782 100 782C50 782 17 750 17 702C17 669 33 647 55 629C28 607 6 589 6 547C6 496 50 461 100 461ZM100 505C89 505 74 515 74 541C74 564 84 583 100 595C117 583 127 564 127 541C127 515 112 505 100 505ZM100 661C87 671 80 689 80 708C80 724 87 738 100 738C114 738 120 724 120 708C120 689 113 671 100 661Z" glyph-name="eightsuperior" horiz-adv-x="200" unicode="&#8312;" /><glyph d="M160 55C160 92 131 123 94 123C57 123 28 92 28 55C28 17 57 -14 94 -14C131 -14 160 17 160 55ZM350 55C350 92 321 123 284 123C247 123 218 92 218 55C218 17 247 -14 284 -14C321 -14 350 17 350 55ZM539 55C539 92 510 123 473 123C436 123 407 92 407 55C407 17 436 -14 473 -14C510 -14 539 17 539 55Z" glyph-name="ellipsis" horiz-adv-x="568" unicode="&#8230;" /><glyph d="M37 12C37 4 41 0 49 0H340C348 0 352 4 352 12V104C352 112 348 116 340 116H181V304H290C298 304 302 308 302 316V414C302 422 298 426 290 426H181V602H333C341 602 345 606 345 614V706C345 714 341 718 333 718H49C41 718 37 714 37 706ZM88 795C88 787 92 783 100 783H290C298 783 302 787 302 795V834C302 842 298 846 290 846H100C92 846 88 842 88 834Z" glyph-name="emacron" horiz-adv-x="361" unicode="&#275;" /><glyph d="M10 343C10 335 14 331 22 331H728C736 331 740 335 740 343V389C740 397 736 401 728 401H22C14 401 10 397 10 389Z" glyph-name="emdash" horiz-adv-x="750" unicode="&#8212;" /><glyph d="M10 343C10 335 14 331 22 331H528C536 331 540 335 540 343V389C540 397 536 401 528 401H22C14 401 10 397 10 389Z" glyph-name="endash" horiz-adv-x="550" unicode="&#8211;" /><glyph d="M291 -181C391 -181 429 -143 429 -33V706C429 714 425 718 417 718H307C299 718 295 714 295 706V382H291L186 708C184 715 180 718 173 718H49C41 718 37 714 37 706V12C37 4 41 0 49 0H159C167 0 171 4 171 12V400H176L300 10V-1C300 -40 292 -60 256 -60H232C224 -60 220 -63 220 -71V-164C220 -171 224 -176 231 -177C250 -179 266 -181 291 -181Z" glyph-name="eng" horiz-adv-x="466" unicode="&#331;" /><glyph d="M287 -181C326 -181 352 -152 352 -119C352 -112 349 -109 345 -109H307C304 -109 301 -111 301 -115C301 -125 298 -133 290 -133C284 -133 280 -128 280 -118C280 -93 312 -36 344 -5C350 1 352 1 352 12V104C352 112 348 116 340 116H181V304H290C298 304 302 308 302 316V414C302 422 298 426 290 426H181V602H333C341 602 345 606 345 614V706C345 714 341 718 333 718H49C41 718 37 714 37 706V12C37 4 41 0 49 0H287C246 -39 223 -82 223 -118C223 -155 248 -181 287 -181Z" glyph-name="eogonek" horiz-adv-x="361" unicode="&#281;" /><glyph d="M337 259C345 259 349 263 349 271V317C349 325 345 329 337 329H63C55 329 51 325 51 317V271C51 263 55 259 63 259ZM337 403C345 403 349 407 349 415V461C349 469 345 473 337 473H63C55 473 51 469 51 461V415C51 407 55 403 63 403Z" glyph-name="equal" horiz-adv-x="400" unicode="=" /><glyph d="M29 132C25 132 24 131 24 127V103C24 99 25 98 29 98H171C175 98 176 99 176 103V127C176 131 175 132 171 132ZM29 191C25 191 24 190 24 186V162C24 158 25 157 29 157H171C175 157 176 158 176 162V186C176 190 175 191 171 191Z" glyph-name="equal.dnom" horiz-adv-x="200" /><glyph d="M29 557C25 557 24 556 24 552V528C24 524 25 523 29 523H171C175 523 176 524 176 528V552C176 556 175 557 171 557ZM29 616C25 616 24 615 24 611V587C24 583 25 582 29 582H171C175 582 176 583 176 587V611C176 615 175 616 171 616Z" glyph-name="equal.numr" horiz-adv-x="200" /><glyph d="M29 82C25 82 24 81 24 77V53C24 49 25 48 29 48H171C175 48 176 49 176 53V77C176 81 175 82 171 82ZM29 141C25 141 24 140 24 136V112C24 108 25 107 29 107H171C175 107 176 108 176 112V136C176 140 175 141 171 141Z" glyph-name="equalinferior" horiz-adv-x="200" /><glyph d="M29 607C25 607 24 606 24 602V578C24 574 25 573 29 573H171C175 573 176 574 176 578V602C176 606 175 607 171 607ZM29 666C25 666 24 665 24 661V637C24 633 25 632 29 632H171C175 632 176 633 176 637V661C176 665 175 666 171 666Z" glyph-name="equalsuperior" horiz-adv-x="200" /><glyph d="M186 120V346H834C842 346 846 350 846 358C846 563 662 732 434 732C207 732 23 563 23 359C23 154 207 -14 434 -14C561 -14 676 44 751 125C758 133 754 140 744 140H700C694 140 690 138 686 133C620 60 534 12 435 12C341 12 253 38 193 98C187 104 186 111 186 120ZM684 596V375H186V596C186 605 187 612 193 618C253 678 341 704 435 704C529 704 617 678 677 618C683 612 684 605 684 596Z" glyph-name="estimated" horiz-adv-x="869" unicode="&#8494;" /><glyph d="M178 0C386 0 403 153 403 359C403 575 382 718 157 718H49C41 718 37 714 37 706V406H12C4 406 0 402 0 394V334C0 326 4 322 12 322H37V12C37 4 41 0 49 0ZM181 116V322H212C220 322 224 326 224 334V394C224 402 220 406 212 406H181V602C250 602 253 578 253 360C253 141 250 116 181 116Z" glyph-name="eth" horiz-adv-x="426" unicode="&#240;" /><glyph d="M62 224C62 216 67 212 75 212H134C142 212 147 216 147 224L171 706C171 714 168 718 160 718H49C41 718 38 714 38 706ZM104 123C67 123 38 92 38 55C38 17 67 -14 104 -14C141 -14 170 17 170 55C170 92 141 123 104 123Z" glyph-name="exclam" horiz-adv-x="209" unicode="!" /><glyph d="M147 494C147 502 142 506 134 506H75C67 506 62 502 62 494L38 12C38 4 41 0 49 0H160C168 0 171 4 171 12ZM105 595C142 595 171 626 171 663C171 701 142 732 105 732C68 732 39 701 39 663C39 626 68 595 105 595Z" glyph-name="exclamdown" horiz-adv-x="209" unicode="&#161;" /><glyph d="M37 12C37 4 41 0 49 0H169C177 0 181 4 181 12V296H288C296 296 300 300 300 308V406C300 414 296 418 288 418H181V602H330C338 602 342 606 342 614V706C342 714 338 718 330 718H49C41 718 37 714 37 706Z" glyph-name="f" horiz-adv-x="342" unicode="f" /><glyph d="M37 12C37 4 41 0 49 0H169C177 0 181 4 181 12V296H288C296 296 300 300 300 308V406C300 414 296 418 288 418H181V602H330C338 602 342 606 342 614V706C342 714 338 718 330 718H49C41 718 37 714 37 706ZM384 12C384 4 388 0 396 0H516C524 0 528 4 528 12V706C528 714 524 718 516 718H396C388 718 384 714 384 706Z" glyph-name="fi" horiz-adv-x="565" unicode="&#64257;" /><glyph d="M37 12C37 4 41 0 49 0H169C177 0 181 4 181 12V296H288C296 296 300 300 300 308V406C300 414 296 418 288 418H181V602H330C338 602 342 606 342 614V706C342 714 338 718 330 718H49C41 718 37 714 37 706ZM379 12C379 4 383 0 391 0H511C519 0 523 4 523 12V706C523 714 519 718 511 718H391C383 718 379 714 379 706Z" glyph-name="fi.cap" horiz-adv-x="560" /><glyph d="M19 183C11 183 7 178 7 171C12 65 65 -14 174 -14C278 -14 359 57 359 233C359 398 287 462 198 462C171 462 154 456 136 446L146 602H322C330 602 335 606 335 614V706C335 714 332 718 324 718H54C46 718 42 714 41 706L18 342C18 335 20 330 27 328L100 306C107 304 113 306 116 313C128 338 142 352 164 352C203 352 215 309 215 228C215 127 203 88 174 88C154 88 142 107 137 170C136 179 133 183 125 183Z" glyph-name="five" horiz-adv-x="366" unicode="5" /><glyph d="M36 183C28 183 24 178 24 171C29 65 82 -14 191 -14C295 -14 376 57 376 233C376 398 304 462 215 462C188 462 171 456 153 446L163 602H339C347 602 352 606 352 614V706C352 714 349 718 341 718H71C63 718 59 714 58 706L35 342C35 335 37 330 44 328L117 306C124 304 130 306 133 313C145 338 159 352 181 352C220 352 232 309 232 228C232 127 220 88 191 88C171 88 159 107 154 170C153 179 150 183 142 183Z" glyph-name="five.LT" horiz-adv-x="400" /><glyph d="M20 81C17 81 15 79 15 76C17 24 43 -14 97 -14C148 -14 186 17 186 92C186 167 151 196 110 196C96 196 88 193 80 189L85 247H170C174 247 176 249 176 252V302C176 305 175 307 171 307H39C36 307 34 305 34 302L18 136C18 133 19 131 22 130L65 119C68 118 71 119 72 122C77 133 83 139 93 139C109 139 114 122 114 90C114 54 109 40 97 40C88 40 83 48 81 75C81 79 79 81 76 81Z" glyph-name="five.dnom" horiz-adv-x="200" /><glyph d="M20 506C17 506 15 504 15 501C17 449 43 411 97 411C148 411 186 442 186 517C186 592 151 621 110 621C96 621 88 618 80 614L85 672H170C174 672 176 674 176 677V727C176 730 175 732 171 732H39C36 732 34 730 34 727L18 561C18 558 19 556 22 555L65 544C68 543 71 544 72 547C77 558 83 564 93 564C109 564 114 547 114 515C114 479 109 465 97 465C88 465 83 473 81 500C81 504 79 506 76 506Z" glyph-name="five.numr" horiz-adv-x="200" /><glyph d="M20 506C17 506 15 504 15 501C17 449 43 411 97 411C148 411 186 442 186 517C186 592 151 621 110 621C96 621 88 618 80 614L85 672H170C174 672 176 674 176 677V727C176 730 175 732 171 732H39C36 732 34 730 34 727L18 561C18 558 19 556 22 555L65 544C68 543 71 544 72 547C77 558 83 564 93 564C109 564 114 547 114 515C114 479 109 465 97 465C88 465 83 473 81 500C81 504 79 506 76 506ZM300 -14C354 -14 394 21 394 72C394 114 372 134 346 154C368 172 383 194 383 227C383 275 350 307 300 307C250 307 217 275 217 227C217 194 233 172 255 154C228 132 206 114 206 72C206 21 250 -14 300 -14ZM343 732C339 732 336 731 334 726L22 -7C20 -11 21 -14 26 -14H59C63 -14 65 -12 67 -8L378 724C380 728 379 732 374 732ZM300 30C289 30 274 40 274 66C274 89 284 108 300 120C317 108 327 89 327 66C327 40 312 30 300 30ZM300 186C287 196 280 214 280 233C280 249 287 263 300 263C314 263 320 249 320 233C320 214 313 196 300 186Z" glyph-name="fiveeighths" horiz-adv-x="400" unicode="&#8541;" /><glyph d="M20 506C17 506 15 504 15 501C17 449 43 411 97 411C148 411 186 442 186 517C186 592 151 621 110 621C96 621 88 618 80 614L85 672H170C174 672 176 674 176 677V727C176 730 175 732 171 732H39C36 732 34 730 34 727L18 561C18 558 19 556 22 555L65 544C68 543 71 544 72 547C77 558 83 564 93 564C109 564 114 547 114 515C114 479 109 465 97 465C88 465 83 473 81 500C81 504 79 506 76 506ZM100 -14C154 -14 194 21 194 72C194 114 172 134 146 154C168 172 183 194 183 227C183 275 150 307 100 307C50 307 17 275 17 227C17 194 33 172 55 154C28 132 6 114 6 72C6 21 50 -14 100 -14ZM195 341C198 341 200 343 200 346V371C200 375 198 377 195 377H5C2 377 0 375 0 371V346C0 343 2 341 5 341ZM100 30C89 30 74 40 74 66C74 89 84 108 100 120C117 108 127 89 127 66C127 40 112 30 100 30ZM100 186C87 196 80 214 80 233C80 249 87 263 100 263C114 263 120 249 120 233C120 214 113 196 100 186Z" glyph-name="fiveeighths.alt" horiz-adv-x="200" /><glyph d="M20 31C17 31 15 29 15 26C17 -26 43 -64 97 -64C148 -64 186 -33 186 42C186 117 151 146 110 146C96 146 88 143 80 139L85 197H170C174 197 176 199 176 202V252C176 255 175 257 171 257H39C36 257 34 255 34 252L18 86C18 83 19 81 22 80L65 69C68 68 71 69 72 72C77 83 83 89 93 89C109 89 114 72 114 40C114 4 109 -10 97 -10C88 -10 83 -2 81 25C81 29 79 31 76 31Z" glyph-name="fiveinferior" horiz-adv-x="200" unicode="&#8325;" /><glyph d="M20 506C17 506 15 504 15 501C17 449 43 411 97 411C148 411 186 442 186 517C186 592 151 621 110 621C96 621 88 618 80 614L85 672H170C174 672 176 674 176 677V727C176 730 175 732 171 732H39C36 732 34 730 34 727L18 561C18 558 19 556 22 555L65 544C68 543 71 544 72 547C77 558 83 564 93 564C109 564 114 547 114 515C114 479 109 465 97 465C88 465 83 473 81 500C81 504 79 506 76 506ZM186 98C186 155 159 185 118 185C103 185 93 180 84 171C85 231 88 253 104 253C115 253 119 243 119 224C119 220 121 218 125 218H178C181 218 183 220 183 224C183 259 160 307 107 307C51 307 14 260 14 134C14 11 60 -14 101 -14C155 -14 186 27 186 98ZM195 341C198 341 200 343 200 346V371C200 375 198 377 195 377H5C2 377 0 375 0 371V346C0 343 2 341 5 341ZM101 131C111 131 117 120 117 93C117 62 115 40 101 40C88 40 85 62 85 93C85 119 90 131 101 131Z" glyph-name="fivesixths.alt" horiz-adv-x="200" /><glyph d="M20 556C17 556 15 554 15 551C17 499 43 461 97 461C148 461 186 492 186 567C186 642 151 671 110 671C96 671 88 668 80 664L85 722H170C174 722 176 724 176 727V777C176 780 175 782 171 782H39C36 782 34 780 34 777L18 611C18 608 19 606 22 605L65 594C68 593 71 594 72 597C77 608 83 614 93 614C109 614 114 597 114 565C114 529 109 515 97 515C88 515 83 523 81 550C81 554 79 556 76 556Z" glyph-name="fivesuperior" horiz-adv-x="200" unicode="&#8309;" /><glyph d="M37 12C37 4 41 0 49 0H169C177 0 181 4 181 12V296H288C296 296 300 300 300 308V406C300 414 296 418 288 418H181V602H330C338 602 342 606 342 614V706C342 714 338 718 330 718H49C41 718 37 714 37 706ZM384 12C384 4 388 0 396 0H662C670 0 674 4 674 12V104C674 112 670 116 662 116H528V706C528 714 524 718 516 718H396C388 718 384 714 384 706Z" glyph-name="fl" horiz-adv-x="689" unicode="&#64258;" /><glyph d="M37 12C37 4 41 0 49 0H169C177 0 181 4 181 12V296H288C296 296 300 300 300 308V406C300 414 296 418 288 418H181V602H330C338 602 342 606 342 614V706C342 714 338 718 330 718H49C41 718 37 714 37 706ZM379 12C379 4 383 0 391 0H657C665 0 669 4 669 12V104C669 112 665 116 657 116H523V706C523 714 519 718 511 718H391C383 718 379 714 379 706Z" glyph-name="fl.cap" horiz-adv-x="684" /><glyph d="M219 67 239 330H326C334 330 338 334 338 342V388C338 396 334 400 326 400H244L255 541C260 606 263 640 305 640H336C344 640 348 644 348 652V711C348 718 347 723 338 726C328 729 311 733 292 733C169 733 144 650 137 551L126 400H46C38 400 34 396 34 388V342C34 334 38 330 46 330H121L101 64C97 14 93 -11 53 -11H20C12 -11 8 -15 8 -23V-82C8 -89 9 -94 18 -97C28 -100 47 -104 66 -104C175 -104 213 -17 219 67Z" glyph-name="florin" horiz-adv-x="352" unicode="&#402;" /><glyph d="M257 581C262.056 645.9692 267.2143 680 322 680H353C361 680 365 684 365 692V711C365 718 364 723 355 726C345 729 328 733 309 733C217.9916 733 202.9503 653.9762 195 560L156 99C146.1095 -17.9103 141.9753 -51 85 -51H52C44 -51 40 -55 40 -63V-82C40 -89 41 -94 50 -97C60 -100 79 -104 98 -104C182.8682 -104 209.9993 -22.9594 217 67ZM90 391C84 391 78 387 78 383V345C78 341 84 337 90 337H333C339 337 345 341 345 345V383C345 387 339 391 333 391Z" glyph-name="florin.LT" horiz-adv-x="400" /><glyph d="M125 234C127 260 129 276 152 274L165 273C169 273 170 275 170 278V291C170 294 170 296 166 297C162 298 154 299 146 299C106 299 99 265 96 225L79 16C75 -33 72 -50 50 -47L36 -45C32 -44 31 -47 31 -50V-61C31 -64 31 -67 35 -68C39 -69 47 -71 56 -71C93 -71 105 -36 108 3ZM52 153C49 153 47 151 47 149V131C47 129 49 127 52 127H156C159 127 162 129 162 131V149C162 151 159 153 156 153Z" glyph-name="florin.dnom" horiz-adv-x="200" /><glyph d="M125 659C127 685 129 701 152 699L165 698C169 698 170 700 170 703V716C170 719 170 721 166 722C162 723 154 724 146 724C106 724 99 690 96 650L79 441C75 392 72 375 50 378L36 380C32 381 31 378 31 375V364C31 361 31 358 35 357C39 356 47 354 56 354C93 354 105 389 108 428ZM52 578C49 578 47 576 47 574V556C47 554 49 552 52 552H156C159 552 162 554 162 556V574C162 576 159 578 156 578Z" glyph-name="florin.numr" horiz-adv-x="200" /><glyph d="M125 189C127 215 129 231 152 229L165 228C169 228 170 230 170 233V246C170 249 170 251 166 252C162 253 154 254 146 254C106 254 99 220 96 180L79 -29C75 -78 72 -95 50 -92L36 -90C32 -89 31 -92 31 -95V-106C31 -109 31 -112 35 -113C39 -114 47 -116 56 -116C93 -116 105 -81 108 -42ZM52 108C49 108 47 106 47 104V86C47 84 49 82 52 82H156C159 82 162 84 162 86V104C162 106 159 108 156 108Z" glyph-name="florininferior" horiz-adv-x="200" /><glyph d="M125 714C127 740 129 756 152 754L165 753C169 753 170 755 170 758V771C170 774 170 776 166 777C162 778 154 779 146 779C106 779 99 745 96 705L79 496C75 447 72 430 50 433L36 435C32 436 31 433 31 430V419C31 416 31 413 35 412C39 411 47 409 56 409C93 409 105 444 108 483ZM52 633C49 633 47 631 47 629V611C47 609 49 607 52 607H156C159 607 162 609 162 611V629C162 631 159 633 156 633Z" glyph-name="florinsuperior" horiz-adv-x="200" /><glyph d="M18 145C18 137 22 133 30 133H226V12C226 4 230 0 238 0H333C341 0 345 4 345 12V133H401C409 133 413 137 413 145V232C413 240 409 244 401 244H345V706C345 714 341 718 333 718H165C158 718 154 715 152 708L20 242C19 237 18 233 18 227ZM134 246 212 551H227V246Z" glyph-name="four" horiz-adv-x="422" unicode="4" /><glyph d="M2 145C2 137 6 133 14 133H210V12C210 4 214 0 222 0H317C325 0 329 4 329 12V133H385C393 133 397 137 397 145V232C397 240 393 244 385 244H329V706C329 714 325 718 317 718H149C142 718 138 715 136 708L4 242C3 237 2 233 2 227ZM118 246 196 551H211V246Z" glyph-name="four.LT" horiz-adv-x="400" /><glyph d="M0 50C0 47 2 45 6 45H105V-9C105 -12 106 -14 110 -14H156C159 -14 161 -12 161 -9V45H190C194 45 195 47 195 50V94C195 98 194 99 190 99H161V302C161 305 159 307 156 307H88C85 307 83 306 82 303L1 94C0 92 0 90 0 88ZM61 100 105 218V100Z" glyph-name="four.dnom" horiz-adv-x="200" /><glyph d="M0 475C0 472 2 470 6 470H105V416C105 413 106 411 110 411H156C159 411 161 413 161 416V470H190C194 470 195 472 195 475V519C195 523 194 524 190 524H161V727C161 730 159 732 156 732H88C85 732 83 731 82 728L1 519C0 517 0 515 0 513ZM61 525 105 643V525Z" glyph-name="four.numr" horiz-adv-x="200" /><glyph d="M20 81C17 81 15 79 15 76C17 24 43 -14 97 -14C148 -14 186 17 186 92C186 167 151 196 110 196C96 196 88 193 80 189L85 247H170C174 247 176 249 176 252V302C176 305 175 307 171 307H39C36 307 34 305 34 302L18 136C18 133 19 131 22 130L65 119C68 118 71 119 72 122C77 133 83 139 93 139C109 139 114 122 114 90C114 54 109 40 97 40C88 40 83 48 81 75C81 79 79 81 76 81ZM0 475C0 472 2 470 6 470H105V416C105 413 106 411 110 411H156C159 411 161 413 161 416V470H190C194 470 195 472 195 475V519C195 523 194 524 190 524H161V727C161 730 159 732 156 732H88C85 732 83 731 82 728L1 519C0 517 0 515 0 513ZM195 341C198 341 200 343 200 346V371C200 375 198 377 195 377H5C2 377 0 375 0 371V346C0 343 2 341 5 341ZM61 525 105 643V525Z" glyph-name="fourfifths.alt" horiz-adv-x="200" /><glyph d="M0 0C0 -3 2 -5 6 -5H105V-59C105 -62 106 -64 110 -64H156C159 -64 161 -62 161 -59V-5H190C194 -5 195 -3 195 0V44C195 48 194 49 190 49H161V252C161 255 159 257 156 257H88C85 257 83 256 82 253L1 44C0 42 0 40 0 38ZM61 50 105 168V50Z" glyph-name="fourinferior" horiz-adv-x="200" unicode="&#8324;" /><glyph d="M0 525C0 522 2 520 6 520H105V466C105 463 106 461 110 461H156C159 461 161 463 161 466V520H190C194 520 195 522 195 525V569C195 573 194 574 190 574H161V777C161 780 159 782 156 782H88C85 782 83 781 82 778L1 569C0 567 0 565 0 563ZM61 575 105 693V575Z" glyph-name="foursuperior" horiz-adv-x="200" unicode="&#8308;" /><glyph d="M142 732C138 732 135 731 133 726L-179 -7C-181 -11 -180 -14 -175 -14H-142C-138 -14 -136 -12 -134 -8L177 724C179 728 178 732 173 732Z" glyph-name="fraction" horiz-adv-x="0" unicode="&#8260;" /><glyph d="M195 341C198 341 200 343 200 346V371C200 375 198 377 195 377H5C2 377 0 375 0 371V346C0 343 2 341 5 341Z" glyph-name="fraction.alt" horiz-adv-x="200" /><glyph d="M418 80V329C418 337 414 341 406 341H246C238 341 234 337 234 329V231C234 223 238 219 246 219H284V159C284 128 259 102 227 102C196 102 171 128 171 159V559C171 590 196 616 227 616C259 616 284 590 284 559V464C284 456 289 452 297 452H407C415 452 418 457 418 465V638C418 682 383 718 339 718H116C72 718 37 682 37 638V80C37 36 72 0 116 0H339C383 0 418 36 418 80Z" glyph-name="g" horiz-adv-x="448" unicode="g" /><glyph d="M418 80V329C418 337 414 341 406 341H246C238 341 234 337 234 329V231C234 223 238 219 246 219H284V159C284 128 259 102 227 102C196 102 171 128 171 159V559C171 590 196 616 227 616C259 616 284 590 284 559V464C284 456 289 452 297 452H407C415 452 418 457 418 465V638C418 682 383 718 339 718H116C72 718 37 682 37 638V80C37 36 72 0 116 0H339C383 0 418 36 418 80ZM288 862C281 862 277 859 274 852C265 832 251 821 228 821C205 821 191 832 182 852C179 859 175 862 168 862H134C126 862 122 857 124 849C139 800 180 768 228 768C276 768 317 800 332 849C334 857 330 862 322 862Z" glyph-name="gbreve" horiz-adv-x="448" unicode="&#287;" /><glyph d="M418 80V329C418 337 414 341 406 341H246C238 341 234 337 234 329V231C234 223 238 219 246 219H284V159C284 128 259 102 227 102C196 102 171 128 171 159V559C171 590 196 616 227 616C259 616 284 590 284 559V464C284 456 289 452 297 452H407C415 452 418 457 418 465V638C418 682 383 718 339 718H116C72 718 37 682 37 638V80C37 36 72 0 116 0H339C383 0 418 36 418 80ZM136 775C131 766 134 760 144 760H183C189 760 195 765 197 769L227 819L259 769C262 764 267 760 273 760H312C322 760 326 766 320 775L269 861C265 868 261 869 255 869H202C196 869 192 868 188 861Z" glyph-name="gcircumflex" horiz-adv-x="448" unicode="&#285;" /><glyph d="M418 80V329C418 337 414 341 406 341H246C238 341 234 337 234 329V231C234 223 238 219 246 219H284V159C284 128 259 102 227 102C196 102 171 128 171 159V559C171 590 196 616 227 616C259 616 284 590 284 559V464C284 456 289 452 297 452H407C415 452 418 457 418 465V638C418 682 383 718 339 718H116C72 718 37 682 37 638V80C37 36 72 0 116 0H339C383 0 418 36 418 80ZM288 899H251C244 899 242 897 239 889L200 774C197 766 202 760 209 760H265C272 760 277 761 278 769L298 885C299 892 295 899 288 899Z" glyph-name="gcommaaccent" horiz-adv-x="448" unicode="&#291;" /><glyph d="M418 80V329C418 337 414 341 406 341H246C238 341 234 337 234 329V231C234 223 238 219 246 219H284V159C284 128 259 102 227 102C196 102 171 128 171 159V559C171 590 196 616 227 616C259 616 284 590 284 559V464C284 456 289 452 297 452H407C415 452 418 457 418 465V638C418 682 383 718 339 718H116C72 718 37 682 37 638V80C37 36 72 0 116 0H339C383 0 418 36 418 80ZM186 785C186 777 190 773 198 773H258C266 773 270 777 270 785V844C270 852 266 856 258 856H198C190 856 186 852 186 844Z" glyph-name="gdotaccent" horiz-adv-x="448" unicode="&#289;" /><glyph d="M22 231C14 231 10 227 10 219C10 90 68 -14 194 -14C318 -14 375 71 375 182C375 300 300 364 219 436C180 471 150 510 150 558C150 592 163 616 188 616C227 616 231 569 232 517C232 509 236 505 244 505H354C362 505 366 509 366 517C366 637 312 732 190 732C80 732 16 658 16 546C16 450 57 394 142 316C178 283 242 237 242 165C242 126 226 102 196 102C157 102 143 150 142 219C142 227 138 231 130 231ZM406 231C398 231 394 227 394 219C394 90 452 -14 578 -14C702 -14 759 71 759 182C759 300 684 364 603 436C564 471 534 510 534 558C534 592 547 616 572 616C611 616 615 569 616 517C616 509 620 505 628 505H738C746 505 750 509 750 517C750 637 696 732 574 732C464 732 400 658 400 546C400 450 441 394 526 316C562 283 626 237 626 165C626 126 610 102 580 102C541 102 527 150 526 219C526 227 522 231 514 231Z" glyph-name="germandbls" horiz-adv-x="768" unicode="&#223;" /><glyph d="M22 231C14 231 10 227 10 219C10 90 68 -14 194 -14C318 -14 375 71 375 182C375 300 300 364 219 436C180 471 150 510 150 558C150 592 163 616 188 616C227 616 231 569 232 517C232 509 236 505 244 505H354C362 505 366 509 366 517C366 637 312 732 190 732C80 732 16 658 16 546C16 450 57 394 142 316C178 283 242 237 242 165C242 126 226 102 196 102C157 102 143 150 142 219C142 227 138 231 130 231ZM406 231C398 231 394 227 394 219C394 90 452 -14 578 -14C702 -14 759 71 759 182C759 300 684 364 603 436C564 471 534 510 534 558C534 592 547 616 572 616C611 616 615 569 616 517C616 509 620 505 628 505H738C746 505 750 509 750 517C750 637 696 732 574 732C464 732 400 658 400 546C400 450 441 394 526 316C562 283 626 237 626 165C626 126 610 102 580 102C541 102 527 150 526 219C526 227 522 231 514 231Z" glyph-name="germandbls.cap" horiz-adv-x="768" /><glyph d="M190 854 257 767C261 762 265 760 271 760H302C311 760 315 766 311 774L271 860C268 866 263 869 257 869H197C187 869 184 862 190 854Z" glyph-name="grave" horiz-adv-x="499" unicode="`" /><glyph d="M60 454 250 368V364L60 278C54 275 51 271 51 264V207C51 198 58 195 65 198L340 321C345 323 349 328 349 335V397C349 404 345 409 340 411L65 534C58 537 51 534 51 525V468C51 461 54 457 60 454Z" glyph-name="greater" horiz-adv-x="400" unicode="&gt;" /><glyph d="M60 454 250 368V364L60 278C54 275 51 271 51 264V207C51 198 58 195 65 198L340 321C345 323 349 328 349 335V397C349 404 345 409 340 411L65 534C58 537 51 534 51 525V468C51 461 54 457 60 454ZM337 100C345 100 349 104 349 112V158C349 166 345 170 337 170H63C55 170 51 166 51 158V112C51 104 55 100 63 100Z" glyph-name="greaterequal" horiz-adv-x="400" unicode="&#8805;" /><glyph d="M80 120C82 113 86 110 93 110H139C148 110 151 115 149 123L113 269L150 423C151 431 148 436 139 436H93C86 436 82 433 80 426L31 277C29 271 29 267 31 261ZM199 120C201 113 205 110 212 110H258C267 110 270 115 268 123L232 269L269 423C270 431 267 436 258 436H212C205 436 201 433 199 426L150 277C148 271 148 267 150 261Z" glyph-name="guillemotleft" horiz-adv-x="299" unicode="&#171;" /><glyph d="M100 120 149 261C151 267 151 271 149 277L100 426C98 433 94 436 87 436H41C32 436 29 431 30 423L67 269L31 123C29 115 32 110 41 110H87C94 110 98 113 100 120ZM218 120 267 261C269 267 269 271 267 277L218 426C216 433 212 436 205 436H159C150 436 147 431 148 423L185 269L149 123C147 115 150 110 159 110H205C212 110 216 113 218 120Z" glyph-name="guillemotright" horiz-adv-x="299" unicode="&#187;" /><glyph d="M80 120C82 113 86 110 93 110H139C148 110 151 115 149 123L113 269L150 423C151 431 148 436 139 436H93C86 436 82 433 80 426L31 277C29 271 29 267 31 261Z" glyph-name="guilsinglleft" horiz-adv-x="180" unicode="&#8249;" /><glyph d="M100 120 149 261C151 267 151 271 149 277L100 426C98 433 94 436 87 436H41C32 436 29 431 30 423L67 269L31 123C29 115 32 110 41 110H87C94 110 98 113 100 120Z" glyph-name="guilsinglright" horiz-adv-x="180" unicode="&#8250;" /><glyph d="M37 12C37 4 41 0 49 0H169C177 0 181 4 181 12V303H255V12C255 4 259 0 267 0H387C395 0 399 4 399 12V706C399 714 395 718 387 718H267C259 718 255 714 255 706V429H181V706C181 714 177 718 169 718H49C41 718 37 714 37 706Z" glyph-name="h" horiz-adv-x="436" unicode="h" /><glyph d="M181 12V303H255V12C255 4 259 0 267 0H387C395 0 399 4 399 12V532H424C432 532 436 536 436 544V604C436 612 432 616 424 616H399V706C399 714 395 718 387 718H267C259 718 255 714 255 706V616H181V706C181 714 177 718 169 718H49C41 718 37 714 37 706V616H12C4 616 0 612 0 604V544C0 536 4 532 12 532H37V12C37 4 41 0 49 0H169C177 0 181 4 181 12ZM181 429V532H255V429Z" glyph-name="hbar" horiz-adv-x="436" unicode="&#295;" /><glyph d="M37 12C37 4 41 0 49 0H169C177 0 181 4 181 12V303H255V12C255 4 259 0 267 0H387C395 0 399 4 399 12V706C399 714 395 718 387 718H267C259 718 255 714 255 706V429H181V706C181 714 177 718 169 718H49C41 718 37 714 37 706ZM123 775C118 766 121 760 131 760H170C176 760 182 765 184 769L214 819L246 769C249 764 254 760 260 760H299C309 760 313 766 307 775L256 861C252 868 248 869 242 869H189C183 869 179 868 175 861Z" glyph-name="hcircumflex" horiz-adv-x="436" unicode="&#293;" /><glyph d="M430 595C382 704 305 732 222 732C122 732 13 656 13 516C13 267 335 225 403 24C408 9 413 0 430 0C446 0 451 9 456 24C524 225 846 267 846 516C846 656 737 732 637 732C557 732 478 704 430 595Z" glyph-name="heart" horiz-adv-x="859" unicode="&#9829;" /><glyph d="M430 595C382 704 305 732 222 732C122 732 13 656 13 516C13 267 335 225 403 24C408 9 413 0 430 0C446 0 451 9 456 24C524 225 846 267 846 516C846 656 737 732 637 732C557 732 478 704 430 595ZM430 128C368 248 93 348 93 516C93 595 151 655 222 655C302 655 343 607 411 499C425 477 435 478 449 499C521 611 557 655 637 655C702 655 766 601 766 516C766 352 499 255 430 128Z" glyph-name="heartsuitwhite" horiz-adv-x="859" /><glyph d="M247 869H187C181 869 176 866 173 860L133 774C129 766 133 760 142 760H173C179 760 183 762 187 767L254 854C260 862 257 869 247 869ZM359 869H299C293 869 288 866 285 860L245 774C241 766 245 760 254 760H285C291 760 295 762 299 767L366 854C372 862 369 869 359 869Z" glyph-name="hungarumlaut" horiz-adv-x="501" unicode="&#733;" /><glyph d="M25 343C25 335 29 331 37 331H225C233 331 237 335 237 343V389C237 397 233 401 225 401H37C29 401 25 397 25 389Z" glyph-name="hyphen" horiz-adv-x="262" unicode="-" /><glyph d="M37 12C37 4 41 0 49 0H169C177 0 181 4 181 12V706C181 714 177 718 169 718H49C41 718 37 714 37 706Z" glyph-name="i" horiz-adv-x="218" unicode="i" /><glyph d="M37 12C37 4 41 0 49 0H169C177 0 181 4 181 12V706C181 714 177 718 169 718H49C41 718 37 714 37 706ZM198 869H138C132 869 127 866 124 860L84 774C80 766 84 760 93 760H124C130 760 134 762 138 767L205 854C211 862 208 869 198 869Z" glyph-name="iacute" horiz-adv-x="218" unicode="&#237;" /><glyph d="M169 862C162 862 158 859 155 852C146 832 132 821 109 821C86 821 72 832 63 852C60 859 56 862 49 862H15C7 862 3 857 5 849C20 800 61 768 109 768C157 768 198 800 213 849C215 857 211 862 203 862ZM37 12C37 4 41 0 49 0H169C177 0 181 4 181 12V706C181 714 177 718 169 718H49C41 718 37 714 37 706Z" glyph-name="ibreve" horiz-adv-x="218" unicode="&#301;" /><glyph d="M17 775C12 766 15 760 25 760H64C70 760 76 765 78 769L108 819L140 769C143 764 148 760 154 760H193C203 760 207 766 201 775L150 861C146 868 142 869 136 869H83C77 869 73 868 69 861ZM37 12C37 4 41 0 49 0H169C177 0 181 4 181 12V706C181 714 177 718 169 718H49C41 718 37 714 37 706Z" glyph-name="icircumflex" horiz-adv-x="218" unicode="&#238;" /><glyph d="M13 790C13 782 17 778 25 778H75C83 778 87 782 87 790V839C87 847 83 851 75 851H25C17 851 13 847 13 839ZM37 12C37 4 41 0 49 0H169C177 0 181 4 181 12V706C181 714 177 718 169 718H49C41 718 37 714 37 706ZM131 790C131 782 135 778 143 778H193C201 778 205 782 205 790V839C205 847 201 851 193 851H143C135 851 131 847 131 839Z" glyph-name="idieresis" horiz-adv-x="218" unicode="&#239;" /><glyph d="M37 12C37 4 41 0 49 0H169C177 0 181 4 181 12V706C181 714 177 718 169 718H49C41 718 37 714 37 706ZM67 785C67 777 71 773 79 773H139C147 773 151 777 151 785V844C151 852 147 856 139 856H79C71 856 67 852 67 844Z" glyph-name="idotaccent" horiz-adv-x="218" /><glyph d="M37 12C37 4 41 0 49 0H169C177 0 181 4 181 12V706C181 714 177 718 169 718H49C41 718 37 714 37 706ZM10 854 77 767C81 762 85 760 91 760H122C131 760 135 766 131 774L91 860C88 866 83 869 77 869H17C7 869 4 862 10 854Z" glyph-name="igrave" horiz-adv-x="218" unicode="&#236;" /><glyph d="M462 706C462 714 458 718 450 718H330C322 718 318 714 318 706V175C318 136 310 116 274 116H240C232 116 228 113 228 105V12C228 5 232 0 239 -1C258 -3 284 -5 309 -5C416 -5 462 33 462 143ZM37 12C37 4 41 0 49 0H169C177 0 181 4 181 12V706C181 714 177 718 169 718H49C41 718 37 714 37 706Z" glyph-name="ij" horiz-adv-x="492" unicode="&#307;" /><glyph d="M37 12C37 4 41 0 49 0H169C177 0 181 4 181 12V706C181 714 177 718 169 718H49C41 718 37 714 37 706ZM2 795C2 787 6 783 14 783H204C212 783 216 787 216 795V834C216 842 212 846 204 846H14C6 846 2 842 2 834Z" glyph-name="imacron" horiz-adv-x="218" unicode="&#299;" /><glyph d="M295 408C248 408 223 366 202 337C177 379 150 408 113 408C56 408 14 358 14 288C14 218 59 169 108 169C149 169 177 201 202 241C235 185 261 169 292 169C340 169 386 216 386 291C386 361 346 408 295 408ZM82 287C82 317 94 338 113 338C135 338 144 315 161 285C145 261 134 240 116 240C97 240 82 259 82 287ZM319 287C319 267 308 240 291 240C273 240 264 252 243 290C256 308 269 338 288 338C307 338 319 317 319 287Z" glyph-name="infinity" horiz-adv-x="400" unicode="&#8734;" /><glyph d="M247 818C124 818 92 735 92 636V68C92 18 84 -7 44 -7H11C3 -7 -1 -11 -1 -19V-78C-1 -85 0 -90 9 -93C19 -96 38 -100 57 -100C166 -100 210 -13 210 71V626C210 691 218 725 260 725H291C299 725 303 729 303 737V796C303 803 302 808 293 811C283 814 266 818 247 818Z" glyph-name="integral" horiz-adv-x="312" unicode="&#8747;" /><glyph d="M116 -181C155 -181 181 -152 181 -119C181 -112 178 -109 174 -109H136C133 -109 130 -111 130 -115C130 -125 127 -133 119 -133C113 -133 109 -128 109 -118C109 -93 141 -36 173 -5C179 1 181 1 181 12V706C181 714 177 718 169 718H49C41 718 37 714 37 706V12C37 4 41 0 49 0H116C75 -39 52 -82 52 -118C52 -155 77 -181 116 -181Z" glyph-name="iogonek" horiz-adv-x="218" unicode="&#303;" /><glyph d="M192 858C186 860 182 858 178 852C168 833 160 829 148 829C121 829 100 858 67 858C41 858 9 841 -5 798C-6 792 -4 788 1 785L26 772C32 770 36 772 40 778C50 797 58 801 70 801C96 801 118 772 151 772C177 772 209 789 223 832C224 838 222 842 217 845ZM37 12C37 4 41 0 49 0H169C177 0 181 4 181 12V706C181 714 177 718 169 718H49C41 718 37 714 37 706Z" glyph-name="itilde" horiz-adv-x="218" unicode="&#297;" /><glyph d="M244 706C244 714 240 718 232 718H112C104 718 100 714 100 706V175C100 136 92 116 56 116H22C14 116 10 113 10 105V12C10 5 14 0 21 -1C40 -3 66 -5 91 -5C198 -5 244 33 244 143Z" glyph-name="j" horiz-adv-x="274" unicode="j" /><glyph d="M244 706C244 714 240 718 232 718H112C104 718 100 714 100 706V175C100 136 92 116 56 116H22C14 116 10 113 10 105V12C10 5 14 0 21 -1C40 -3 66 -5 91 -5C198 -5 244 33 244 143ZM80 775C75 766 78 760 88 760H127C133 760 139 765 141 769L171 819L203 769C206 764 211 760 217 760H256C266 760 270 766 264 775L213 861C209 868 205 869 199 869H146C140 869 136 868 132 861Z" glyph-name="jcircumflex" horiz-adv-x="274" unicode="&#309;" /><glyph d="M181 12V344H196L276 11C278 3 282 0 289 0H412C421 0 424 5 422 13L307 416L416 704C419 712 415 718 406 718H284C277 718 273 715 271 708L185 457H181V706C181 714 177 718 169 718H49C41 718 37 714 37 706V12C37 4 41 0 49 0H169C177 0 181 4 181 12Z" glyph-name="k" horiz-adv-x="428" unicode="k" /><glyph d="M181 12V344H196L276 11C278 3 282 0 289 0H412C421 0 424 5 422 13L307 416L416 704C419 712 415 718 406 718H284C277 718 273 715 271 708L185 457H181V706C181 714 177 718 169 718H49C41 718 37 714 37 706V12C37 4 41 0 49 0H169C177 0 181 4 181 12ZM173 -181H210C217 -181 219 -179 222 -171L261 -56C264 -48 259 -42 252 -42H196C189 -42 184 -43 183 -51L163 -167C162 -174 166 -181 173 -181Z" glyph-name="kcommaaccent" horiz-adv-x="428" unicode="&#311;" /><glyph d="M37 12C37 4 41 0 49 0H315C323 0 327 4 327 12V104C327 112 323 116 315 116H181V706C181 714 177 718 169 718H49C41 718 37 714 37 706Z" glyph-name="l" horiz-adv-x="342" unicode="l" /><glyph d="M37 12C37 4 41 0 49 0H315C323 0 327 4 327 12V104C327 112 323 116 315 116H181V706C181 714 177 718 169 718H49C41 718 37 714 37 706ZM198 869H138C132 869 127 866 124 860L84 774C80 766 84 760 93 760H124C130 760 134 762 138 767L205 854C211 862 208 869 198 869Z" glyph-name="lacute" horiz-adv-x="342" unicode="&#314;" /><glyph d="M107 301C45.2651 301 23 242.4681 23 170C23 95.2703 55.7366 33.804 90 12H36C33 12 31 11 31 7V-9C31 -12 33 -14 36 -14H176C180 -14 181 -12 181 -9V7C181 11 180 12 176 12H140C109.4474 12 54 70.6667 54 172C54 243.0357 70.3019 274 108 274C132 274 153 265 153 220C153 217 155 215 158 215H177C181 215 182 217 182 221C179 265 159 301 107 301ZM94 163C97 163 98 165 98 169V333C98 336 97 338 94 338H81C78 338 76 336 76 333V169C76 165 78 163 81 163ZM133 163C136 163 137 165 137 169V333C137 336 136 338 133 338H120C117 338 115 336 115 333V169C115 165 117 163 120 163Z" glyph-name="lari.dnom" horiz-adv-x="200" /><glyph d="M107 726C45.2651 726 23 667.4681 23 595C23 520.2703 55.7366 458.804 90 437H36C33 437 31 436 31 432V416C31 413 33 411 36 411H176C180 411 181 413 181 416V432C181 436 180 437 176 437H140C109.4474 437 54 495.6667 54 597C54 668.0357 70.3019 699 108 699C132 699 153 690 153 645C153 642 155 640 158 640H177C181 640 182 642 182 646C179 690 159 726 107 726ZM94 588C97 588 98 590 98 594V758C98 761 97 763 94 763H81C78 763 76 761 76 758V594C76 590 78 588 81 588ZM133 588C136 588 137 590 137 594V758C137 761 136 763 133 763H120C117 763 115 761 115 758V594C115 590 117 588 120 588Z" glyph-name="lari.numr" horiz-adv-x="200" /><glyph d="M107 256C45.2651 256 23 197.4681 23 125C23 50.2703 55.7366 -11.196 90 -33H36C33 -33 31 -34 31 -38V-54C31 -57 33 -59 36 -59H176C180 -59 181 -57 181 -54V-38C181 -34 180 -33 176 -33H140C109.4474 -33 54 25.6667 54 127C54 198.0357 70.3019 229 108 229C132 229 153 220 153 175C153 172 155 170 158 170H177C181 170 182 172 182 176C179 220 159 256 107 256ZM94 118C97 118 98 120 98 124V288C98 291 97 293 94 293H81C78 293 76 291 76 288V124C76 120 78 118 81 118ZM133 118C136 118 137 120 137 124V288C137 291 136 293 133 293H120C117 293 115 291 115 288V124C115 120 117 118 120 118Z" glyph-name="lariinferior" horiz-adv-x="200" /><glyph d="M107 781C45.2651 781 23 722.4681 23 650C23 575.2703 55.7366 513.804 90 492H36C33 492 31 491 31 487V471C31 468 33 466 36 466H176C180 466 181 468 181 471V487C181 491 180 492 176 492H140C109.4474 492 54 550.6667 54 652C54 723.0357 70.3019 754 108 754C132 754 153 745 153 700C153 697 155 695 158 695H177C181 695 182 697 182 701C179 745 159 781 107 781ZM94 643C97 643 98 645 98 649V813C98 816 97 818 94 818H81C78 818 76 816 76 813V649C76 645 78 643 81 643ZM133 643C136 643 137 645 137 649V813C137 816 136 818 133 818H120C117 818 115 816 115 813V649C115 645 117 643 120 643Z" glyph-name="larisuperior" horiz-adv-x="200" /><glyph d="M37 12C37 4 41 0 49 0H315C323 0 327 4 327 12V104C327 112 323 116 315 116H181V706C181 714 177 718 169 718H49C41 718 37 714 37 706ZM288 718H233C224 718 220 715 219 707L209 613C208 602 211 599 218 599H246C252 599 256 600 258 606L295 703C299 714 296 718 288 718Z" glyph-name="lcaron" horiz-adv-x="342" unicode="&#318;" /><glyph d="M37 12C37 4 41 0 49 0H315C323 0 327 4 327 12V104C327 112 323 116 315 116H181V706C181 714 177 718 169 718H49C41 718 37 714 37 706ZM134 -181H171C178 -181 180 -179 183 -171L222 -56C225 -48 220 -42 213 -42H157C150 -42 145 -43 144 -51L124 -167C123 -174 127 -181 134 -181Z" glyph-name="lcommaaccent" horiz-adv-x="342" unicode="&#316;" /><glyph d="M37 12C37 4 41 0 49 0H315C323 0 327 4 327 12V104C327 112 323 116 315 116H181V706C181 714 177 718 169 718H49C41 718 37 714 37 706ZM236 323C236 315 240 311 248 311H308C316 311 320 315 320 323V382C320 390 316 394 308 394H248C240 394 236 390 236 382Z" glyph-name="ldot" horiz-adv-x="342" unicode="&#320;" /><glyph d="M340 454C346 457 349 461 349 468V525C349 534 342 537 335 534L60 411C55 409 51 404 51 397V335C51 328 55 323 60 321L335 198C342 195 349 198 349 207V264C349 271 346 275 340 278L150 364V368Z" glyph-name="less" horiz-adv-x="400" unicode="&lt;" /><glyph d="M340 454C346 457 349 461 349 468V525C349 534 342 537 335 534L60 411C55 409 51 404 51 397V335C51 328 55 323 60 321L335 198C342 195 349 198 349 207V264C349 271 346 275 340 278L150 364V368ZM337 100C345 100 349 104 349 112V158C349 166 345 170 337 170H63C55 170 51 166 51 158V112C51 104 55 100 63 100Z" glyph-name="lessequal" horiz-adv-x="400" unicode="&#8804;" /><glyph d="M85 11V290C85 292 84 295 82 295H59C57 295 55 292 55 290V-14C55 -16 57 -19 59 -19H103C166 -19 172 27 172 94V131C172 134 170 136 168 136H146C144 136 142 134 142 131V89C142 16 130 7 92 7H88C86 7 85 8 85 11ZM128 179C131 181 132 182 132 187V203C132 206 130 208 127 206L29 146C25 143 24 143 24 137V122C24 119 26 117 29 119ZM128 235C131 237 132 238 132 243V258C132 262 130 264 127 262L29 201C25 199 24 198 24 193V178C24 174 26 172 29 174Z" glyph-name="lira.dnom" horiz-adv-x="200" /><glyph d="M85 436V715C85 717 84 720 82 720H59C57 720 55 717 55 715V411C55 409 57 406 59 406H103C166 406 172 452 172 519V556C172 559 170 561 168 561H146C144 561 142 559 142 556V514C142 441 130 432 92 432H88C86 432 85 433 85 436ZM128 604C131 606 132 607 132 612V628C132 631 130 633 127 631L29 571C25 568 24 568 24 562V547C24 544 26 542 29 544ZM128 660C131 662 132 663 132 668V683C132 687 130 689 127 687L29 626C25 624 24 623 24 618V603C24 599 26 597 29 599Z" glyph-name="lira.numr" horiz-adv-x="200" /><glyph d="M85 -34V245C85 247 84 250 82 250H59C57 250 55 247 55 245V-59C55 -61 57 -64 59 -64H103C166 -64 172 -18 172 49V86C172 89 170 91 168 91H146C144 91 142 89 142 86V44C142 -29 130 -38 92 -38H88C86 -38 85 -37 85 -34ZM128 134C131 136 132 137 132 142V158C132 161 130 163 127 161L29 101C25 98 24 98 24 92V77C24 74 26 72 29 74ZM128 190C131 192 132 193 132 198V213C132 217 130 219 127 217L29 156C25 154 24 153 24 148V133C24 129 26 127 29 129Z" glyph-name="lirainferior" horiz-adv-x="200" /><glyph d="M85 491V770C85 772 84 775 82 775H59C57 775 55 772 55 770V466C55 464 57 461 59 461H103C166 461 172 507 172 574V611C172 614 170 616 168 616H146C144 616 142 614 142 611V569C142 496 130 487 92 487H88C86 487 85 488 85 491ZM128 659C131 661 132 662 132 667V683C132 686 130 688 127 686L29 626C25 623 24 623 24 617V602C24 599 26 597 29 599ZM128 715C131 717 132 718 132 723V738C132 742 130 744 127 742L29 681C25 679 24 678 24 673V658C24 654 26 652 29 654Z" glyph-name="lirasuperior" horiz-adv-x="200" /><glyph d="M322 154C316 160 310 160 305 152C284 113 260 80 231 80C200 80 178 116 178 200V253C261 364 331 466 331 583C331 665 293 732 207 732C114 732 61 659 61 489V268C44 244 27 227 5 205C0 200 -1 195 2 189L21 141C24 132 31 131 37 138C45 146 53 155 61 162V163C61 71 95 -15 208 -15C267 -15 321 19 357 102C360 108 359 113 354 118ZM178 511C178 613 190 640 213 640C233 640 241 620 241 577C241 511 213 442 178 377Z" glyph-name="litre" horiz-adv-x="369" /><glyph d="M51 343C51 335 55 331 63 331H275V222C275 214 279 210 287 210H337C345 210 349 214 349 222V389C349 397 345 401 337 401H63C55 401 51 397 51 389Z" glyph-name="logicalnot" horiz-adv-x="400" unicode="&#172;" /><glyph d="M390 346C392 352 392 356 390 362L258 708C255 715 252 718 245 718H163C156 718 153 715 150 708L9 362C7 356 7 352 9 346L141 10C144 3 147 0 154 0H236C243 0 246 3 249 10ZM189 171 116 357 191 538C196 549 199 559 202 569C204 559 208 549 212 538L283 352L206 171C202 162 199 152 197 142C195 151 193 161 189 171Z" glyph-name="lozenge" horiz-adv-x="400" unicode="&#9674;" /><glyph d="M315 0C323 0 327 4 327 12V104C327 112 323 116 315 116H181V344L267 408C272 412 274 416 274 423V495C274 506 267 509 259 503L181 445V706C181 714 177 718 169 718H49C41 718 37 714 37 706V338L7 316C2 312 0 308 0 301V229C0 218 7 215 15 221L37 237V12C37 4 41 0 49 0Z" glyph-name="lslash" horiz-adv-x="342" unicode="&#322;" /><glyph d="M372 718C365 718 362 714 360 707L286 383L212 707C210 714 207 718 200 718H49C41 718 37 714 37 706V12C37 4 41 0 49 0H155C163 0 167 4 167 12V424H174L254 11C255 4 259 0 266 0H306C313 0 317 4 318 11L398 424H405V12C405 4 409 0 417 0H523C531 0 535 4 535 12V706C535 714 531 718 523 718Z" glyph-name="m" horiz-adv-x="572" unicode="m" /><glyph d="M143 795C143 787 147 783 155 783H345C353 783 357 787 357 795V834C357 842 353 846 345 846H155C147 846 143 842 143 834Z" glyph-name="macron" horiz-adv-x="500" unicode="&#175;" /><glyph d="M337 331C345 331 349 335 349 343V389C349 397 345 401 337 401H63C55 401 51 397 51 389V343C51 335 55 331 63 331Z" glyph-name="minus" horiz-adv-x="400" unicode="&#8722;" /><glyph d="M29 162C25 162 24 161 24 157V133C24 129 25 128 29 128H171C175 128 176 129 176 133V157C176 161 175 162 171 162Z" glyph-name="minus.dnom" horiz-adv-x="200" /><glyph d="M29 587C25 587 24 586 24 582V558C24 554 25 553 29 553H171C175 553 176 554 176 558V582C176 586 175 587 171 587Z" glyph-name="minus.numr" horiz-adv-x="200" /><glyph d="M29 112C25 112 24 111 24 107V83C24 79 25 78 29 78H171C175 78 176 79 176 83V107C176 111 175 112 171 112Z" glyph-name="minusinferior" horiz-adv-x="200" /><glyph d="M29 637C25 637 24 636 24 632V608C24 604 25 603 29 603H171C175 603 176 604 176 608V632C176 636 175 637 171 637Z" glyph-name="minussuperior" horiz-adv-x="200" /><glyph d="M380 92C345 92 342 111 342 148V520C342 528 338 532 330 532H233C225 532 221 528 221 520V164C221 107 200 94 183 94C165 94 143 109 143 164V520C143 528 139 532 131 532H34C26 532 22 528 22 520V-138C22 -146 26 -150 34 -150H119C127 -150 131 -146 131 -138V15C170 -19 238 -7 272 21C293 1 326 -11 367 -11C386 -11 395 -9 405 -4C414 0 415 4 415 11V80C415 88 411 92 403 92Z" glyph-name="mu" horiz-adv-x="415" unicode="&#956;" /><glyph d="M201 317 279 238C285 232 290 232 296 238L328 271C334 276 335 282 328 288L247 366L327 443C333 448 333 454 327 460L295 493C289 498 283 498 278 493L200 415L122 494C116 500 111 500 105 494L72 461C66 456 65 450 72 444L155 366L73 289C67 284 67 278 73 272L106 239C112 234 118 234 123 239Z" glyph-name="multiply" horiz-adv-x="400" unicode="&#215;" /><glyph d="M146 83 162 99C166 103 165 104 162 107L124 145L162 183C165 186 165 188 162 191L146 207C143 210 140 210 137 207L100 170L62 207C59 210 58 211 54 207L38 191C34 187 35 185 38 182L75 145L38 108C35 105 35 102 38 99L54 83C57 80 59 80 62 83L100 121L137 83C140 80 142 79 146 83Z" glyph-name="multiply.dnom" horiz-adv-x="200" /><glyph d="M146 508 162 524C166 528 165 529 162 532L124 570L162 608C165 611 165 613 162 616L146 632C143 635 140 635 137 632L100 595L62 632C59 635 58 636 54 632L38 616C34 612 35 610 38 607L75 570L38 533C35 530 35 527 38 524L54 508C57 505 59 505 62 508L100 546L137 508C140 505 142 504 146 508Z" glyph-name="multiply.numr" horiz-adv-x="200" /><glyph d="M146 33 162 49C166 53 165 54 162 57L124 95L162 133C165 136 165 138 162 141L146 157C143 160 140 160 137 157L100 120L62 157C59 160 58 161 54 157L38 141C34 137 35 135 38 132L75 95L38 58C35 55 35 52 38 49L54 33C57 30 59 30 62 33L100 71L137 33C140 30 142 29 146 33Z" glyph-name="multiplyinferior" horiz-adv-x="200" /><glyph d="M146 558 162 574C166 578 165 579 162 582L124 620L162 658C165 661 165 663 162 666L146 682C143 685 140 685 137 682L100 645L62 682C59 685 58 686 54 682L38 666C34 662 35 660 38 657L75 620L38 583C35 580 35 577 38 574L54 558C57 555 59 555 62 558L100 596L137 558C140 555 142 554 146 558Z" glyph-name="multiplysuperior" horiz-adv-x="200" /><glyph d="M171 12V400H176L300 10C302 3 306 0 313 0H417C425 0 429 4 429 12V706C429 714 425 718 417 718H307C299 718 295 714 295 706V382H291L186 708C184 715 180 718 173 718H49C41 718 37 714 37 706V12C37 4 41 0 49 0H159C167 0 171 4 171 12Z" glyph-name="n" horiz-adv-x="466" unicode="n" /><glyph d="M171 12V400H176L300 10C302 3 306 0 313 0H417C425 0 429 4 429 12V706C429 714 425 718 417 718H307C299 718 295 714 295 706V382H291L186 708C184 715 180 718 173 718H49C41 718 37 714 37 706V12C37 4 41 0 49 0H159C167 0 171 4 171 12ZM322 869H262C256 869 251 866 248 860L208 774C204 766 208 760 217 760H248C254 760 258 762 262 767L329 854C335 862 332 869 322 869Z" glyph-name="nacute" horiz-adv-x="466" unicode="&#324;" /><glyph d="M171 12V400H176L300 10C302 3 306 0 313 0H417C425 0 429 4 429 12V706C429 714 425 718 417 718H307C299 718 295 714 295 706V382H291L186 708C184 715 180 718 173 718H49C41 718 37 714 37 706V12C37 4 41 0 49 0H159C167 0 171 4 171 12ZM193 768C197 761 201 760 207 760H260C266 760 270 761 274 768L325 854C331 863 327 869 317 869H278C272 869 267 865 264 860L232 810L202 860C200 864 194 869 188 869H149C139 869 136 863 141 854Z" glyph-name="ncaron" horiz-adv-x="466" unicode="&#328;" /><glyph d="M171 12V400H176L300 10C302 3 306 0 313 0H417C425 0 429 4 429 12V706C429 714 425 718 417 718H307C299 718 295 714 295 706V382H291L186 708C184 715 180 718 173 718H49C41 718 37 714 37 706V12C37 4 41 0 49 0H159C167 0 171 4 171 12ZM186 -181H223C230 -181 232 -179 235 -171L274 -56C277 -48 272 -42 265 -42H209C202 -42 197 -43 196 -51L176 -167C175 -174 179 -181 186 -181Z" glyph-name="ncommaaccent" horiz-adv-x="466" unicode="&#326;" /><glyph d="M181 -14C297 -14 374 95 374 388C374 674 279 732 194 732C84 732 20 638 20 473C20 340 73 269 155 269C189 269 215 282 235 303C233 146 224 88 188 88C162 88 153 120 153 180C153 188 148 192 140 192H38C30 192 26 187 27 180C34 90 68 -14 181 -14ZM194 371C171 371 157 404 157 484C157 570 162 630 194 630C226 630 231 570 231 484C231 407 220 371 194 371Z" glyph-name="nine" horiz-adv-x="397" unicode="9" /><glyph d="M184 -14C300 -14 377 95 377 388C377 674 282 732 197 732C87 732 23 638 23 473C23 340 76 269 158 269C192 269 218 282 238 303C236 146 227 88 191 88C165 88 156 120 156 180C156 188 151 192 143 192H41C33 192 29 187 30 180C37 90 71 -14 184 -14ZM197 371C174 371 160 404 160 484C160 570 165 630 197 630C229 630 234 570 234 484C234 407 223 371 197 371Z" glyph-name="nine.LT" horiz-adv-x="400" /><glyph d="M93 -14C149 -14 186 33 186 159C186 282 140 307 99 307C45 307 14 266 14 195C14 138 41 108 82 108C97 108 107 113 116 122C115 62 112 40 96 40C85 40 81 50 81 69C81 73 79 75 75 75H22C19 75 17 73 17 69C17 34 40 -14 93 -14ZM99 162C89 162 83 173 83 200C83 231 85 253 99 253C112 253 115 231 115 200C115 174 110 162 99 162Z" glyph-name="nine.dnom" horiz-adv-x="200" /><glyph d="M93 411C149 411 186 458 186 584C186 707 140 732 99 732C45 732 14 691 14 620C14 563 41 533 82 533C97 533 107 538 116 547C115 487 112 465 96 465C85 465 81 475 81 494C81 498 79 500 75 500H22C19 500 17 498 17 494C17 459 40 411 93 411ZM99 587C89 587 83 598 83 625C83 656 85 678 99 678C112 678 115 656 115 625C115 599 110 587 99 587Z" glyph-name="nine.numr" horiz-adv-x="200" /><glyph d="M93 -64C149 -64 186 -17 186 109C186 232 140 257 99 257C45 257 14 216 14 145C14 88 41 58 82 58C97 58 107 63 116 72C115 12 112 -10 96 -10C85 -10 81 0 81 19C81 23 79 25 75 25H22C19 25 17 23 17 19C17 -16 40 -64 93 -64ZM99 112C89 112 83 123 83 150C83 181 85 203 99 203C112 203 115 181 115 150C115 124 110 112 99 112Z" glyph-name="nineinferior" horiz-adv-x="200" unicode="&#8329;" /><glyph d="M93 461C149 461 186 508 186 634C186 757 140 782 99 782C45 782 14 741 14 670C14 613 41 583 82 583C97 583 107 588 116 597C115 537 112 515 96 515C85 515 81 525 81 544C81 548 79 550 75 550H22C19 550 17 548 17 544C17 509 40 461 93 461ZM99 637C89 637 83 648 83 675C83 706 85 728 99 728C112 728 115 706 115 675C115 649 110 637 99 637Z" glyph-name="ninesuperior" horiz-adv-x="200" unicode="&#8313;" /><glyph d="M141 210 170 259H337C345 259 349 263 349 271V317C349 325 345 329 337 329H212L257 403H337C345 403 349 407 349 415V461C349 469 345 473 337 473H299L326 518C331 526 330 532 322 532H277C267 532 264 532 258 522L229 473H63C55 473 51 469 51 461V415C51 407 55 403 63 403H187L143 329H63C55 329 51 325 51 317V271C51 263 55 259 63 259H101L74 214C69 206 71 200 78 200H122C132 200 135 200 141 210Z" glyph-name="notequal" horiz-adv-x="400" unicode="&#8800;" /><glyph d="M171 12V400H176L300 10C302 3 306 0 313 0H417C425 0 429 4 429 12V706C429 714 425 718 417 718H307C299 718 295 714 295 706V382H291L186 708C184 715 180 718 173 718H49C41 718 37 714 37 706V12C37 4 41 0 49 0H159C167 0 171 4 171 12ZM316 858C310 860 306 858 302 852C292 833 284 829 272 829C245 829 224 858 191 858C165 858 133 841 119 798C118 792 120 788 125 785L150 772C156 770 160 772 164 778C174 797 182 801 194 801C220 801 242 772 275 772C301 772 333 789 347 832C348 838 346 842 341 845Z" glyph-name="ntilde" horiz-adv-x="466" unicode="&#241;" /><glyph glyph-name="null" horiz-adv-x="0" /><glyph d="M228 705C229 713 225 718 217 718H162C154 718 150 714 149 707L121 497H51C43 497 39 493 39 485V439C39 431 43 427 51 427H111L93 292H22C14 292 10 288 10 280V234C10 226 14 222 22 222H84L55 13C54 5 58 0 66 0H121C129 0 133 4 134 11ZM204 13C203 5 207 0 215 0H270C278 0 282 4 283 11L311 221H381C389 221 393 225 393 233V279C393 287 389 291 381 291H321L339 426H410C418 426 422 430 422 438V484C422 492 418 496 410 496H348L377 705C378 713 374 718 366 718H311C303 718 299 714 298 707Z" glyph-name="numbersign" horiz-adv-x="432" unicode="#" /><glyph d="M212 705C213 713 209 718 201 718H146C138 718 134 714 133 707L105 497H35C27 497 23 493 23 485V439C23 431 27 427 35 427H95L77 292H6C-2 292 -6 288 -6 280V234C-6 226 -2 222 6 222H68L39 13C38 5 42 0 50 0H105C113 0 117 4 118 11ZM188 13C187 5 191 0 199 0H254C262 0 266 4 267 11L295 221H365C373 221 377 225 377 233V279C377 287 373 291 365 291H305L323 426H394C402 426 406 430 406 438V484C406 492 402 496 394 496H332L361 705C362 713 358 718 350 718H295C287 718 283 714 282 707Z" glyph-name="numbersign.LT" horiz-adv-x="400" /><glyph d="M62 416C62 413 64 411 67 411H133C136 411 138 413 138 416V727C138 730 136 732 133 732H96C94 732 92 732 90 730C81 718 75 712 66 706C64 705 62 703 62 700ZM195 341C198 341 200 343 200 346V371C200 375 198 377 195 377H5C2 377 0 375 0 371V346C0 343 2 341 5 341Z" glyph-name="numeratorone.alt" horiz-adv-x="200" /><glyph d="M171 12V400H176L300 10C302 3 306 0 313 0H417C425 0 429 4 429 12V706C429 714 425 718 417 718H307C299 718 295 714 295 706V382H291L186 708C184 715 180 718 173 718H49C41 718 37 714 37 706V12C37 4 41 0 49 0H159C167 0 171 4 171 12ZM476 343C476 335 480 331 488 331H666C674 331 678 335 678 343V375C678 383 674 387 666 387H488C480 387 476 383 476 375ZM476 574C476 474 511 415 577 415C643 415 678 474 678 574C678 673 643 732 577 732C511 732 476 673 476 574ZM606 574C606 508 595 469 577 469C559 469 548 508 548 574C548 639 559 678 577 678C595 678 606 639 606 574Z" glyph-name="numero" horiz-adv-x="695" /><glyph d="M171 12V400H176L300 10C302 3 306 0 313 0H417C425 0 429 4 429 12V706C429 714 425 718 417 718H307C299 718 295 714 295 706V382H291L186 708C184 715 180 718 173 718H49C41 718 37 714 37 706V12C37 4 41 0 49 0H159C167 0 171 4 171 12ZM510 718C491 718 478 702 478 684V449C478 431 491 415 510 415H643C662 415 676 431 676 449V684C676 702 662 718 643 718ZM608 497C608 476 596 461 577 461C557 461 545 476 545 497V636C545 657 557 672 577 672C596 672 608 657 608 636ZM577 374C559 374 545 360 545 342C545 324 559 310 577 310C595 310 609 324 609 342C609 360 595 374 577 374Z" glyph-name="numero.alt" horiz-adv-x="695" /><glyph d="M116 718H339C383 718 418 682 418 638V80C418 36 383 0 339 0H116C72 0 37 36 37 80V638C37 682 72 718 116 718ZM284 163V555C284 585 258 611 227 611C197 611 171 585 171 555V163C171 133 197 107 227 107C258 107 284 133 284 163Z" glyph-name="o" horiz-adv-x="455" unicode="o" /><glyph d="M320 869H260C254 869 249 866 246 860L206 774C202 766 206 760 215 760H246C252 760 256 762 260 767L327 854C333 862 330 869 320 869ZM116 718H339C383 718 418 682 418 638V80C418 36 383 0 339 0H116C72 0 37 36 37 80V638C37 682 72 718 116 718ZM284 163V555C284 585 258 611 227 611C197 611 171 585 171 555V163C171 133 197 107 227 107C258 107 284 133 284 163Z" glyph-name="oacute" horiz-adv-x="455" unicode="&#243;" /><glyph d="M291 862C284 862 280 859 277 852C268 832 254 821 231 821C208 821 194 832 185 852C182 859 178 862 171 862H137C129 862 125 857 127 849C142 800 183 768 231 768C279 768 320 800 335 849C337 857 333 862 325 862ZM116 718H339C383 718 418 682 418 638V80C418 36 383 0 339 0H116C72 0 37 36 37 80V638C37 682 72 718 116 718ZM284 163V555C284 585 258 611 227 611C197 611 171 585 171 555V163C171 133 197 107 227 107C258 107 284 133 284 163Z" glyph-name="obreve" horiz-adv-x="455" unicode="&#335;" /><glyph d="M139 775C134 766 137 760 147 760H186C192 760 198 765 200 769L230 819L262 769C265 764 270 760 276 760H315C325 760 329 766 323 775L272 861C268 868 264 869 258 869H205C199 869 195 868 191 861ZM116 718H339C383 718 418 682 418 638V80C418 36 383 0 339 0H116C72 0 37 36 37 80V638C37 682 72 718 116 718ZM284 163V555C284 585 258 611 227 611C197 611 171 585 171 555V163C171 133 197 107 227 107C258 107 284 133 284 163Z" glyph-name="ocircumflex" horiz-adv-x="455" unicode="&#244;" /><glyph d="M135 790C135 782 139 778 147 778H197C205 778 209 782 209 790V839C209 847 205 851 197 851H147C139 851 135 847 135 839ZM253 790C253 782 257 778 265 778H315C323 778 327 782 327 790V839C327 847 323 851 315 851H265C257 851 253 847 253 839ZM116 718H339C383 718 418 682 418 638V80C418 36 383 0 339 0H116C72 0 37 36 37 80V638C37 682 72 718 116 718ZM284 163V555C284 585 258 611 227 611C197 611 171 585 171 555V163C171 133 197 107 227 107C258 107 284 133 284 163Z" glyph-name="odieresis" horiz-adv-x="455" unicode="&#246;" /><glyph d="M589 0C597 0 601 4 601 12V104C601 112 597 116 589 116H430V304H539C547 304 551 308 551 316V414C551 422 547 426 539 426H430V602H582C590 602 594 606 594 614V706C594 714 590 718 582 718H118C74 718 39 682 39 638V80C39 36 74 0 118 0ZM229 107C199 107 173 133 173 163V555C173 585 199 611 229 611C260 611 286 585 286 555V163C286 133 260 107 229 107Z" glyph-name="oe" horiz-adv-x="610" unicode="&#339;" /><glyph d="M229 -118C229 -93 261 -36 293 -5C299 1 301 1 301 12L243 6C198 -34 172 -80 172 -118C172 -155 197 -181 236 -181C275 -181 301 -152 301 -119C301 -112 298 -109 294 -109H256C253 -109 250 -111 250 -115C250 -125 247 -133 239 -133C233 -133 229 -128 229 -118Z" glyph-name="ogonek" horiz-adv-x="501" unicode="&#731;" /><glyph d="M132 854 199 767C203 762 207 760 213 760H244C253 760 257 766 253 774L213 860C210 866 205 869 199 869H139C129 869 126 862 132 854ZM116 718H339C383 718 418 682 418 638V80C418 36 383 0 339 0H116C72 0 37 36 37 80V638C37 682 72 718 116 718ZM284 163V555C284 585 258 611 227 611C197 611 171 585 171 555V163C171 133 197 107 227 107C258 107 284 133 284 163Z" glyph-name="ograve" horiz-adv-x="455" unicode="&#242;" /><glyph d="M268 869H208C202 869 197 866 194 860L154 774C150 766 154 760 163 760H194C200 760 204 762 208 767L275 854C281 862 278 869 268 869ZM380 869H320C314 869 309 866 306 860L266 774C262 766 266 760 275 760H306C312 760 316 762 320 767L387 854C393 862 390 869 380 869ZM116 718H339C383 718 418 682 418 638V80C418 36 383 0 339 0H116C72 0 37 36 37 80V638C37 682 72 718 116 718ZM284 163V555C284 585 258 611 227 611C197 611 171 585 171 555V163C171 133 197 107 227 107C258 107 284 133 284 163Z" glyph-name="ohungarumlaut" horiz-adv-x="455" unicode="&#337;" /><glyph d="M124 795C124 787 128 783 136 783H326C334 783 338 787 338 795V834C338 842 334 846 326 846H136C128 846 124 842 124 834ZM116 718H339C383 718 418 682 418 638V80C418 36 383 0 339 0H116C72 0 37 36 37 80V638C37 682 72 718 116 718ZM284 163V555C284 585 258 611 227 611C197 611 171 585 171 555V163C171 133 197 107 227 107C258 107 284 133 284 163Z" glyph-name="omacron" horiz-adv-x="455" unicode="&#333;" /><glyph d="M37 12C37 4 41 0 49 0H155C163 0 167 4 167 12V706C167 714 163 718 155 718H117C111 718 106 717 102 713C81 685 67 671 46 658C41 655 37 651 37 644Z" glyph-name="one" horiz-adv-x="204" unicode="1" /><glyph d="M270 116V706C270 714 266 718 258 718H198C189 718 186 717 183 708C162 654 126 609 45 609C37 609 33 605 33 597V517C33 509 37 505 45 505H140V116H43C35 116 31 112 31 104V12C31 4 35 0 43 0H358C366 0 370 4 370 12V104C370 112 366 116 358 116Z" glyph-name="one.LT" horiz-adv-x="400" /><glyph d="M62 -9C62 -12 64 -14 67 -14H133C136 -14 138 -12 138 -9V302C138 305 136 307 133 307H96C94 307 92 307 90 305C81 293 75 287 66 281C64 280 62 278 62 275Z" glyph-name="one.dnom" horiz-adv-x="200" /><glyph d="M62 416C62 413 64 411 67 411H133C136 411 138 413 138 416V727C138 730 136 732 133 732H96C94 732 92 732 90 730C81 718 75 712 66 706C64 705 62 703 62 700Z" glyph-name="one.numr" horiz-adv-x="200" /><glyph d="M300 -14C354 -14 394 21 394 72C394 114 372 134 346 154C368 172 383 194 383 227C383 275 350 307 300 307C250 307 217 275 217 227C217 194 233 172 255 154C228 132 206 114 206 72C206 21 250 -14 300 -14ZM62 416C62 413 64 411 67 411H133C136 411 138 413 138 416V727C138 730 136 732 133 732H96C94 732 92 732 90 730C81 718 75 712 66 706C64 705 62 703 62 700ZM343 732C339 732 336 731 334 726L22 -7C20 -11 21 -14 26 -14H59C63 -14 65 -12 67 -8L378 724C380 728 379 732 374 732ZM300 30C289 30 274 40 274 66C274 89 284 108 300 120C317 108 327 89 327 66C327 40 312 30 300 30ZM300 186C287 196 280 214 280 233C280 249 287 263 300 263C314 263 320 249 320 233C320 214 313 196 300 186Z" glyph-name="oneeighth" horiz-adv-x="400" unicode="&#8539;" /><glyph d="M100 -14C154 -14 194 21 194 72C194 114 172 134 146 154C168 172 183 194 183 227C183 275 150 307 100 307C50 307 17 275 17 227C17 194 33 172 55 154C28 132 6 114 6 72C6 21 50 -14 100 -14ZM62 416C62 413 64 411 67 411H133C136 411 138 413 138 416V727C138 730 136 732 133 732H96C94 732 92 732 90 730C81 718 75 712 66 706C64 705 62 703 62 700ZM195 341C198 341 200 343 200 346V371C200 375 198 377 195 377H5C2 377 0 375 0 371V346C0 343 2 341 5 341ZM100 30C89 30 74 40 74 66C74 89 84 108 100 120C117 108 127 89 127 66C127 40 112 30 100 30ZM100 186C87 196 80 214 80 233C80 249 87 263 100 263C114 263 120 249 120 233C120 214 113 196 100 186Z" glyph-name="oneeighth.alt" horiz-adv-x="200" /><glyph d="M20 81C17 81 15 79 15 76C17 24 43 -14 97 -14C148 -14 186 17 186 92C186 167 151 196 110 196C96 196 88 193 80 189L85 247H170C174 247 176 249 176 252V302C176 305 175 307 171 307H39C36 307 34 305 34 302L18 136C18 133 19 131 22 130L65 119C68 118 71 119 72 122C77 133 83 139 93 139C109 139 114 122 114 90C114 54 109 40 97 40C88 40 83 48 81 75C81 79 79 81 76 81ZM62 416C62 413 64 411 67 411H133C136 411 138 413 138 416V727C138 730 136 732 133 732H96C94 732 92 732 90 730C81 718 75 712 66 706C64 705 62 703 62 700ZM195 341C198 341 200 343 200 346V371C200 375 198 377 195 377H5C2 377 0 375 0 371V346C0 343 2 341 5 341Z" glyph-name="onefifth.alt" horiz-adv-x="200" /><glyph d="M204 -9C204 -12 205 -14 209 -14H365C368 -14 370 -12 370 -9V39C370 42 368 44 365 44H291C331 92 372 165 372 224C372 269 347 307 293 307C234 307 207 264 206 212C206 209 207 206 210 206H266C270 206 271 208 271 212C272 243 279 253 288 253C302 253 303 233 303 221C303 158 246 99 205 30C204 28 204 26 204 24ZM62 416C62 413 64 411 67 411H133C136 411 138 413 138 416V727C138 730 136 732 133 732H96C94 732 92 732 90 730C81 718 75 712 66 706C64 705 62 703 62 700ZM331 732C327 732 324 731 322 726L10 -7C8 -11 9 -14 14 -14H47C51 -14 53 -12 55 -8L366 724C368 728 367 732 362 732Z" glyph-name="onehalf" horiz-adv-x="400" unicode="&#189;" /><glyph d="M14 -9C14 -12 15 -14 19 -14H175C178 -14 180 -12 180 -9V39C180 42 178 44 175 44H101C141 92 182 165 182 224C182 269 157 307 103 307C44 307 17 264 16 212C16 209 17 206 20 206H76C80 206 81 208 81 212C82 243 89 253 98 253C112 253 113 233 113 221C113 158 56 99 15 30C14 28 14 26 14 24ZM62 416C62 413 64 411 67 411H133C136 411 138 413 138 416V727C138 730 136 732 133 732H96C94 732 92 732 90 730C81 718 75 712 66 706C64 705 62 703 62 700ZM195 341C198 341 200 343 200 346V371C200 375 198 377 195 377H5C2 377 0 375 0 371V346C0 343 2 341 5 341Z" glyph-name="onehalf.alt" horiz-adv-x="200" /><glyph d="M62 -59C62 -62 64 -64 67 -64H133C136 -64 138 -62 138 -59V252C138 255 136 257 133 257H96C94 257 92 257 90 255C81 243 75 237 66 231C64 230 62 228 62 225Z" glyph-name="oneinferior" horiz-adv-x="200" unicode="&#8321;" /><glyph d="M93 -14C149 -14 186 33 186 159C186 282 140 307 99 307C45 307 14 266 14 195C14 138 41 108 82 108C97 108 107 113 116 122C115 62 112 40 96 40C85 40 81 50 81 69C81 73 79 75 75 75H22C19 75 17 73 17 69C17 34 40 -14 93 -14ZM62 416C62 413 64 411 67 411H133C136 411 138 413 138 416V727C138 730 136 732 133 732H96C94 732 92 732 90 730C81 718 75 712 66 706C64 705 62 703 62 700ZM195 341C198 341 200 343 200 346V371C200 375 198 377 195 377H5C2 377 0 375 0 371V346C0 343 2 341 5 341ZM99 162C89 162 83 173 83 200C83 231 85 253 99 253C112 253 115 231 115 200C115 174 110 162 99 162Z" glyph-name="oneninth.alt" horiz-adv-x="200" /><glyph d="M180 50C180 47 182 45 186 45H285V-9C285 -12 286 -14 290 -14H336C339 -14 341 -12 341 -9V45H370C374 45 375 47 375 50V94C375 98 374 99 370 99H341V302C341 305 339 307 336 307H268C265 307 263 306 262 303L181 94C180 92 180 90 180 88ZM62 416C62 413 64 411 67 411H133C136 411 138 413 138 416V727C138 730 136 732 133 732H96C94 732 92 732 90 730C81 718 75 712 66 706C64 705 62 703 62 700ZM343 732C339 732 336 731 334 726L22 -7C20 -11 21 -14 26 -14H59C63 -14 65 -12 67 -8L378 724C380 728 379 732 374 732ZM241 100 285 218V100Z" glyph-name="onequarter" horiz-adv-x="400" unicode="&#188;" /><glyph d="M0 50C0 47 2 45 6 45H105V-9C105 -12 106 -14 110 -14H156C159 -14 161 -12 161 -9V45H190C194 45 195 47 195 50V94C195 98 194 99 190 99H161V302C161 305 159 307 156 307H88C85 307 83 306 82 303L1 94C0 92 0 90 0 88ZM62 416C62 413 64 411 67 411H133C136 411 138 413 138 416V727C138 730 136 732 133 732H96C94 732 92 732 90 730C81 718 75 712 66 706C64 705 62 703 62 700ZM195 341C198 341 200 343 200 346V371C200 375 198 377 195 377H5C2 377 0 375 0 371V346C0 343 2 341 5 341ZM61 100 105 218V100Z" glyph-name="onequarter.alt" horiz-adv-x="200" /><glyph d="M19 252C19 248 21 247 24 247H112C80 162 57 87 51 -9C51 -12 52 -14 56 -14H122C125 -14 127 -12 127 -9C130 91 149 172 180 265C181 268 181 272 181 276V302C181 305 179 307 176 307H24C21 307 19 305 19 302ZM62 416C62 413 64 411 67 411H133C136 411 138 413 138 416V727C138 730 136 732 133 732H96C94 732 92 732 90 730C81 718 75 712 66 706C64 705 62 703 62 700ZM195 341C198 341 200 343 200 346V371C200 375 198 377 195 377H5C2 377 0 375 0 371V346C0 343 2 341 5 341Z" glyph-name="oneseventh.alt" horiz-adv-x="200" /><glyph d="M186 98C186 155 159 185 118 185C103 185 93 180 84 171C85 231 88 253 104 253C115 253 119 243 119 224C119 220 121 218 125 218H178C181 218 183 220 183 224C183 259 160 307 107 307C51 307 14 260 14 134C14 11 60 -14 101 -14C155 -14 186 27 186 98ZM62 416C62 413 64 411 67 411H133C136 411 138 413 138 416V727C138 730 136 732 133 732H96C94 732 92 732 90 730C81 718 75 712 66 706C64 705 62 703 62 700ZM195 341C198 341 200 343 200 346V371C200 375 198 377 195 377H5C2 377 0 375 0 371V346C0 343 2 341 5 341ZM101 131C111 131 117 120 117 93C117 62 115 40 101 40C88 40 85 62 85 93C85 119 90 131 101 131Z" glyph-name="onesixth.alt" horiz-adv-x="200" /><glyph d="M62 466C62 463 64 461 67 461H133C136 461 138 463 138 466V777C138 780 136 782 133 782H96C94 782 92 782 90 780C81 768 75 762 66 756C64 755 62 753 62 750Z" glyph-name="onesuperior" horiz-adv-x="200" unicode="&#185;" /><glyph d="M60 -9C60 -12 62 -14 65 -14H131C134 -14 136 -12 136 -9V302C136 305 134 307 131 307H94C92 307 90 307 88 305C79 293 73 287 64 281C62 280 60 278 60 275ZM162 416C162 413 164 411 167 411H233C236 411 238 413 238 416V727C238 730 236 732 233 732H196C194 732 192 732 190 730C181 718 175 712 166 706C164 705 162 703 162 700ZM395 341C398 341 400 343 400 346V371C400 375 398 377 395 377H5C2 377 0 375 0 371V346C0 343 2 341 5 341ZM280 307C217 307 189 257 189 147C189 37 217 -14 280 -14C343 -14 371 37 371 147C371 257 343 307 280 307ZM280 253C296 253 302 226 302 147C302 67 296 40 280 40C264 40 258 67 258 147C258 226 264 253 280 253Z" glyph-name="onetenth.alt" horiz-adv-x="400" /><glyph d="M300 -14C350 -14 386 18 386 76C386 108 375 140 340 153C371 171 380 203 380 227C380 269 354 307 300 307C248 307 225 268 218 220C217 216 219 214 222 214H276C279 214 281 216 281 219C281 240 287 253 297 253C308 253 314 244 314 224C314 195 304 176 264 176C260 176 258 174 258 171V127C258 124 260 122 263 122C305 122 316 107 316 79C316 51 308 40 297 40C286 40 278 52 278 74C278 78 277 80 273 80H219C216 80 214 78 214 74C214 35 242 -14 300 -14ZM62 416C62 413 64 411 67 411H133C136 411 138 413 138 416V727C138 730 136 732 133 732H96C94 732 92 732 90 730C81 718 75 712 66 706C64 705 62 703 62 700ZM343 732C339 732 336 731 334 726L22 -7C20 -11 21 -14 26 -14H59C63 -14 65 -12 67 -8L378 724C380 728 379 732 374 732Z" glyph-name="onethird" horiz-adv-x="400" unicode="&#8531;" /><glyph d="M100 -14C150 -14 186 18 186 76C186 108 175 140 140 153C171 171 180 203 180 227C180 269 154 307 100 307C48 307 25 268 18 220C17 216 19 214 22 214H76C79 214 81 216 81 219C81 240 87 253 97 253C108 253 114 244 114 224C114 195 104 176 64 176C60 176 58 174 58 171V127C58 124 60 122 63 122C105 122 116 107 116 79C116 51 108 40 97 40C86 40 78 52 78 74C78 78 77 80 73 80H19C16 80 14 78 14 74C14 35 42 -14 100 -14ZM62 416C62 413 64 411 67 411H133C136 411 138 413 138 416V727C138 730 136 732 133 732H96C94 732 92 732 90 730C81 718 75 712 66 706C64 705 62 703 62 700ZM195 341C198 341 200 343 200 346V371C200 375 198 377 195 377H5C2 377 0 375 0 371V346C0 343 2 341 5 341Z" glyph-name="onethird.alt" horiz-adv-x="200" /><glyph d="M163 434C164 426 167 422 175 422H208C216 422 220 426 220 434V713C220 721 216 725 208 725H175C167 725 164 721 163 713L161 691C147 716 128 732 102 732C46 732 13 673 13 574C13 474 46 415 103 415C128 415 148 431 161 455ZM114 678C134 678 149 643 149 574C149 504 134 469 114 469C96 469 85 508 85 574C85 639 96 678 114 678Z" glyph-name="ordfeminine" horiz-adv-x="231" unicode="&#170;" /><glyph d="M12 574C12 474 47 415 113 415C179 415 214 474 214 574C214 673 179 732 113 732C47 732 12 673 12 574ZM142 574C142 508 131 469 113 469C95 469 84 508 84 574C84 639 95 678 113 678C131 678 142 639 142 574Z" glyph-name="ordmasculine" horiz-adv-x="226" unicode="&#186;" /><glyph d="M37 638V80C37 36 72 0 116 0H339C383 0 418 36 418 80V638C418 682 383 718 339 718H116C72 718 37 682 37 638ZM171 555C171 585 197 611 227 611C258 611 284 585 284 555V542L171 310ZM227 107C197 107 171 133 171 163V175L284 408V163C284 133 258 107 227 107Z" glyph-name="oslash" horiz-adv-x="455" unicode="&#248;" /><glyph d="M319 869H259C253 869 248 866 245 860L205 774C201 766 205 760 214 760H245C251 760 255 762 259 767L326 854C332 862 329 869 319 869ZM37 638V80C37 36 72 0 116 0H339C383 0 418 36 418 80V638C418 682 383 718 339 718H116C72 718 37 682 37 638ZM171 555C171 585 197 611 227 611C258 611 284 585 284 555V542L171 310ZM227 107C197 107 171 133 171 163V175L284 408V163C284 133 258 107 227 107Z" glyph-name="oslashacute" horiz-adv-x="455" unicode="&#511;" /><glyph d="M314 858C308 860 304 858 300 852C290 833 282 829 270 829C243 829 222 858 189 858C163 858 131 841 117 798C116 792 118 788 123 785L148 772C154 770 158 772 162 778C172 797 180 801 192 801C218 801 240 772 273 772C299 772 331 789 345 832C346 838 344 842 339 845ZM116 718H339C383 718 418 682 418 638V80C418 36 383 0 339 0H116C72 0 37 36 37 80V638C37 682 72 718 116 718ZM284 163V555C284 585 258 611 227 611C197 611 171 585 171 555V163C171 133 197 107 227 107C258 107 284 133 284 163Z" glyph-name="otilde" horiz-adv-x="455" unicode="&#245;" /><glyph d="M37 12C37 4 41 0 49 0H169C177 0 181 4 181 12V285H216C339 285 405 360 405 502C405 650 332 718 174 718H49C41 718 37 714 37 706ZM182 602C229 602 261 596 261 499C261 413 236 395 182 395Z" glyph-name="p" horiz-adv-x="410" unicode="p" /><glyph d="M207 12C207 4 211 0 219 0H275C283 0 287 4 287 12V634H357V12C357 4 361 0 369 0H425C433 0 437 4 437 12V706C437 714 433 718 425 718H237C89 718 5 652 5 541C5 432 77 365 207 362Z" glyph-name="paragraph" horiz-adv-x="474" unicode="&#182;" /><glyph d="M234 821C228 826 221 824 217 818C125 687 72 517 72 359C72 201 125 31 217 -100C221 -106 228 -108 234 -103L274 -74C280 -69 282 -64 278 -57C199 72 153 233 153 359C153 485 199 646 278 775C282 782 280 787 274 792Z" glyph-name="parenleft" horiz-adv-x="300" unicode="(" /><glyph d="M101 345C98 347 95 346 93 343C54 287 31 214 31 146C31 78 54 5 93 -51C95 -54 98 -55 101 -53L118 -40C120 -38 121 -36 120 -33C86 23 66 92 66 146C66 200 86 269 120 325C121 328 120 330 118 332Z" glyph-name="parenleft.dnom" horiz-adv-x="129" /><glyph d="M101 770C98 772 95 771 93 768C54 712 31 639 31 571C31 503 54 430 93 374C95 371 98 370 101 372L118 385C120 387 121 389 120 392C86 448 66 517 66 571C66 625 86 694 120 750C121 753 120 755 118 757Z" glyph-name="parenleft.numr" horiz-adv-x="129" /><glyph d="M101 295C98 297 95 296 93 293C54 237 31 164 31 96C31 28 54 -45 93 -101C95 -104 98 -105 101 -103L118 -90C120 -88 121 -86 120 -83C86 -27 66 42 66 96C66 150 86 219 120 275C121 278 120 280 118 282Z" glyph-name="parenleftinferior" horiz-adv-x="129" unicode="&#8333;" /><glyph d="M101 820C98 822 95 821 93 818C54 762 31 689 31 621C31 553 54 480 93 424C95 421 98 420 101 422L118 435C120 437 121 439 120 442C86 498 66 567 66 621C66 675 86 744 120 800C121 803 120 805 118 807Z" glyph-name="parenleftsuperior" horiz-adv-x="129" unicode="&#8317;" /><glyph d="M26 792C20 787 18 782 22 775C101 646 147 485 147 359C147 233 101 72 22 -57C18 -64 20 -69 26 -74L66 -103C72 -108 79 -106 83 -100C175 31 228 201 228 359C228 517 175 687 83 818C79 824 72 826 66 821Z" glyph-name="parenright" horiz-adv-x="300" unicode=")" /><glyph d="M28 345 11 332C9 330 8 328 9 325C43 269 63 200 63 146C63 92 43 23 9 -33C8 -36 9 -38 11 -40L28 -53C31 -55 34 -54 36 -51C75 5 98 78 98 146C98 214 75 287 36 343C34 346 31 347 28 345Z" glyph-name="parenright.dnom" horiz-adv-x="129" /><glyph d="M28 770 11 757C9 755 8 753 9 750C43 694 63 625 63 571C63 517 43 448 9 392C8 389 9 387 11 385L28 372C31 370 34 371 36 374C75 430 98 503 98 571C98 639 75 712 36 768C34 771 31 772 28 770Z" glyph-name="parenright.numr" horiz-adv-x="129" /><glyph d="M28 295 11 282C9 280 8 278 9 275C43 219 63 150 63 96C63 42 43 -27 9 -83C8 -86 9 -88 11 -90L28 -103C31 -105 34 -104 36 -101C75 -45 98 28 98 96C98 164 75 237 36 293C34 296 31 297 28 295Z" glyph-name="parenrightinferior" horiz-adv-x="129" unicode="&#8334;" /><glyph d="M28 820 11 807C9 805 8 803 9 800C43 744 63 675 63 621C63 567 43 498 9 442C8 439 9 437 11 435L28 422C31 420 34 421 36 424C75 480 98 553 98 621C98 689 75 762 36 818C34 821 31 822 28 820Z" glyph-name="parenrightsuperior" horiz-adv-x="129" unicode="&#8318;" /><glyph d="M172 0C309 0 385 149 385 430C385 701 280 808 176 808C111 808 70 781 44 760C39 755 38 750 40 744L63 664C65 654 72 653 79 660C101 684 127 704 161 704C225 704 268 589 268 479V469C254 487 225 507 185 507C97 507 15 407 15 235C15 112 71 0 172 0ZM133 227C133 316 163 404 203 404C234 404 254 373 261 342C255 232 226 107 183 107C154 107 133 156 133 227Z" glyph-name="partialdiff" horiz-adv-x="400" unicode="&#8706;" /><glyph d="M342 732C338 732 335 731 333 726L21 -7C19 -11 20 -14 25 -14H58C62 -14 64 -12 66 -8L377 724C379 728 378 732 373 732ZM99 732C36 732 8 682 8 572C8 462 36 411 99 411C162 411 190 462 190 572C190 682 162 732 99 732ZM99 678C115 678 121 651 121 572C121 492 115 465 99 465C83 465 77 492 77 572C77 651 83 678 99 678ZM299 307C236 307 208 257 208 147C208 37 236 -14 299 -14C362 -14 390 37 390 147C390 257 362 307 299 307ZM299 253C315 253 321 226 321 147C321 67 315 40 299 40C283 40 277 67 277 147C277 226 283 253 299 253Z" glyph-name="percent" horiz-adv-x="400" unicode="%" /><glyph d="M195 341C198 341 200 343 200 346V371C200 375 198 377 195 377H5C2 377 0 375 0 371V346C0 343 2 341 5 341ZM100 307C37 307 9 257 9 147C9 37 37 -14 100 -14C163 -14 191 37 191 147C191 257 163 307 100 307ZM100 253C116 253 122 226 122 147C122 67 116 40 100 40C84 40 78 67 78 147C78 226 84 253 100 253ZM100 732C37 732 9 682 9 572C9 462 37 411 100 411C163 411 191 462 191 572C191 682 163 732 100 732ZM100 678C116 678 122 651 122 572C122 492 116 465 100 465C84 465 78 492 78 572C78 651 84 678 100 678Z" glyph-name="percent.alt" horiz-adv-x="200" /><glyph d="M161 55C161 92 132 123 95 123C58 123 29 92 29 55C29 17 58 -14 95 -14C132 -14 161 17 161 55Z" glyph-name="period" horiz-adv-x="189" unicode="." /><glyph d="M69 16C69 32 57 45 41 45C25 45 13 32 13 16C13 0 25 -14 41 -14C57 -14 69 0 69 16Z" glyph-name="period.dnom" horiz-adv-x="81" /><glyph d="M69 441C69 457 57 470 41 470C25 470 13 457 13 441C13 425 25 411 41 411C57 411 69 425 69 441Z" glyph-name="period.numr" horiz-adv-x="81" /><glyph d="M161 366C161 403 132 434 95 434C58 434 29 403 29 366C29 328 58 297 95 297C132 297 161 328 161 366Z" glyph-name="periodcentered" horiz-adv-x="189" unicode="&#183;" /><glyph d="M69 -34C69 -18 57 -5 41 -5C25 -5 13 -18 13 -34C13 -50 25 -64 41 -64C57 -64 69 -50 69 -34Z" glyph-name="periodinferior" horiz-adv-x="81" unicode="&#63207;" /><glyph d="M69 491C69 507 57 520 41 520C25 520 13 507 13 491C13 475 25 461 41 461C57 461 69 475 69 491Z" glyph-name="periodsuperior" horiz-adv-x="81" unicode="&#63208;" /><glyph d="M343 732C339 732 336 731 334 726L22 -7C20 -11 21 -14 26 -14H59C63 -14 65 -12 67 -8L378 724C380 728 379 732 374 732ZM100 732C37 732 9 682 9 572C9 462 37 411 100 411C163 411 191 462 191 572C191 682 163 732 100 732ZM100 678C116 678 122 651 122 572C122 492 116 465 100 465C84 465 78 492 78 572C78 651 84 678 100 678ZM300 307C237 307 209 257 209 147C209 37 237 -14 300 -14C363 -14 391 37 391 147C391 257 363 307 300 307ZM300 253C316 253 322 226 322 147C322 67 316 40 300 40C284 40 278 67 278 147C278 226 284 253 300 253ZM500 307C437 307 409 257 409 147C409 37 437 -14 500 -14C563 -14 591 37 591 147C591 257 563 307 500 307ZM500 253C516 253 522 226 522 147C522 67 516 40 500 40C484 40 478 67 478 147C478 226 484 253 500 253Z" glyph-name="perthousand" horiz-adv-x="600" unicode="&#8240;" /><glyph d="M395 341C398 341 400 343 400 346V371C400 375 398 377 395 377H5C2 377 0 375 0 371V346C0 343 2 341 5 341ZM100 307C37 307 9 257 9 147C9 37 37 -14 100 -14C163 -14 191 37 191 147C191 257 163 307 100 307ZM100 253C116 253 122 226 122 147C122 67 116 40 100 40C84 40 78 67 78 147C78 226 84 253 100 253ZM200 732C137 732 109 682 109 572C109 462 137 411 200 411C263 411 291 462 291 572C291 682 263 732 200 732ZM200 678C216 678 222 651 222 572C222 492 216 465 200 465C184 465 178 492 178 572C178 651 184 678 200 678ZM300 307C237 307 209 257 209 147C209 37 237 -14 300 -14C363 -14 391 37 391 147C391 257 363 307 300 307ZM300 253C316 253 322 226 322 147C322 67 316 40 300 40C284 40 278 67 278 147C278 226 284 253 300 253Z" glyph-name="perthousand.alt" horiz-adv-x="400" /><glyph d="M421 82C382 82 374 107 374 157V416H447C455 416 459 420 459 428V520C459 528 456 532 448 532H13C5 532 2 528 2 520V428C2 420 6 416 14 416H89L64 12C64 4 68 0 76 0H173C181 0 185 4 185 12L206 416H256V160C256 76 299 -11 408 -11C427 -11 446 -7 456 -4C465 -1 466 4 466 11V70C466 78 462 82 454 82Z" glyph-name="pi" horiz-adv-x="466" unicode="&#960;" /><glyph d="M237 331H337C345 331 349 335 349 343V389C349 397 345 401 337 401H237V510C237 518 233 522 225 522H175C167 522 163 518 163 510V401H63C55 401 51 397 51 389V343C51 335 55 331 63 331H163V222C163 214 167 210 175 210H225C233 210 237 214 237 222Z" glyph-name="plus" horiz-adv-x="400" unicode="+" /><glyph d="M119 75V128H171C175 128 176 129 176 133V157C176 161 175 162 171 162H119V216C119 219 117 221 113 221H87C83 221 81 219 81 216V162H29C25 162 24 161 24 157V133C24 129 25 128 29 128H81V75C81 71 83 70 87 70H113C117 70 119 71 119 75Z" glyph-name="plus.dnom" horiz-adv-x="200" /><glyph d="M119 500V553H171C175 553 176 554 176 558V582C176 586 175 587 171 587H119V641C119 644 117 646 113 646H87C83 646 81 644 81 641V587H29C25 587 24 586 24 582V558C24 554 25 553 29 553H81V500C81 496 83 495 87 495H113C117 495 119 496 119 500Z" glyph-name="plus.numr" horiz-adv-x="200" /><glyph d="M119 25V78H171C175 78 176 79 176 83V107C176 111 175 112 171 112H119V166C119 169 117 171 113 171H87C83 171 81 169 81 166V112H29C25 112 24 111 24 107V83C24 79 25 78 29 78H81V25C81 21 83 20 87 20H113C117 20 119 21 119 25Z" glyph-name="plusinferior" horiz-adv-x="200" /><glyph d="M237 331H337C345 331 349 335 349 343V389C349 397 345 401 337 401H237V510C237 518 233 522 225 522H175C167 522 163 518 163 510V401H63C55 401 51 397 51 389V343C51 335 55 331 63 331H163V222C163 214 167 210 175 210H225C233 210 237 214 237 222ZM337 100C345 100 349 104 349 112V158C349 166 345 170 337 170H63C55 170 51 166 51 158V112C51 104 55 100 63 100Z" glyph-name="plusminus" horiz-adv-x="400" unicode="&#177;" /><glyph d="M119 550V603H171C175 603 176 604 176 608V632C176 636 175 637 171 637H119V691C119 694 117 696 113 696H87C83 696 81 694 81 691V637H29C25 637 24 636 24 632V608C24 604 25 603 29 603H81V550C81 546 83 545 87 545H113C117 545 119 546 119 550Z" glyph-name="plussuperior" horiz-adv-x="200" /><glyph d="M500 602C508 602 512 606 512 614V706C512 714 508 718 500 718H22C14 718 10 714 10 706V614C10 606 14 602 22 602H76V12C76 4 80 0 88 0H185C193 0 197 4 197 12V602H325V12C325 4 329 0 337 0H434C442 0 446 4 446 12V602Z" glyph-name="product" horiz-adv-x="522" unicode="&#8719;" /><glyph d="M347 0C381 7 418 46 418 85V638C418 682 383 718 339 718H116C72 718 37 682 37 638V80C37 36 72 0 116 0H217C224 -37 254 -122 366 -122H421C429 -122 433 -118 433 -110V-12C433 -4 429 0 421 0ZM171 159V559C171 590 196 616 227 616C259 616 284 590 284 559V159C284 128 259 102 227 102C196 102 171 128 171 159Z" glyph-name="q" horiz-adv-x="462" unicode="q" /><glyph d="M141 213C141 205 145 201 153 201H221C229 201 233 205 233 213V222C233 396 346 434 346 568C346 685 259 732 176 732C64 732 10 647 8 541C8 533 12 529 20 529H118C126 529 130 533 130 541C134 598 150 622 178 622C205 622 216 599 216 559C216 454 141 381 141 245ZM187 123C150 123 121 92 121 55C121 17 150 -14 187 -14C224 -14 253 17 253 55C253 92 224 123 187 123Z" glyph-name="question" horiz-adv-x="356" unicode="?" /><glyph d="M216 505C216 513 212 517 204 517H136C128 517 124 513 124 505V496C124 322 11 284 11 150C11 33 98 -14 181 -14C293 -14 347 71 349 177C349 185 345 189 337 189H239C231 189 227 185 227 177C223 120 207 96 179 96C152 96 141 119 141 159C141 264 216 337 216 473ZM170 595C207 595 236 626 236 663C236 701 207 732 170 732C133 732 104 701 104 663C104 626 133 595 170 595Z" glyph-name="questiondown" horiz-adv-x="356" unicode="&#191;" /><glyph d="M122 520V704C122 712 119 718 109 718H55C45 718 42 712 42 704V520C42 512 45 506 55 506H109C119 506 122 512 122 520ZM244 520V704C244 712 241 718 231 718H177C167 718 164 712 164 704V520C164 512 167 506 177 506H231C241 506 244 512 244 520Z" glyph-name="quotedbl" horiz-adv-x="286" unicode="&quot;" /><glyph d="M93 -114C101 -114 105 -112 107 -104L179 153C181 161 177 167 169 167H79C71 167 66 166 65 158L19 -100C18 -107 22 -114 30 -114ZM241 -114C249 -114 253 -112 255 -104L327 153C329 161 325 167 317 167H227C219 167 214 166 213 158L167 -100C166 -107 170 -114 178 -114Z" glyph-name="quotedblbase" horiz-adv-x="328" unicode="&#8222;" /><glyph d="M106 832C98 832 94 830 92 822L20 565C18 557 22 551 30 551H120C128 551 133 552 134 560L180 818C181 825 177 832 169 832ZM253 832C245 832 241 830 239 822L167 565C165 557 169 551 177 551H267C275 551 280 552 281 560L327 818C328 825 324 832 316 832Z" glyph-name="quotedblleft" horiz-adv-x="328" unicode="&#8220;" /><glyph d="M93 551C101 551 105 553 107 561L179 818C181 826 177 832 169 832H79C71 832 66 831 65 823L19 565C18 558 22 551 30 551ZM241 551C249 551 253 553 255 561L327 818C329 826 325 832 317 832H227C219 832 214 831 213 823L167 565C166 558 170 551 178 551Z" glyph-name="quotedblright" horiz-adv-x="328" unicode="&#8221;" /><glyph d="M106 832C98 832 94 830 92 822L20 565C18 557 22 551 30 551H120C128 551 133 552 134 560L180 818C181 825 177 832 169 832Z" glyph-name="quoteleft" horiz-adv-x="180" unicode="&#8216;" /><glyph d="M93 551C101 551 105 553 107 561L179 818C181 826 177 832 169 832H79C71 832 66 831 65 823L19 565C18 558 22 551 30 551Z" glyph-name="quoteright" horiz-adv-x="180" unicode="&#8217;" /><glyph d="M93 -114C101 -114 105 -112 107 -104L179 153C181 161 177 167 169 167H79C71 167 66 166 65 158L19 -100C18 -107 22 -114 30 -114Z" glyph-name="quotesinglbase" horiz-adv-x="180" unicode="&#8218;" /><glyph d="M122 520V704C122 712 119 718 109 718H55C45 718 42 712 42 704V520C42 512 45 506 55 506H109C119 506 122 512 122 520Z" glyph-name="quotesingle" horiz-adv-x="164" unicode="'" /><glyph d="M181 12V306H197L263 11C265 4 269 0 277 0H397C406 0 410 5 408 13L323 336C389 382 403 453 403 513C403 670 310 718 190 718H49C41 718 37 714 37 706V12C37 4 41 0 49 0H169C177 0 181 4 181 12ZM181 608H194C232 608 259 579 259 512C259 459 242 416 200 416H181Z" glyph-name="r" horiz-adv-x="416" unicode="r" /><glyph d="M181 12V306H197L263 11C265 4 269 0 277 0H397C406 0 410 5 408 13L323 336C389 382 403 453 403 513C403 670 310 718 190 718H49C41 718 37 714 37 706V12C37 4 41 0 49 0H169C177 0 181 4 181 12ZM292 869H232C226 869 221 866 218 860L178 774C174 766 178 760 187 760H218C224 760 228 762 232 767L299 854C305 862 302 869 292 869ZM181 608H194C232 608 259 579 259 512C259 459 242 416 200 416H181Z" glyph-name="racute" horiz-adv-x="416" unicode="&#341;" /><glyph d="M331 718C323 718 319 714 318 707L227 197H219L162 408C160 416 155 419 145 419H23C15 419 11 415 11 407V329C11 321 15 317 23 317H85L173 10C175 3 179 0 186 0H271C279 0 283 4 284 11L417 705C419 713 415 718 406 718Z" glyph-name="radical" horiz-adv-x="454" unicode="&#8730;" /><glyph d="M181 12V306H197L263 11C265 4 269 0 277 0H397C406 0 410 5 408 13L323 336C389 382 403 453 403 513C403 670 310 718 190 718H49C41 718 37 714 37 706V12C37 4 41 0 49 0H169C177 0 181 4 181 12ZM163 768C167 761 171 760 177 760H230C236 760 240 761 244 768L295 854C301 863 297 869 287 869H248C242 869 237 865 234 860L202 810L172 860C170 864 164 869 158 869H119C109 869 106 863 111 854ZM181 608H194C232 608 259 579 259 512C259 459 242 416 200 416H181Z" glyph-name="rcaron" horiz-adv-x="416" unicode="&#345;" /><glyph d="M181 12V306H197L263 11C265 4 269 0 277 0H397C406 0 410 5 408 13L323 336C389 382 403 453 403 513C403 670 310 718 190 718H49C41 718 37 714 37 706V12C37 4 41 0 49 0H169C177 0 181 4 181 12ZM166 -181H203C210 -181 212 -179 215 -171L254 -56C257 -48 252 -42 245 -42H189C182 -42 177 -43 176 -51L156 -167C155 -174 159 -181 166 -181ZM181 608H194C232 608 259 579 259 512C259 459 242 416 200 416H181Z" glyph-name="rcommaaccent" horiz-adv-x="416" unicode="&#343;" /><glyph d="M296 410H316L346 278C347 275 349 273 353 273H407C410 273 412 275 411 279L373 423C403 443 409 476 409 502C409 573 358 594 304 594H236C234 594 232 592 232 588V279C232 275 234 273 236 273H290C294 273 296 275 296 279ZM319 732C146 732 23 608 23 433C23 258 146 134 319 134C492 134 615 258 615 433C615 608 492 732 319 732ZM319 200C188 200 96 297 96 433C96 569 188 666 319 666C450 666 542 569 542 433C542 297 450 200 319 200ZM296 545H311C328 545 344 532 344 502C344 478 332 459 314 459H296Z" glyph-name="registered" horiz-adv-x="638" unicode="&#174;" /><glyph d="M39 -48C60 -48 76 -29 76 19V288C76 293 73 295 70 295H54C50 295 48 293 48 288V19C48 -7 45 -18 39 -18C33 -18 29 -9 29 8C29 19 30 34 34 47C35 51 35 56 31 57L17 62C14 63 9 60 8 56C3 40 1 16 1 4C1 -34 19 -48 39 -48ZM119 9H153C158 9 160 12 160 16C160 50 155 77 152 90C151 96 148 98 142 96L134 94C129 93 128 88 129 83C131 74 134 51 134 39H124C117 39 116 49 116 68V288C116 293 113 295 110 295H94C91 295 88 293 88 288V54C88 20 100 9 119 9ZM109 -72C117 -81 132 -91 149 -91C185 -91 199 -48 199 2C199 29 195 56 192 72C191 77 187 78 183 77L172 74C169 73 166 71 167 65C170 47 174 22 174 -2C174 -36 168 -65 149 -65C139 -65 134 -58 126 -51C122 -47 118 -48 116 -51L109 -60C106 -64 105 -68 109 -72ZM118 -25C120 -22 120 -21 118 -18L107 -3C105 -1 102 -1 100 -3L88 -18C86 -20 86 -22 88 -25L100 -40C102 -42 105 -42 107 -40ZM160 -25C162 -22 162 -21 160 -18L149 -3C147 -1 144 -1 142 -3L130 -18C128 -20 128 -22 130 -25L142 -40C144 -42 147 -42 149 -40Z" glyph-name="rial.dnom" horiz-adv-x="200" /><glyph d="M39 377C60 377 76 396 76 444V713C76 718 73 720 70 720H54C50 720 48 718 48 713V444C48 418 45 407 39 407C33 407 29 416 29 433C29 444 30 459 34 472C35 476 35 481 31 482L17 487C14 488 9 485 8 481C3 465 1 441 1 429C1 391 19 377 39 377ZM119 434H153C158 434 160 437 160 441C160 475 155 502 152 515C151 521 148 523 142 521L134 519C129 518 128 513 129 508C131 499 134 476 134 464H124C117 464 116 474 116 493V713C116 718 113 720 110 720H94C91 720 88 718 88 713V479C88 445 100 434 119 434ZM109 353C117 344 132 334 149 334C185 334 199 377 199 427C199 454 195 481 192 497C191 502 187 503 183 502L172 499C169 498 166 496 167 490C170 472 174 447 174 423C174 389 168 360 149 360C139 360 134 367 126 374C122 378 118 377 116 374L109 365C106 361 105 357 109 353ZM118 400C120 403 120 404 118 407L107 422C105 424 102 424 100 422L88 407C86 405 86 403 88 400L100 385C102 383 105 383 107 385ZM160 400C162 403 162 404 160 407L149 422C147 424 144 424 142 422L130 407C128 405 128 403 130 400L142 385C144 383 147 383 149 385Z" glyph-name="rial.numr" horiz-adv-x="200" /><glyph d="M39 -93C60 -93 76 -74 76 -26V243C76 248 73 250 70 250H54C50 250 48 248 48 243V-26C48 -52 45 -63 39 -63C33 -63 29 -54 29 -37C29 -26 30 -11 34 2C35 6 35 11 31 12L17 17C14 18 9 15 8 11C3 -5 1 -29 1 -41C1 -79 19 -93 39 -93ZM119 -36H153C158 -36 160 -33 160 -29C160 5 155 32 152 45C151 51 148 53 142 51L134 49C129 48 128 43 129 38C131 29 134 6 134 -6H124C117 -6 116 4 116 23V243C116 248 113 250 110 250H94C91 250 88 248 88 243V9C88 -25 100 -36 119 -36ZM109 -117C117 -126 132 -136 149 -136C185 -136 199 -93 199 -43C199 -16 195 11 192 27C191 32 187 33 183 32L172 29C169 28 166 26 167 20C170 2 174 -23 174 -47C174 -81 168 -110 149 -110C139 -110 134 -103 126 -96C122 -92 118 -93 116 -96L109 -105C106 -109 105 -113 109 -117ZM118 -70C120 -67 120 -66 118 -63L107 -48C105 -46 102 -46 100 -48L88 -63C86 -65 86 -67 88 -70L100 -85C102 -87 105 -87 107 -85ZM160 -70C162 -67 162 -66 160 -63L149 -48C147 -46 144 -46 142 -48L130 -63C128 -65 128 -67 130 -70L142 -85C144 -87 147 -87 149 -85Z" glyph-name="rialinferior" horiz-adv-x="200" /><glyph d="M39 432C60 432 76 451 76 499V768C76 773 73 775 70 775H54C50 775 48 773 48 768V499C48 473 45 462 39 462C33 462 29 471 29 488C29 499 30 514 34 527C35 531 35 536 31 537L17 542C14 543 9 540 8 536C3 520 1 496 1 484C1 446 19 432 39 432ZM119 489H153C158 489 160 492 160 496C160 530 155 557 152 570C151 576 148 578 142 576L134 574C129 573 128 568 129 563C131 554 134 531 134 519H124C117 519 116 529 116 548V768C116 773 113 775 110 775H94C91 775 88 773 88 768V534C88 500 100 489 119 489ZM109 408C117 399 132 389 149 389C185 389 199 432 199 482C199 509 195 536 192 552C191 557 187 558 183 557L172 554C169 553 166 551 167 545C170 527 174 502 174 478C174 444 168 415 149 415C139 415 134 422 126 429C122 433 118 432 116 429L109 420C106 416 105 412 109 408ZM118 455C120 458 120 459 118 462L107 477C105 479 102 479 100 477L88 462C86 460 86 458 88 455L100 440C102 438 105 438 107 440ZM160 455C162 458 162 459 160 462L149 477C147 479 144 479 142 477L130 462C128 460 128 458 130 455L142 440C144 438 147 438 149 440Z" glyph-name="rialsuperior" horiz-adv-x="200" /><glyph d="M307 815C307 847 282 874 250 874C218 874 193 847 193 815C193 782 218 755 250 755C282 755 307 782 307 815ZM224 815C224 829 235 841 250 841C264 841 276 829 276 815C276 800 264 788 250 788C235 788 224 800 224 815Z" glyph-name="ring" horiz-adv-x="500" unicode="&#730;" /><glyph d="M88 -14V58H141C144 58 146 59 146 63V78C146 82 144 83 141 83H88V122H92C153 122 176 152 176 210C176 268 146 295 85 295H61C58 295 56 293 56 290V147H30C26 147 24 145 24 142V127C24 123 26 122 30 122H56V83H30C26 83 24 82 24 78V63C24 59 26 58 30 58H56V-14C56 -17 58 -19 61 -19H83C86 -19 88 -17 88 -14ZM88 267C122 267 145 263 145 206C145 157 127 147 88 147Z" glyph-name="ruble.dnom" horiz-adv-x="200" /><glyph d="M88 411V483H141C144 483 146 484 146 488V503C146 507 144 508 141 508H88V547H92C153 547 176 577 176 635C176 693 146 720 85 720H61C58 720 56 718 56 715V572H30C26 572 24 570 24 567V552C24 548 26 547 30 547H56V508H30C26 508 24 507 24 503V488C24 484 26 483 30 483H56V411C56 408 58 406 61 406H83C86 406 88 408 88 411ZM88 692C122 692 145 688 145 631C145 582 127 572 88 572Z" glyph-name="ruble.numr" horiz-adv-x="200" /><glyph d="M88 -59V13H141C144 13 146 14 146 18V33C146 37 144 38 141 38H88V77H92C153 77 176 107 176 165C176 223 146 250 85 250H61C58 250 56 248 56 245V102H30C26 102 24 100 24 97V82C24 78 26 77 30 77H56V38H30C26 38 24 37 24 33V18C24 14 26 13 30 13H56V-59C56 -62 58 -64 61 -64H83C86 -64 88 -62 88 -59ZM88 222C122 222 145 218 145 161C145 112 127 102 88 102Z" glyph-name="rubleinferior" horiz-adv-x="200" /><glyph d="M88 466V538H141C144 538 146 539 146 543V558C146 562 144 563 141 563H88V602H92C153 602 176 632 176 690C176 748 146 775 85 775H61C58 775 56 773 56 770V627H30C26 627 24 625 24 622V607C24 603 26 602 30 602H56V563H30C26 563 24 562 24 558V543C24 539 26 538 30 538H56V466C56 463 58 461 61 461H83C86 461 88 463 88 466ZM88 747C122 747 145 743 145 686C145 637 127 627 88 627Z" glyph-name="rublesuperior" horiz-adv-x="200" /><glyph d="M111 269H170C174 269 176 271 176 274V290C176 293 174 295 170 295H31C27 295 25 293 25 290V274C25 271 27 269 31 269H55C91 269 111 246 111 203C111 169 89 148 68 148H65C62 148 60 148 60 145C60 143 61 140 62 137L107 -14C108 -17 110 -19 113 -19H132C135 -19 137 -17 137 -15C137 -14 137 -13 136 -10L95 132C120 142 142 167 142 204C142 237 128 259 111 269ZM41 214C38 214 35 212 35 211V192C35 191 38 189 41 189H167C169 189 172 191 172 192V211C172 212 169 214 167 214Z" glyph-name="rupee.dnom" horiz-adv-x="200" /><glyph d="M111 694H170C174 694 176 696 176 699V715C176 718 174 720 170 720H31C27 720 25 718 25 715V699C25 696 27 694 31 694H55C91 694 111 671 111 628C111 594 89 573 68 573H65C62 573 60 573 60 570C60 568 61 565 62 562L107 411C108 408 110 406 113 406H132C135 406 137 408 137 410C137 411 137 412 136 415L95 557C120 567 142 592 142 629C142 662 128 684 111 694ZM41 639C38 639 35 637 35 636V617C35 616 38 614 41 614H167C169 614 172 616 172 617V636C172 637 169 639 167 639Z" glyph-name="rupee.numr" horiz-adv-x="200" /><glyph d="M111 224H170C174 224 176 226 176 229V245C176 248 174 250 170 250H31C27 250 25 248 25 245V229C25 226 27 224 31 224H55C91 224 111 201 111 158C111 124 89 103 68 103H65C62 103 60 103 60 100C60 98 61 95 62 92L107 -59C108 -62 110 -64 113 -64H132C135 -64 137 -62 137 -60C137 -59 137 -58 136 -55L95 87C120 97 142 122 142 159C142 192 128 214 111 224ZM41 169C38 169 35 167 35 166V147C35 146 38 144 41 144H167C169 144 172 146 172 147V166C172 167 169 169 167 169Z" glyph-name="rupeeinferior" horiz-adv-x="200" /><glyph d="M111 749H170C174 749 176 751 176 754V770C176 773 174 775 170 775H31C27 775 25 773 25 770V754C25 751 27 749 31 749H55C91 749 111 726 111 683C111 649 89 628 68 628H65C62 628 60 628 60 625C60 623 61 620 62 617L107 466C108 463 110 461 113 461H132C135 461 137 463 137 465C137 466 137 467 136 470L95 612C120 622 142 647 142 684C142 717 128 739 111 749ZM41 694C38 694 35 692 35 691V672C35 671 38 669 41 669H167C169 669 172 671 172 672V691C172 692 169 694 167 694Z" glyph-name="rupeesuperior" horiz-adv-x="200" /><glyph d="M22 231C14 231 10 227 10 219C10 90 68 -14 194 -14C318 -14 375 71 375 182C375 300 300 364 219 436C180 471 150 510 150 558C150 592 163 616 188 616C227 616 231 569 232 517C232 509 236 505 244 505H354C362 505 366 509 366 517C366 637 312 732 190 732C80 732 16 658 16 546C16 450 57 394 142 316C178 283 242 237 242 165C242 126 226 102 196 102C157 102 143 150 142 219C142 227 138 231 130 231Z" glyph-name="s" horiz-adv-x="384" unicode="s" /><glyph d="M22 231C14 231 10 227 10 219C10 90 68 -14 194 -14C318 -14 375 71 375 182C375 300 300 364 219 436C180 471 150 510 150 558C150 592 163 616 188 616C227 616 231 569 232 517C232 509 236 505 244 505H354C362 505 366 509 366 517C366 637 312 732 190 732C80 732 16 658 16 546C16 450 57 394 142 316C178 283 242 237 242 165C242 126 226 102 196 102C157 102 143 150 142 219C142 227 138 231 130 231ZM272 869H212C206 869 201 866 198 860L158 774C154 766 158 760 167 760H198C204 760 208 762 212 767L279 854C285 862 282 869 272 869Z" glyph-name="sacute" horiz-adv-x="384" unicode="&#347;" /><glyph d="M22 231C14 231 10 227 10 219C10 90 68 -14 194 -14C318 -14 375 71 375 182C375 300 300 364 219 436C180 471 150 510 150 558C150 592 163 616 188 616C227 616 231 569 232 517C232 509 236 505 244 505H354C362 505 366 509 366 517C366 637 312 732 190 732C80 732 16 658 16 546C16 450 57 394 142 316C178 283 242 237 242 165C242 126 226 102 196 102C157 102 143 150 142 219C142 227 138 231 130 231ZM143 768C147 761 151 760 157 760H210C216 760 220 761 224 768L275 854C281 863 277 869 267 869H228C222 869 217 865 214 860L182 810L152 860C150 864 144 869 138 869H99C89 869 86 863 91 854Z" glyph-name="scaron" horiz-adv-x="384" unicode="&#353;" /><glyph d="M22 231C14 231 10 227 10 219C10 90 68 -14 194 -14C318 -14 375 71 375 182C375 300 300 364 219 436C180 471 150 510 150 558C150 592 163 616 188 616C227 616 231 569 232 517C232 509 236 505 244 505H354C362 505 366 509 366 517C366 637 312 732 190 732C80 732 16 658 16 546C16 450 57 394 142 316C178 283 242 237 242 165C242 126 226 102 196 102C157 102 143 150 142 219C142 227 138 231 130 231ZM163 -46 174 -57 227 0C232 6 227 12 220 12H194C188 12 187 8 183 3L147 -50C144 -55 145 -58 153 -64L168 -74C172 -77 176 -77 182 -71C186 -67 190 -65 199 -65C217 -65 225 -80 225 -101C225 -121 217 -137 198 -137C188 -137 180 -131 176 -124C173 -119 172 -118 167 -118H136C128 -118 125 -122 127 -129C138 -164 167 -181 199 -181C241 -181 276 -145 276 -101C276 -40 221 -8 163 -46Z" glyph-name="scedilla" horiz-adv-x="384" unicode="&#351;" /><glyph d="M340 0C384 0 419 36 419 80V638C419 682 384 718 340 718H117C73 718 37 682 37 638V467C37 458 41 455 49 454H159C167 454 172 458 172 466V559C172 590 197 616 228 616C260 616 285 590 285 559V358H49C41 358 37 355 37 345V80C37 36 73 0 117 0ZM228 102C197 102 172 128 172 159V248H285V159C285 128 260 102 228 102Z" glyph-name="schwa" horiz-adv-x="449" /><glyph d="M22 231C14 231 10 227 10 219C10 90 68 -14 194 -14C318 -14 375 71 375 182C375 300 300 364 219 436C180 471 150 510 150 558C150 592 163 616 188 616C227 616 231 569 232 517C232 509 236 505 244 505H354C362 505 366 509 366 517C366 637 312 732 190 732C80 732 16 658 16 546C16 450 57 394 142 316C178 283 242 237 242 165C242 126 226 102 196 102C157 102 143 150 142 219C142 227 138 231 130 231ZM91 775C86 766 89 760 99 760H138C144 760 150 765 152 769L182 819L214 769C217 764 222 760 228 760H267C277 760 281 766 275 775L224 861C220 868 216 869 210 869H157C151 869 147 868 143 861Z" glyph-name="scircumflex" horiz-adv-x="384" unicode="&#349;" /><glyph d="M22 231C14 231 10 227 10 219C10 90 68 -14 194 -14C318 -14 375 71 375 182C375 300 300 364 219 436C180 471 150 510 150 558C150 592 163 616 188 616C227 616 231 569 232 517C232 509 236 505 244 505H354C362 505 366 509 366 517C366 637 312 732 190 732C80 732 16 658 16 546C16 450 57 394 142 316C178 283 242 237 242 165C242 126 226 102 196 102C157 102 143 150 142 219C142 227 138 231 130 231ZM145 -181H182C189 -181 191 -179 194 -171L233 -56C236 -48 231 -42 224 -42H168C161 -42 156 -43 155 -51L135 -167C134 -174 138 -181 145 -181Z" glyph-name="scommaaccent" horiz-adv-x="384" unicode="&#537;" /><glyph d="M204 -14C292 -14 361 38 361 111C361 160 331 196 304 220C352 246 369 291 369 334C369 484 163 496 163 596C163 623 177 642 201 642C226 642 245 621 245 556C245 549 249 545 257 545H352C360 545 364 549 364 556C364 659 296 732 196 732C111 732 48 680 48 607C48 562 72 524 96 498C49 473 30 429 30 384C30 235 236 216 236 124C236 99 221 86 200 86C173 86 154 107 154 162C154 169 150 173 142 173H47C39 173 35 169 35 162C35 59 100 -14 204 -14ZM171 441C223 408 262 363 262 326C262 307 252 290 228 277C176 310 137 355 137 392C137 411 147 428 171 441Z" glyph-name="section" horiz-adv-x="399" unicode="&#167;" /><glyph d="M9 -113H72C80 -113 84 -111 86 -103L158 154C160 162 156 168 148 168H58C50 168 45 167 44 159L-2 -99C-3 -106 1 -113 9 -113ZM171 356C171 393 142 424 105 424C68 424 39 393 39 356C39 318 68 287 105 287C142 287 171 318 171 356Z" glyph-name="semicolon" horiz-adv-x="189" unicode=";" /><glyph d="M28 460C24 460 21 458 21 454C22 379 70 331 141 331C215 331 265 376 265 442C265 566 109 556 109 626C109 647 121 658 138 658C164 658 169 628 169 606C169 602 170 600 175 600H247C252 600 256 602 256 606C256 677 219 727 139 727C62 727 19 678 19 619C19 495 175 500 175 432C175 412 165 400 145 400C124 400 112 416 108 454C107 459 106 460 100 460ZM385 351V576L446 349C448 342 451 340 457 340H496C502 340 505 342 507 349L567 578V351C567 343 571 340 578 340H642C649 340 653 343 653 351V707C653 714 649 718 642 718H545C539 718 536 715 534 709L477 488L419 709C417 715 415 718 409 718H310C304 718 301 714 301 707V351C301 343 304 340 310 340H376C382 340 385 343 385 351Z" glyph-name="servicemark" horiz-adv-x="676" /><glyph d="M0 608C0 600 4 596 12 596H201C129 405 72 232 58 12C57 4 61 0 69 0H200C208 0 212 4 212 12C214 233 264 434 327 620C329 625 330 632 330 638V706C330 714 326 718 318 718H12C4 718 0 714 0 706Z" glyph-name="seven" horiz-adv-x="329" unicode="7" /><glyph d="M35 608C35 600 39 596 47 596H236C164 405 107 232 93 12C92 4 96 0 104 0H235C243 0 247 4 247 12C249 233 299 434 362 620C364 625 365 632 365 638V706C365 714 361 718 353 718H47C39 718 35 714 35 706Z" glyph-name="seven.LT" horiz-adv-x="400" /><glyph d="M19 252C19 248 21 247 24 247H112C80 162 57 87 51 -9C51 -12 52 -14 56 -14H122C125 -14 127 -12 127 -9C130 91 149 172 180 265C181 268 181 272 181 276V302C181 305 179 307 176 307H24C21 307 19 305 19 302Z" glyph-name="seven.dnom" horiz-adv-x="200" /><glyph d="M19 677C19 673 21 672 24 672H112C80 587 57 512 51 416C51 413 52 411 56 411H122C125 411 127 413 127 416C130 516 149 597 180 690C181 693 181 697 181 701V727C181 730 179 732 176 732H24C21 732 19 730 19 727Z" glyph-name="seven.numr" horiz-adv-x="200" /><glyph d="M29 677C29 673 31 672 34 672H122C90 587 67 512 61 416C61 413 62 411 66 411H132C135 411 137 413 137 416C140 516 159 597 190 690C191 693 191 697 191 701V727C191 730 189 732 186 732H34C31 732 29 730 29 727ZM300 -14C354 -14 394 21 394 72C394 114 372 134 346 154C368 172 383 194 383 227C383 275 350 307 300 307C250 307 217 275 217 227C217 194 233 172 255 154C228 132 206 114 206 72C206 21 250 -14 300 -14ZM343 732C339 732 336 731 334 726L22 -7C20 -11 21 -14 26 -14H59C63 -14 65 -12 67 -8L378 724C380 728 379 732 374 732ZM300 30C289 30 274 40 274 66C274 89 284 108 300 120C317 108 327 89 327 66C327 40 312 30 300 30ZM300 186C287 196 280 214 280 233C280 249 287 263 300 263C314 263 320 249 320 233C320 214 313 196 300 186Z" glyph-name="seveneighths" horiz-adv-x="400" unicode="&#8542;" /></font>
</defs>
</svg>
